<svg width="32" height="32" viewBox="0 0 32 32" fill="none" xmlns="http://www.w3.org/2000/svg">
<circle cx="16" cy="16" r="16" transform="matrix(-1 0 0 1 32 0)" fill="#454545"/>
<path opacity="0.7" d="M19.0577 9.75072C19.1491 9.8492 19.2002 9.98139 19.2002 10.119C19.2002 10.2567 19.1491 10.3889 19.0577 10.4874L13.9551 16.0001L19.0577 21.5117C19.1491 21.6102 19.2002 21.7424 19.2002 21.88C19.2002 22.0177 19.1491 22.1499 19.0577 22.2484C19.0133 22.2964 18.9603 22.3346 18.9016 22.3606C18.843 22.3867 18.78 22.4001 18.7164 22.4001C18.6527 22.4001 18.5897 22.3867 18.5311 22.3606C18.4725 22.3346 18.4194 22.2964 18.375 22.2484L12.9488 16.385C12.8535 16.282 12.8002 16.1439 12.8002 16.0001C12.8002 15.8563 12.8535 15.7182 12.9488 15.6152L18.375 9.75183C18.4194 9.70381 18.4725 9.66564 18.5311 9.63958C18.5897 9.61352 18.6527 9.6001 18.7164 9.6001C18.78 9.6001 18.843 9.61352 18.9016 9.63958C18.9603 9.66564 19.0133 9.70381 19.0577 9.75183V9.75072Z" fill="white"/>
</svg>
