<svg width="30" height="32" viewBox="0 0 30 32" fill="none" xmlns="http://www.w3.org/2000/svg">
<ellipse cx="15" cy="16" rx="15" ry="16" fill="#454545"/>
<path opacity="0.7" d="M12.1336 9.75072C12.0479 9.8492 12 9.98139 12 10.119C12 10.2567 12.0479 10.3889 12.1336 10.4874L16.9173 16.0001L12.1336 21.5117C12.0479 21.6102 12 21.7424 12 21.88C12 22.0177 12.0479 22.1499 12.1336 22.2484C12.1752 22.2964 12.2249 22.3346 12.2799 22.3606C12.3349 22.3867 12.3939 22.4001 12.4536 22.4001C12.5132 22.4001 12.5723 22.3867 12.6273 22.3606C12.6822 22.3346 12.732 22.2964 12.7736 22.2484L17.8607 16.385C17.95 16.282 18 16.1439 18 16.0001C18 15.8563 17.95 15.7182 17.8607 15.6152L12.7736 9.75183C12.732 9.70381 12.6822 9.66564 12.6273 9.63958C12.5723 9.61352 12.5132 9.6001 12.4536 9.6001C12.3939 9.6001 12.3349 9.61352 12.2799 9.63958C12.2249 9.66564 12.1752 9.70381 12.1336 9.75183V9.75072Z" fill="white"/>
</svg>
