<svg width="32" height="34" viewBox="0 0 32 34" fill="none" xmlns="http://www.w3.org/2000/svg">
<ellipse cx="16" cy="17" rx="16" ry="17" fill="#0FAE96"/>
<path fill-rule="evenodd" clip-rule="evenodd" d="M21.6516 21.9018C21.9811 21.5517 22.2425 21.1361 22.4208 20.6787C22.5991 20.2213 22.6909 19.7311 22.6909 19.236C22.6909 18.7409 22.5991 18.2506 22.4208 17.7932C22.2425 17.3358 21.9811 16.9202 21.6516 16.5701L16.0752 10.646C15.9654 10.5293 15.8782 10.3907 15.8187 10.2382C15.7593 10.0857 15.7287 9.92219 15.7287 9.7571C15.7287 9.4237 15.8533 9.10395 16.0752 8.8682C16.2971 8.63244 16.598 8.5 16.9118 8.5C17.0672 8.5 17.2211 8.53252 17.3646 8.59569C17.5082 8.65887 17.6386 8.75146 17.7484 8.8682L23.3233 14.7923C24.4245 15.9723 25.0409 17.5677 25.0377 19.2294C25.0345 20.8911 24.4119 22.4838 23.3062 23.659C22.2004 24.8342 20.7016 25.4961 19.1376 25.5C17.5737 25.5039 16.0719 24.8493 14.961 23.6796L8.27048 16.5709C7.45708 15.7068 7.00007 14.5347 7 13.3126C6.99993 12.0905 7.45679 10.9183 8.27009 10.0541C9.08338 9.18986 10.1865 8.70429 11.3367 8.70421C12.487 8.70414 13.5902 9.18955 14.4036 10.0537L20.8158 16.8667C21.3334 17.4166 21.6241 18.1625 21.6241 18.9402C21.6241 19.7179 21.3334 20.4638 20.8158 21.0138C20.2982 21.5637 19.5962 21.8727 18.8642 21.8727C18.1322 21.8727 17.4302 21.5637 16.9126 21.0138L11.0579 14.7931C10.9481 14.6764 10.861 14.5378 10.8016 14.3853C10.7422 14.2328 10.7116 14.0694 10.7116 13.9043C10.7117 13.7393 10.7423 13.5759 10.8018 13.4234C10.8613 13.2709 10.9484 13.1324 11.0583 13.0157C11.1681 12.899 11.2986 12.8065 11.4421 12.7434C11.5856 12.6802 11.7394 12.6478 11.8948 12.6478C12.0501 12.6479 12.2039 12.6804 12.3474 12.7436C12.4909 12.8068 12.6213 12.8994 12.7311 13.0161L18.5851 19.2368C18.659 19.3155 18.7593 19.3597 18.8639 19.3598C18.9157 19.3598 18.967 19.349 19.0149 19.328C19.0628 19.3069 19.1063 19.2761 19.1429 19.2372C19.1796 19.1983 19.2087 19.1521 19.2285 19.1013C19.2484 19.0505 19.2586 18.996 19.2587 18.9409C19.2587 18.8859 19.2485 18.8314 19.2288 18.7805C19.209 18.7296 19.1799 18.6834 19.1433 18.6445L12.7303 11.8307C12.3601 11.4406 11.8596 11.2223 11.3383 11.2235C10.817 11.2246 10.3173 11.4451 9.94862 11.8367C9.57993 12.2283 9.37226 12.7592 9.37105 13.3131C9.36983 13.867 9.57517 14.3988 9.94214 14.7923L16.6335 21.9018C16.963 22.2519 17.3541 22.5296 17.7846 22.7191C18.2152 22.9086 18.6766 23.0061 19.1425 23.0061C19.6085 23.0061 20.0699 22.9086 20.5004 22.7191C20.9309 22.5296 21.3221 22.2519 21.6516 21.9018Z" fill="white"/>
</svg>
