<svg width="43" height="52" viewBox="0 0 43 52" fill="none" xmlns="http://www.w3.org/2000/svg">
<path fill-rule="evenodd" clip-rule="evenodd" d="M21.8192 0.130859V16.8031C21.8192 17.8235 22.2322 18.8021 22.9672 19.5237C23.7023 20.2452 24.6992 20.6506 25.7387 20.6506H42.7232V46.3002C42.7232 47.6607 42.1726 48.9655 41.1925 49.9276C40.2125 50.8896 38.8832 51.4301 37.4972 51.4301H6.14127C4.75525 51.4301 3.426 50.8896 2.44594 49.9276C1.46588 48.9655 0.915283 47.6607 0.915283 46.3002V5.26078C0.915283 3.90024 1.46588 2.59543 2.44594 1.63338C3.426 0.671332 4.75525 0.130859 6.14127 0.130859H21.8192ZM19.235 25.3906C18.609 29.297 16.5279 32.8362 13.3949 35.3221C11.0772 37.1586 13.1964 40.7624 15.9766 39.7133C19.7364 38.2927 23.8995 38.2927 27.6593 39.7133C30.4395 40.765 32.5586 37.1612 30.2409 35.3221C27.1082 32.836 25.0271 29.2969 24.4009 25.3906C23.9384 22.5025 19.6975 22.4999 19.235 25.3906ZM21.8192 31.6876L23.9253 35.2631H19.7184L21.8192 31.6876ZM27.0452 0.241153C28.0352 0.447261 28.943 0.931106 29.6582 1.63393L41.192 12.9557C41.908 13.6578 42.4009 14.5488 42.6108 15.5206H27.0452V0.241153Z" fill="#2B2B2B"/>
</svg>
