<svg width="21" height="21" viewBox="0 0 21 21" fill="none" xmlns="http://www.w3.org/2000/svg">
<path fill-rule="evenodd" clip-rule="evenodd" d="M0.29248 10.1021C0.29248 7.44989 1.34605 4.90635 3.22141 3.03098C5.09678 1.15562 7.64032 0.102051 10.2925 0.102051C12.9446 0.102051 15.4882 1.15562 17.3635 3.03098C19.2389 4.90635 20.2925 7.44989 20.2925 10.1021C20.2925 12.7542 19.2389 15.2978 17.3635 17.1731C15.4882 19.0485 12.9446 20.1021 10.2925 20.1021C7.64032 20.1021 5.09678 19.0485 3.22141 17.1731C1.34605 15.2978 0.29248 12.7542 0.29248 10.1021ZM10.2925 1.53645C8.02074 1.53645 5.84205 2.43889 4.23568 4.04525C2.62932 5.65162 1.72688 7.83031 1.72688 10.1021C1.72688 12.3738 2.62932 14.5525 4.23568 16.1588C5.84205 17.7652 8.02074 18.6677 10.2925 18.6677C12.5642 18.6677 14.7429 17.7652 16.3493 16.1588C17.9556 14.5525 18.8581 12.3738 18.8581 10.1021C18.8581 7.83031 17.9556 5.65162 16.3493 4.04525C14.7429 2.43889 12.5642 1.53645 10.2925 1.53645ZM13.8468 6.54928C13.9883 6.69085 14.0678 6.88284 14.0678 7.08303C14.0678 7.28321 13.9883 7.4752 13.8468 7.61677L11.36 10.1021L13.8468 12.5873C13.9885 12.7291 14.0682 12.9214 14.0682 13.1218C14.0682 13.3223 13.9885 13.5146 13.8468 13.6563C13.705 13.7981 13.5127 13.8777 13.3123 13.8777C13.1118 13.8777 12.9195 13.7981 12.7778 13.6563L10.2925 11.1695L7.8072 13.6563C7.73701 13.7265 7.65368 13.7822 7.56197 13.8202C7.47026 13.8582 7.37197 13.8777 7.2727 13.8777C7.17343 13.8777 7.07514 13.8582 6.98343 13.8202C6.89172 13.7822 6.80839 13.7265 6.7382 13.6563C6.66801 13.5861 6.61233 13.5028 6.57434 13.4111C6.53635 13.3194 6.5168 13.2211 6.5168 13.1218C6.5168 13.0226 6.53635 12.9243 6.57434 12.8326C6.61233 12.7409 6.66801 12.6575 6.7382 12.5873L9.22499 10.1021L6.7382 7.61677C6.59644 7.47501 6.5168 7.28275 6.5168 7.08227C6.5168 6.88179 6.59644 6.68953 6.7382 6.54777C6.87996 6.40601 7.07222 6.32637 7.2727 6.32637C7.47318 6.32637 7.66544 6.40601 7.8072 6.54777L10.2925 9.03456L12.7778 6.54777C12.8479 6.47746 12.9312 6.42168 13.0229 6.38363C13.1146 6.34557 13.213 6.32598 13.3123 6.32598C13.4116 6.32598 13.5099 6.34557 13.6016 6.38363C13.6933 6.42168 13.7766 6.47897 13.8468 6.54928Z" fill="white"/>
</svg>
