<svg width="43" height="53" viewBox="0 0 43 53" fill="none" xmlns="http://www.w3.org/2000/svg">
<path fill-rule="evenodd" clip-rule="evenodd" d="M21.819 0.729492V17.714C21.819 18.7535 22.2319 19.7504 22.967 20.4855C23.702 21.2205 24.699 21.6334 25.7385 21.6334H42.7229V47.7634C42.7229 49.1494 42.1724 50.4787 41.1923 51.4587C40.2122 52.4388 38.883 52.9894 37.497 52.9894H6.14103C4.75501 52.9894 3.42576 52.4388 2.4457 51.4587C1.46563 50.4787 0.915039 49.1494 0.915039 47.7634V5.95548C0.915039 4.56946 1.46563 3.24021 2.4457 2.26015C3.42576 1.28009 4.75501 0.729492 6.14103 0.729492H21.819ZM19.2347 26.4623C18.6088 30.4418 16.5276 34.0473 13.3947 36.5798C11.077 38.4507 13.1961 42.1219 15.9763 41.0532C19.7361 39.606 23.8993 39.606 27.659 41.0532C30.4393 42.1245 32.5584 38.4533 30.2407 36.5798C27.1079 34.0471 25.0268 30.4417 24.4006 26.4623C23.9381 23.52 19.6972 23.5174 19.2347 26.4623ZM21.819 32.8772L23.9251 36.5197H19.7181L21.819 32.8772ZM27.045 0.841851C28.035 1.05182 28.9427 1.54472 29.658 2.26071L41.1917 13.7945C41.9077 14.5097 42.4006 15.4175 42.6106 16.4075H27.045V0.841851Z" fill="#C6C6C6"/>
</svg>
