<svg width="45" height="45" viewBox="0 0 45 45" fill="none" xmlns="http://www.w3.org/2000/svg">
<rect y="0.017334" width="44.3674" height="44.3674" rx="5" fill="white"/>
<path d="M29.2946 15.3409C27.973 14.7226 26.5599 14.2732 25.0825 14.0173C24.9011 14.3454 24.6891 14.7866 24.543 15.1376C22.9725 14.9014 21.4165 14.9014 19.8749 15.1376C19.7288 14.7866 19.512 14.3454 19.3289 14.0173C17.85 14.2732 16.4352 14.7242 15.1137 15.3442C12.448 19.3724 11.7254 23.3005 12.0867 27.1728C13.8547 28.4931 15.5681 29.2951 17.2526 29.82C17.6685 29.2475 18.0394 28.6391 18.359 27.9978C17.7504 27.7665 17.1675 27.4811 16.6167 27.1498C16.7628 27.0416 16.9058 26.9284 17.0438 26.8119C20.4032 28.3832 24.0532 28.3832 27.3724 26.8119C27.5121 26.9284 27.655 27.0416 27.7996 27.1498C27.2472 27.4828 26.6627 27.7681 26.0541 27.9994C26.3736 28.6391 26.743 29.2492 27.1605 29.8216C28.8466 29.2967 30.5616 28.4947 32.3296 27.1728C32.7535 22.6838 31.6054 18.7917 29.2946 15.3409ZM18.8167 24.7913C17.8082 24.7913 16.9812 23.8499 16.9812 22.7034C16.9812 21.557 17.7906 20.6139 18.8167 20.6139C19.8428 20.6139 20.6698 21.5553 20.6521 22.7034C20.6537 23.8499 19.8428 24.7913 18.8167 24.7913ZM25.5996 24.7913C24.5912 24.7913 23.7642 23.8499 23.7642 22.7034C23.7642 21.557 24.5735 20.6139 25.5996 20.6139C26.6257 20.6139 27.4527 21.5553 27.4351 22.7034C27.4351 23.8499 26.6257 24.7913 25.5996 24.7913Z" fill="black"/>
</svg>
