<svg width="45" height="45" viewBox="0 0 45 45" fill="none" xmlns="http://www.w3.org/2000/svg">
<rect width="44.3674" height="44.3674" rx="5" fill="#232323"/>
<path d="M29.7262 15.3236C28.4046 14.7053 26.9915 14.2559 25.5142 14C25.3327 14.328 25.1208 14.7692 24.9746 15.1202C23.4041 14.884 21.8481 14.884 20.3065 15.1202C20.1604 14.7692 19.9436 14.328 19.7606 14C18.2816 14.2559 16.8669 14.7069 15.5453 15.3269C12.8796 19.355 12.157 23.2831 12.5183 27.1554C14.2863 28.4757 15.9997 29.2778 17.6842 29.8026C18.1001 29.2302 18.4711 28.6217 18.7906 27.9804C18.182 27.7492 17.5991 27.4638 17.0483 27.1325C17.1945 27.0242 17.3374 26.9111 17.4755 26.7946C20.8348 28.3659 24.4849 28.3659 27.8041 26.7946C27.9438 26.9111 28.0867 27.0242 28.2312 27.1325C27.6788 27.4654 27.0943 27.7508 26.4857 27.9821C26.8053 28.6217 27.1746 29.2319 27.5921 29.8042C29.2782 29.2794 30.9932 28.4774 32.7612 27.1554C33.1852 22.6664 32.037 18.7744 29.7262 15.3236ZM19.2483 24.774C18.2399 24.774 17.4128 23.8326 17.4128 22.6861C17.4128 21.5397 18.2222 20.5966 19.2483 20.5966C20.2744 20.5966 21.1014 21.538 21.0837 22.6861C21.0853 23.8326 20.2744 24.774 19.2483 24.774ZM26.0313 24.774C25.0228 24.774 24.1958 23.8326 24.1958 22.6861C24.1958 21.5397 25.0051 20.5966 26.0313 20.5966C27.0574 20.5966 27.8844 21.538 27.8667 22.6861C27.8667 23.8326 27.0574 24.774 26.0313 24.774Z" fill="white"/>
</svg>
