<svg width="180" height="70" viewBox="0 0 180 70" fill="none" xmlns="http://www.w3.org/2000/svg">
<path d="M155.616 41.1548C155.616 44.9488 152.543 48.0243 148.751 48.0243H109.39C105.598 48.0243 102.525 44.9488 102.525 41.1548V8.86922C102.525 5.07544 105.598 2 109.39 2H148.751C152.543 2 155.616 5.07544 155.616 8.86922V41.1548Z" stroke="white" stroke-width="4" stroke-miterlimit="10"/>
<path d="M129.3 28.4469C129.3 29.7748 128.271 30.8512 127.003 30.8512H116.722C115.453 30.8512 114.425 29.7748 114.425 28.4469V20.8906C114.425 19.5626 115.453 18.4863 116.722 18.4863H127.003C128.271 18.4863 129.3 19.5626 129.3 20.8906V28.4469Z" fill="white"/>
<path d="M149.781 18.8295C149.781 20.1575 148.753 21.2335 147.484 21.2335H137.203C135.934 21.2335 134.906 20.1572 134.906 18.8295V11.2732C134.906 9.94527 135.934 8.8689 137.203 8.8689H147.484C148.753 8.8689 149.781 9.94527 149.781 11.2732V18.8295Z" fill="white"/>
<path d="M150.01 37.6054C150.01 38.9334 148.982 40.0098 147.713 40.0098H137.432C136.163 40.0098 135.135 38.9334 135.135 37.6054V30.0492C135.135 28.7212 136.163 27.6448 137.432 27.6448H147.713C148.982 27.6448 150.01 28.7212 150.01 30.0492V37.6054Z" fill="white"/>
<path d="M0 11.9703C0 11.0416 0.499754 10.5416 1.42815 10.5416H3.46272C4.39112 10.5416 4.89088 11.0416 4.89088 11.9703V26.8651C4.89088 30.1155 7.21102 31.83 9.70979 31.83C12.2086 31.83 14.529 30.1155 14.529 26.8651V11.9703C14.529 11.0416 15.0287 10.5416 15.9571 10.5416H17.9917C18.9198 10.5416 19.4199 11.0416 19.4199 11.9703V26.8651C19.4199 32.1513 16.1355 35.7234 9.70979 35.7234C3.28438 35.7234 0 32.1513 0 26.8651V11.9703Z" fill="black"/>
<path d="M39.7321 10.5416C40.6605 10.5416 41.1603 11.0417 41.1603 11.9703V13.0063C41.1603 13.9349 40.6605 14.4353 39.7321 14.4353H34.5559V34.1163C34.5559 35.0449 34.0562 35.5453 33.1281 35.5453H31.0932C30.1651 35.5453 29.6654 35.0449 29.6654 34.1163V14.435H24.4892C23.5611 14.435 23.061 13.9349 23.061 13.006V11.97C23.061 11.0414 23.5611 10.5413 24.4892 10.5413L39.7321 10.5416Z" fill="black"/>
<path d="M50.7279 23.0073L43.3741 11.7202C42.8741 10.9344 43.0882 10.5413 44.0166 10.5413H46.4082C47.3366 10.5413 48.1216 10.9699 48.6214 11.7557L53.8337 19.7568L59.0454 11.7557C59.5451 10.9699 60.3305 10.5413 61.2586 10.5413H63.6501C64.5785 10.5413 64.7927 10.9341 64.2929 11.7202L56.9391 23.0073L64.4713 34.3659C65.0069 35.1519 64.7569 35.545 63.8287 35.545H61.4369C60.5088 35.545 59.7238 35.1519 59.1882 34.3659L53.8337 26.5794L48.4789 34.3659C47.9436 35.1519 47.1579 35.545 46.2301 35.545H43.8383C42.9102 35.545 42.6602 35.1519 43.1958 34.3659L50.7279 23.0073Z" fill="black"/>
<path d="M77.5018 10.3629C84.3915 10.3629 88.9251 15.3992 88.9251 23.0431C88.9251 30.687 84.3915 35.7234 77.5018 35.7234C70.612 35.7234 66.0786 30.687 66.0786 23.0431C66.0786 15.3992 70.612 10.3629 77.5018 10.3629ZM77.5018 31.83C81.3929 31.83 84.0345 28.3652 84.0345 23.0431C84.0345 17.721 81.3929 14.2562 77.5018 14.2562C73.6108 14.2562 70.9692 17.721 70.9692 23.0431C70.9692 28.3652 73.6108 31.83 77.5018 31.83Z" fill="black"/>
<g opacity="0.9">
<path d="M4.67368 65.7477C4.67368 65.9942 4.55763 66.1103 4.31103 66.1103H3.90485C3.65825 66.1103 3.54248 65.9797 3.54248 65.7477V59.2166C3.54248 58.9844 3.65825 58.8537 3.90485 58.8537H4.07893C4.31074 58.8537 4.4706 58.9699 4.51383 59.2024L4.67368 59.9426C5.13788 59.1588 5.94995 58.7817 6.97989 58.7817C8.19813 58.7817 8.92344 59.3188 9.24258 60.1894C9.69199 59.2459 10.7364 58.7817 11.6791 58.7817C13.6081 58.7817 14.2464 59.9426 14.2464 61.6116V65.748C14.2464 65.9945 14.1303 66.1106 13.884 66.1106H13.4778C13.2312 66.1106 13.1152 65.98 13.1152 65.748V61.597C13.1152 60.61 12.9121 59.6814 11.5053 59.6814C10.5043 59.6814 9.46017 60.4504 9.46017 62.1922V65.748C9.46017 65.9945 9.34412 66.1106 9.09752 66.1106H8.69134C8.44502 66.1106 8.32897 65.98 8.32897 65.748V61.597C8.32897 60.61 8.12588 59.6814 6.71906 59.6814C5.71813 59.6814 4.67397 60.4504 4.67397 62.1922V65.7477H4.67368Z" fill="black"/>
<path d="M21.8197 64.9201C21.3845 65.6894 20.5722 66.1829 19.3972 66.1829C18.1064 66.1829 17.0039 65.559 17.0039 64.1221C17.0039 61.9306 19.4987 61.6984 20.9493 61.6984H21.7759V61.3497C21.7759 60.1595 20.9493 59.6808 20.0061 59.6808C19.2376 59.6808 18.6718 59.8408 18.1641 60.1888C18.0768 60.2469 18.0043 60.2614 17.9462 60.2614C17.845 60.2614 17.7725 60.2034 17.6996 60.0872L17.5984 59.9421C17.4823 59.7244 17.5258 59.5357 17.7144 59.405C18.3524 58.9841 19.2083 58.7812 20.0061 58.7812C21.5003 58.7812 22.9071 59.5212 22.9071 61.3497V65.7475C22.9071 65.9794 22.7765 66.11 22.5447 66.11H22.4432C22.2114 66.11 22.066 65.9939 22.008 65.7617L21.8197 64.9201ZM20.9496 62.5112C19.9922 62.5112 18.1354 62.7432 18.1354 64.1221C18.1354 64.9346 18.7882 65.2833 19.3974 65.2833C20.9641 65.2833 21.7762 64.2092 21.7762 62.9612V62.5112H20.9496Z" fill="black"/>
<path d="M26.4039 66.1103C26.1721 66.1103 26.0415 65.9942 26.0415 65.7477V56.3139C26.0415 56.0672 26.1721 55.9514 26.4039 55.9514H26.7955C27.0276 55.9514 27.1582 56.0672 27.1582 56.3139V61.7564L29.624 59.115C29.7835 58.9411 30.0009 58.8538 30.2332 58.8538H30.944C31.1759 58.8538 31.2197 58.9411 31.0598 59.115L28.2024 62.1777L31.2629 65.8351C31.4227 66.0238 31.3789 66.1109 31.1323 66.1109H30.4944C30.2477 66.1109 30.0592 66.0238 29.8996 65.8351L27.1582 62.555V65.7483C27.1582 65.9948 27.0276 66.1109 26.7955 66.1109H26.4039V66.1103Z" fill="black"/>
<path d="M34.0485 62.5835C34.121 64.4269 35.1942 65.283 36.4852 65.283C37.022 65.283 37.4279 65.2249 37.7908 65.1088C38.0226 65.0217 38.197 65.0795 38.3127 65.283L38.4001 65.4281C38.5306 65.6458 38.4726 65.8052 38.2547 65.8926C37.6602 66.1246 37.051 66.1829 36.4852 66.1829C34.5994 66.1829 32.917 65.0072 32.917 62.4238C32.917 60.2759 34.0627 58.7812 36.021 58.7812C38.0951 58.7812 39.0235 60.4066 39.1251 62.2206C39.1396 62.4529 39.0235 62.5835 38.7767 62.5835H34.0485ZM34.063 61.8142H38.0084C37.9504 60.5372 37.0658 59.6808 36.0213 59.6808C34.9769 59.6808 34.121 60.5372 34.063 61.8142Z" fill="black"/>
<path d="M45.857 65.0798C45.9295 64.9346 46.0165 64.862 46.1326 64.862C46.1906 64.862 46.2631 64.8766 46.3357 64.9201C46.7418 65.1233 47.2348 65.283 47.7283 65.283C48.5403 65.283 49.0625 64.8475 49.0625 64.1363C49.0625 63.5705 48.7579 63.2512 47.7425 62.8593C46.8579 62.5254 45.8715 62.0029 45.8715 60.7259C45.8715 59.5066 46.7854 58.7812 48.2502 58.7812C48.8882 58.7812 49.3524 58.9263 49.6715 59.0715C49.8891 59.1731 49.9471 59.3473 49.8456 59.565L49.7583 59.7247C49.657 59.9424 49.512 60.0004 49.2796 59.9131C48.9894 59.7972 48.5836 59.6811 48.1774 59.6811C47.3505 59.6811 47.0024 60.1311 47.0024 60.6969C47.0024 61.4516 47.6259 61.7129 48.3225 61.9742C49.207 62.308 50.1935 62.6999 50.1935 64.0495C50.1935 65.2685 49.3521 66.1829 47.6262 66.1829C47.0169 66.1829 46.4079 65.9797 45.9437 65.762C45.7261 65.6604 45.6826 65.4714 45.7839 65.2539L45.857 65.0798Z" fill="black"/>
<path d="M54.1391 59.7534V63.8608C54.1391 64.7898 54.3277 65.2833 55.0966 65.2833C55.2271 65.2833 55.3577 65.2685 55.4882 65.2397C55.7345 65.1817 55.8796 65.2688 55.9524 65.4865L55.9957 65.6316C56.0682 65.8636 55.9957 66.038 55.7638 66.0961C55.5027 66.1542 55.2561 66.1832 54.995 66.1832C53.5589 66.1832 53.0079 65.3707 53.0079 63.8611V59.7534H52.6163C52.3845 59.7534 52.2539 59.6228 52.2539 59.3905V59.2167C52.2539 58.9699 52.3845 58.8538 52.6163 58.8538H53.0079L53.2691 57.04C53.2981 56.8078 53.4431 56.6771 53.6752 56.6771H53.7768C54.0086 56.6771 54.1391 56.7932 54.1391 57.04V58.8538H55.3142C55.5608 58.8538 55.6765 58.9844 55.6765 59.2167V59.3905C55.6765 59.6373 55.546 59.7534 55.3142 59.7534H54.1391Z" fill="black"/>
<path d="M63.2196 64.9201C62.7844 65.6894 61.9721 66.1829 60.7971 66.1829C59.5063 66.1829 58.4038 65.559 58.4038 64.1221C58.4038 61.9306 60.8986 61.6984 62.3489 61.6984H63.1758V61.3497C63.1758 60.1595 62.3489 59.6808 61.406 59.6808C60.6375 59.6808 60.0717 59.8408 59.5637 60.1888C59.4767 60.2469 59.4042 60.2614 59.3461 60.2614C59.2449 60.2614 59.1724 60.2034 59.0998 60.0872L58.9983 59.9421C58.8822 59.7244 58.9257 59.5357 59.1143 59.405C59.7523 58.9841 60.6082 58.7812 61.406 58.7812C62.9002 58.7812 64.307 59.5212 64.307 61.3497V65.7475C64.307 65.9794 64.1764 66.11 63.9446 66.11H63.8431C63.6113 66.11 63.4659 65.9939 63.4079 65.7617L63.2196 64.9201ZM62.3489 62.5112C61.3918 62.5112 59.535 62.7432 59.535 64.1221C59.535 64.9346 60.1878 65.2833 60.7971 65.2833C62.3637 65.2833 63.1758 64.2092 63.1758 62.9612V62.5112H62.3489Z" fill="black"/>
<path d="M68.5731 65.7477C68.5731 65.9942 68.457 66.1103 68.2104 66.1103H67.8043C67.5577 66.1103 67.4419 65.9797 67.4419 65.7477V59.2166C67.4419 58.9844 67.5577 58.8537 67.8043 58.8537H67.9783C68.2102 58.8537 68.37 58.9699 68.4132 59.2024L68.5731 59.9426C69.0373 59.1588 69.8494 58.7817 70.8793 58.7817C72.0975 58.7817 72.8229 59.3188 73.142 60.1894C73.5914 59.2459 74.6358 58.7817 75.5785 58.7817C77.5075 58.7817 78.1458 59.9426 78.1458 61.6116V65.748C78.1458 65.9945 78.0297 66.1106 77.7834 66.1106H77.3772C77.1306 66.1106 77.0146 65.98 77.0146 65.748V61.597C77.0146 60.61 76.8115 59.6814 75.4047 59.6814C74.4038 59.6814 73.3596 60.4504 73.3596 62.1922V65.748C73.3596 65.9945 73.2435 66.1106 72.9969 66.1106H72.5908C72.3444 66.1106 72.2284 65.98 72.2284 65.748V61.597C72.2284 60.61 72.0253 59.6814 70.6185 59.6814C69.6175 59.6814 68.5734 60.4504 68.5734 62.1922L68.5731 65.7477Z" fill="black"/>
<path d="M82.4115 60.0872C82.9189 59.1876 83.659 58.7812 84.6742 58.7812C86.6177 58.7812 87.952 60.2614 87.952 62.4819C87.952 64.7027 86.6177 66.1829 84.6742 66.1829C83.659 66.1829 82.9189 65.7765 82.4115 64.8766V68.6501C82.4115 68.8969 82.2954 69.013 82.0488 69.013H81.6426C81.396 69.013 81.2803 68.8969 81.2803 68.6501V59.2166C81.2803 58.9699 81.4108 58.8538 81.6426 58.8538H81.7877C82.0198 58.8538 82.1794 58.9699 82.2229 59.2024L82.4115 60.0872ZM84.6161 59.6808C83.2961 59.6808 82.4115 60.7985 82.4115 62.4819C82.4115 64.1656 83.2961 65.2833 84.6161 65.2833C85.9362 65.2833 86.8208 64.1656 86.8208 62.4819C86.8208 60.7985 85.9362 59.6808 84.6161 59.6808Z" fill="black"/>
<path d="M90.3755 65.0798C90.448 64.9346 90.5351 64.862 90.6511 64.862C90.7092 64.862 90.7817 64.8766 90.8542 64.9201C91.2604 65.1233 91.7533 65.283 92.2468 65.283C93.0589 65.283 93.5811 64.8475 93.5811 64.1363C93.5811 63.5705 93.2765 63.2512 92.261 62.8593C91.3764 62.5254 90.39 62.0029 90.39 60.7259C90.39 59.5066 91.3039 58.7812 92.7688 58.7812C93.4067 58.7812 93.8709 58.9263 94.1901 59.0715C94.4077 59.1731 94.4657 59.3473 94.3642 59.565L94.2768 59.7247C94.1756 59.9424 94.0305 60.0004 93.7981 59.9131C93.508 59.7972 93.1021 59.6811 92.6959 59.6811C91.8691 59.6811 91.5209 60.1311 91.5209 60.6969C91.5209 61.4516 92.1444 61.7129 92.841 61.9742C93.7256 62.308 94.712 62.6999 94.712 64.0495C94.712 65.2685 93.8707 66.1829 92.1447 66.1829C91.5354 66.1829 90.9265 65.9797 90.4623 65.762C90.2447 65.6604 90.2012 65.4714 90.3024 65.2539L90.3755 65.0798Z" fill="black"/>
<path d="M102.778 60.0872C103.286 59.1876 104.026 58.7812 105.041 58.7812C106.984 58.7812 108.319 60.2614 108.319 62.4819C108.319 64.7027 106.984 66.1829 105.041 66.1829C104.026 66.1829 103.286 65.7765 102.778 64.8766V68.6501C102.778 68.8969 102.662 69.013 102.416 69.013H102.009C101.763 69.013 101.647 68.8969 101.647 68.6501V59.2166C101.647 58.9699 101.778 58.8538 102.009 58.8538H102.154C102.387 58.8538 102.546 58.9699 102.59 59.2024L102.778 60.0872ZM104.983 59.6808C103.663 59.6808 102.778 60.7985 102.778 62.4819C102.778 64.1656 103.663 65.2833 104.983 65.2833C106.303 65.2833 107.188 64.1656 107.188 62.4819C107.188 60.7985 106.303 59.6808 104.983 59.6808Z" fill="black"/>
<path d="M111.902 62.5835C111.975 64.4269 113.048 65.283 114.339 65.283C114.876 65.283 115.282 65.2249 115.645 65.1088C115.877 65.0217 116.051 65.0795 116.167 65.283L116.254 65.4281C116.385 65.6458 116.327 65.8052 116.109 65.8926C115.514 66.1246 114.905 66.1829 114.339 66.1829C112.453 66.1829 110.771 65.0072 110.771 62.4238C110.771 60.2759 111.917 58.7812 113.875 58.7812C115.949 58.7812 116.878 60.4066 116.979 62.2206C116.994 62.4529 116.878 62.5835 116.631 62.5835H111.902ZM111.917 61.8142H115.862C115.804 60.5372 114.92 59.6808 113.875 59.6808C112.831 59.6808 111.975 60.5372 111.917 61.8142Z" fill="black"/>
<path d="M120.186 66.1104C119.939 66.1104 119.823 65.9797 119.823 65.7478V59.2167C119.823 58.9844 119.954 58.8538 120.186 58.8538H120.36C120.606 58.8538 120.751 58.9699 120.795 59.2024L120.954 59.9427C121.433 59.1882 121.839 58.8541 122.912 58.7963C123.145 58.7818 123.275 58.8979 123.275 59.1447V59.3188C123.275 59.5508 123.159 59.6672 122.912 59.6962C121.303 59.8846 120.954 61.3216 120.954 62.8889V65.7484C120.954 65.9803 120.838 66.1109 120.592 66.1109H120.186V66.1104Z" fill="black"/>
<path d="M126.713 65.7477C126.713 65.9942 126.597 66.1103 126.35 66.1103H125.944C125.697 66.1103 125.582 65.9797 125.582 65.7477V59.2166C125.582 58.9844 125.697 58.8537 125.944 58.8537H126.118C126.35 58.8537 126.51 58.9699 126.553 59.2024L126.713 59.9426C127.177 59.1588 127.989 58.7817 129.019 58.7817C130.237 58.7817 130.962 59.3188 131.282 60.1894C131.731 59.2459 132.775 58.7817 133.718 58.7817C135.647 58.7817 136.285 59.9426 136.285 61.6116V65.748C136.285 65.9945 136.169 66.1106 135.923 66.1106H135.517C135.27 66.1106 135.154 65.98 135.154 65.748V61.597C135.154 60.61 134.951 59.6814 133.544 59.6814C132.543 59.6814 131.499 60.4504 131.499 62.1922V65.748C131.499 65.9945 131.383 66.1106 131.137 66.1106H130.73C130.484 66.1106 130.368 65.98 130.368 65.748V61.597C130.368 60.61 130.165 59.6814 128.758 59.6814C127.757 59.6814 126.713 60.4504 126.713 62.1922V65.7477H126.713Z" fill="black"/>
<path d="M143.859 64.9201C143.424 65.6894 142.612 66.1829 141.437 66.1829C140.146 66.1829 139.043 65.559 139.043 64.1221C139.043 61.9306 141.538 61.6984 142.989 61.6984H143.815V61.3497C143.815 60.1595 142.989 59.6808 142.046 59.6808C141.277 59.6808 140.711 59.8408 140.203 60.1888C140.116 60.2469 140.044 60.2614 139.986 60.2614C139.885 60.2614 139.812 60.2034 139.739 60.0872L139.638 59.9421C139.522 59.7244 139.565 59.5357 139.754 59.405C140.392 58.9841 141.248 58.7812 142.046 58.7812C143.54 58.7812 144.947 59.5212 144.947 61.3497V65.7475C144.947 65.9794 144.816 66.11 144.584 66.11H144.483C144.251 66.11 144.106 65.9939 144.048 65.7617L143.859 64.9201ZM142.989 62.5112C142.031 62.5112 140.175 62.7432 140.175 64.1221C140.175 64.9346 140.827 65.2833 141.437 65.2833C143.003 65.2833 143.815 64.2092 143.815 62.9612V62.5112H142.989Z" fill="black"/>
<path d="M149.212 65.7477C149.212 65.9942 149.096 66.1103 148.85 66.1103H148.443C148.197 66.1103 148.081 65.9797 148.081 65.7477V59.2166C148.081 58.9844 148.197 58.8537 148.443 58.8537H148.617C148.849 58.8537 149.009 58.9699 149.052 59.2024L149.212 59.9426C149.676 59.1588 150.561 58.7817 151.431 58.7817C153.36 58.7817 153.999 59.9426 153.999 61.6116V65.748C153.999 65.9945 153.883 66.1106 153.636 66.1106H153.23C152.984 66.1106 152.868 65.98 152.868 65.748V61.597C152.868 60.61 152.664 59.6814 151.258 59.6814C150.257 59.6814 149.213 60.4504 149.213 62.1922L149.212 65.7477Z" fill="black"/>
<path d="M157.887 62.5835C157.959 64.4269 159.033 65.283 160.324 65.283C160.86 65.283 161.266 65.2249 161.629 65.1088C161.861 65.0217 162.035 65.0795 162.151 65.283L162.238 65.4281C162.369 65.6458 162.311 65.8052 162.093 65.8926C161.499 66.1246 160.889 66.1829 160.324 66.1829C158.438 66.1829 156.755 65.0072 156.755 62.4238C156.755 60.2759 157.901 58.7812 159.859 58.7812C161.934 58.7812 162.862 60.4066 162.963 62.2206C162.978 62.4529 162.862 62.5835 162.615 62.5835H157.887ZM157.901 61.8142H161.847C161.789 60.5372 160.904 59.6808 159.86 59.6808C158.815 59.6808 157.959 60.5372 157.901 61.8142Z" fill="black"/>
<path d="M166.939 65.7477C166.939 65.9942 166.823 66.1103 166.576 66.1103H166.17C165.923 66.1103 165.808 65.9797 165.808 65.7477V59.2166C165.808 58.9844 165.923 58.8537 166.17 58.8537H166.344C166.576 58.8537 166.736 58.9699 166.779 59.2024L166.939 59.9426C167.403 59.1588 168.288 58.7817 169.158 58.7817C171.087 58.7817 171.725 59.9426 171.725 61.6116V65.748C171.725 65.9945 171.609 66.1106 171.363 66.1106H170.956C170.71 66.1106 170.594 65.98 170.594 65.748V61.597C170.594 60.61 170.391 59.6814 168.984 59.6814C167.983 59.6814 166.939 60.4504 166.939 62.1922V65.7477H166.939Z" fill="black"/>
<path d="M176.019 59.7534V63.8608C176.019 64.7898 176.208 65.2833 176.976 65.2833C177.107 65.2833 177.238 65.2685 177.368 65.2397C177.614 65.1817 177.759 65.2688 177.832 65.4865L177.876 65.6316C177.948 65.8636 177.876 66.038 177.644 66.0961C177.383 66.1542 177.136 66.1832 176.875 66.1832C175.439 66.1832 174.888 65.3707 174.888 63.8611V59.7534H174.496C174.264 59.7534 174.134 59.6228 174.134 59.3905V59.2167C174.134 58.9699 174.264 58.8538 174.496 58.8538H174.888L175.149 57.04C175.178 56.8078 175.323 56.6771 175.555 56.6771H175.657C175.888 56.6771 176.019 56.7932 176.019 57.04V58.8538H177.194C177.441 58.8538 177.556 58.9844 177.556 59.2167V59.3905C177.556 59.6373 177.426 59.7534 177.194 59.7534H176.019Z" fill="black"/>
</g>
<path fill-rule="evenodd" clip-rule="evenodd" d="M144.854 14.4902C145.085 13.7986 145.575 13.5592 146.289 13.5604C154.184 13.5726 167.57 13.568 175.465 13.568C175.578 13.568 175.692 13.568 175.876 13.568C175.761 13.4482 175.688 13.3691 175.611 13.2928C174.368 12.0531 173.125 10.8131 171.879 9.57504C171.541 9.23949 171.43 8.83849 171.563 8.38881C171.687 7.97158 171.981 7.70462 172.408 7.60672C172.849 7.5054 173.214 7.65425 173.53 7.96817C174.922 9.35704 176.318 10.7433 177.712 12.1305C178.228 12.6451 178.758 13.1483 179.256 13.6805C179.48 13.9195 179.64 14.2181 179.829 14.4896C179.829 14.6436 179.829 14.797 179.829 14.9507C179.64 15.2225 179.486 15.529 179.256 15.7601C177.361 17.6649 175.454 19.5567 173.549 21.4505C173.04 21.9562 172.381 22.0032 171.901 21.576C171.389 21.12 171.374 20.3746 171.881 19.8669C173.122 18.624 174.367 17.3866 175.613 16.1491C175.687 16.0763 175.78 16.0236 175.865 15.9619C175.85 15.9323 175.835 15.9024 175.821 15.8722C175.712 15.8722 175.602 15.8722 175.494 15.8722C167.59 15.8722 154.194 15.8679 146.29 15.8802C145.576 15.881 145.086 15.6417 144.854 14.9504C144.854 14.7975 144.854 14.6441 144.854 14.4902Z" fill="white"/>
<path fill-rule="evenodd" clip-rule="evenodd" d="M145.024 33.8962C145.256 33.2046 145.747 32.9653 146.46 32.9661C154.355 32.9786 167.741 32.9738 175.636 32.9738C175.749 32.9738 175.864 32.9738 176.047 32.9738C175.932 32.854 175.86 32.7749 175.782 32.6986C174.539 31.4591 173.296 30.2188 172.05 28.9811C171.712 28.6455 171.602 28.2442 171.735 27.7949C171.858 27.3773 172.152 27.1107 172.579 27.0125C173.021 26.9112 173.386 27.06 173.701 27.3739C175.094 28.7628 176.489 30.1494 177.883 31.5363C178.4 32.0508 178.929 32.554 179.427 33.0862C179.651 33.3253 179.811 33.6238 180 33.8956C180 34.0493 180 34.203 180 34.3564C179.811 34.6282 179.657 34.9344 179.427 35.1658C177.533 37.0707 175.625 38.9625 173.72 40.8562C173.211 41.362 172.552 41.4089 172.073 40.9817C171.561 40.5258 171.545 39.7804 172.052 39.2727C173.293 38.0298 174.538 36.7921 175.784 35.5549C175.858 35.482 175.951 35.4297 176.036 35.3676C176.022 35.338 176.006 35.3084 175.992 35.2782C175.883 35.2782 175.773 35.2782 175.666 35.2782C167.761 35.2782 154.365 35.2737 146.461 35.2865C145.747 35.2871 145.258 35.0474 145.025 34.3564C145.024 34.2036 145.024 34.0499 145.024 33.8962Z" fill="white"/>
<path fill-rule="evenodd" clip-rule="evenodd" d="M86.4985 24.6224C86.7306 23.9308 87.2207 23.6917 87.9341 23.6926C95.8292 23.7048 100.977 23.7002 108.872 23.7002C108.985 23.7002 109.099 23.7002 109.283 23.7002C109.168 23.5804 109.095 23.5013 109.018 23.425C107.775 22.1853 106.532 20.9453 105.286 19.7072C104.948 19.3717 104.837 18.9707 104.97 18.5213C105.094 18.1038 105.388 17.8371 105.815 17.7389C106.256 17.6376 106.621 17.7864 106.937 18.1004C108.329 19.4892 109.725 20.8755 111.119 22.2627C111.635 22.7773 112.165 23.2805 112.663 23.8129C112.887 24.0517 113.047 24.3503 113.236 24.6221C113.236 24.7761 113.236 24.9295 113.236 25.0831C113.047 25.3549 112.893 25.6615 112.663 25.8926C110.768 27.7974 108.861 29.6892 106.956 31.5829C106.447 32.0887 105.788 32.1356 105.308 31.7084C104.797 31.2525 104.781 30.5071 105.288 29.9994C106.529 28.7565 107.774 27.5191 109.02 26.2816C109.094 26.2088 109.187 26.1561 109.272 26.0943C109.257 26.0647 109.242 26.0351 109.228 26.0047C109.119 26.0047 109.009 26.0047 108.901 26.0047C100.997 26.0047 95.8391 26.0004 87.9349 26.0127C87.2216 26.0135 86.7318 25.7742 86.4988 25.0829C86.4985 24.9297 86.4985 24.7763 86.4985 24.6224Z" fill="white"/>
</svg>
