<svg width="231" height="88" viewBox="0 0 231 88" fill="none" xmlns="http://www.w3.org/2000/svg">
<path d="M199.708 52.2486C199.708 57.1176 195.764 61.0645 190.897 61.0645H140.384C135.518 61.0645 131.574 57.1176 131.574 52.2486V10.8155C131.574 5.94681 135.518 2 140.384 2H190.897C195.764 2 199.708 5.94681 199.708 10.8155V52.2486Z" stroke="white" stroke-width="4" stroke-miterlimit="10"/>
<path d="M165.935 35.9402C165.935 37.6444 164.615 39.0257 162.987 39.0257H149.793C148.165 39.0257 146.845 37.6444 146.845 35.9402V26.243C146.845 24.5388 148.165 23.1574 149.793 23.1574H162.987C164.615 23.1574 165.935 24.5388 165.935 26.243V35.9402Z" fill="white"/>
<path d="M192.219 23.5979C192.219 25.3021 190.899 26.6831 189.271 26.6831H176.077C174.449 26.6831 173.13 25.3017 173.13 23.5979V13.9007C173.13 12.1965 174.449 10.8151 176.077 10.8151H189.271C190.899 10.8151 192.219 12.1965 192.219 13.9007V23.5979Z" fill="white"/>
<path d="M192.513 47.6936C192.513 49.3979 191.194 50.7792 189.565 50.7792H176.371C174.743 50.7792 173.424 49.3979 173.424 47.6936V37.9965C173.424 36.2922 174.743 34.9109 176.371 34.9109H189.565C191.194 34.9109 192.513 36.2922 192.513 37.9965V47.6936Z" fill="white"/>
<path d="M0 14.7952C0 13.6034 0.641351 12.9617 1.8328 12.9617H4.44383C5.63527 12.9617 6.27663 13.6034 6.27663 14.7952V33.9102C6.27663 38.0816 9.25414 40.2818 12.4609 40.2818C15.6677 40.2818 18.6455 38.0816 18.6455 33.9102V14.7952C18.6455 13.6034 19.2869 12.9617 20.4783 12.9617H23.0894C24.2804 12.9617 24.9222 13.6034 24.9222 14.7952V33.9102C24.9222 40.6942 20.7072 45.2783 12.4609 45.2783C4.21496 45.2783 0 40.6942 0 33.9102V14.7952Z" fill="black"/>
<path d="M50.9898 12.9617C52.1812 12.9617 52.8226 13.6034 52.8226 14.7952V16.1247C52.8226 17.3165 52.1812 17.9586 50.9898 17.9586H44.347V43.2158C44.347 44.4076 43.7057 45.0497 42.5146 45.0497H39.9032C38.7121 45.0497 38.0708 44.4076 38.0708 43.2158V17.9582H31.428C30.2369 17.9582 29.5952 17.3165 29.5952 16.1243V14.7948C29.5952 13.603 30.2369 12.9613 31.428 12.9613L50.9898 12.9617Z" fill="black"/>
<path d="M65.1008 28.9593L55.6634 14.4741C55.0217 13.4657 55.2965 12.9613 56.488 12.9613H59.5571C60.7486 12.9613 61.756 13.5114 62.3974 14.5198L69.0865 24.7879L75.7749 14.5198C76.4162 13.5114 77.4241 12.9613 78.6151 12.9613H81.6843C82.8757 12.9613 83.1506 13.4653 82.5092 14.4741L73.0718 28.9593L82.7381 43.5361C83.4254 44.5449 83.1046 45.0493 81.9135 45.0493H78.844C77.6529 45.0493 76.6455 44.5449 75.9581 43.5361L69.0865 33.5434L62.2145 43.5361C61.5275 44.5449 60.5193 45.0493 59.3286 45.0493H56.2591C55.068 45.0493 54.7472 44.5449 55.4345 43.5361L65.1008 28.9593Z" fill="black"/>
<path d="M99.4608 12.7323C108.302 12.7323 114.121 19.1956 114.121 29.0053C114.121 38.815 108.302 45.2783 99.4608 45.2783C90.6188 45.2783 84.801 38.815 84.801 29.0053C84.801 19.1956 90.6188 12.7323 99.4608 12.7323ZM99.4608 40.2818C104.454 40.2818 107.844 35.8354 107.844 29.0053C107.844 22.1753 104.454 17.7288 99.4608 17.7288C94.4673 17.7288 91.0773 22.1753 91.0773 29.0053C91.0773 35.8354 94.4673 40.2818 99.4608 40.2818Z" fill="black"/>
<g opacity="0.9">
<path d="M5.99761 83.8095C5.99761 84.1258 5.84868 84.2749 5.5322 84.2749H5.01094C4.69446 84.2749 4.5459 84.1072 4.5459 83.8095V75.428C4.5459 75.1299 4.69446 74.9623 5.01094 74.9623H5.23434C5.53183 74.9623 5.73698 75.1113 5.79246 75.4097L5.99761 76.3597C6.59333 75.3538 7.63548 74.8699 8.95724 74.8699C10.5206 74.8699 11.4515 75.5591 11.861 76.6764C12.4378 75.4656 13.7781 74.8699 14.9878 74.8699C17.4634 74.8699 18.2826 76.3597 18.2826 78.5015V83.8099C18.2826 84.1262 18.1336 84.2752 17.8175 84.2752H17.2963C16.9798 84.2752 16.8309 84.1076 16.8309 83.8099V78.4828C16.8309 77.2162 16.5702 76.0244 14.7648 76.0244C13.4803 76.0244 12.1403 77.0113 12.1403 79.2466V83.8099C12.1403 84.1262 11.9913 84.2752 11.6749 84.2752H11.1536C10.8375 84.2752 10.6886 84.1076 10.6886 83.8099V78.4828C10.6886 77.2162 10.4279 76.0244 8.62251 76.0244C7.33798 76.0244 5.99797 77.0113 5.99797 79.2466V83.8095H5.99761Z" fill="black"/>
<path d="M28.0015 82.7474C27.4431 83.7347 26.4005 84.368 24.8926 84.368C23.2361 84.368 21.8213 83.5674 21.8213 81.7233C21.8213 78.9109 25.0229 78.6129 26.8846 78.6129H27.9453V78.1655C27.9453 76.638 26.8846 76.0237 25.6741 76.0237C24.6878 76.0237 23.9618 76.2289 23.3102 76.6756C23.1982 76.7501 23.1051 76.7688 23.0306 76.7688C22.9007 76.7688 22.8076 76.6943 22.7141 76.5452L22.5842 76.359C22.4353 76.0796 22.4911 75.8374 22.7331 75.6698C23.5519 75.1296 24.6502 74.8691 25.6741 74.8691C27.5916 74.8691 29.397 75.8188 29.397 78.1655V83.8092C29.397 84.1069 29.2295 84.2745 28.932 84.2745H28.8017C28.5042 84.2745 28.3177 84.1255 28.2432 83.8274L28.0015 82.7474ZM26.8849 79.656C25.6563 79.656 23.2734 79.9537 23.2734 81.7233C23.2734 82.766 24.1111 83.2135 24.893 83.2135C26.9035 83.2135 27.9457 81.835 27.9457 80.2335V79.656H26.8849Z" fill="black"/>
<path d="M33.8847 84.2749C33.5872 84.2749 33.4197 84.1259 33.4197 83.8096V71.7029C33.4197 71.3862 33.5872 71.2375 33.8847 71.2375H34.3874C34.6852 71.2375 34.8528 71.3862 34.8528 71.7029V78.6874L38.0172 75.2976C38.222 75.0744 38.5008 74.9623 38.7991 74.9623H39.7113C40.0088 74.9623 40.065 75.0744 39.8598 75.2976L36.1928 79.228L40.1205 83.9217C40.3256 84.1638 40.2694 84.2756 39.9529 84.2756H39.1342C38.8177 84.2756 38.5757 84.1638 38.3709 83.9217L34.8528 79.7123V83.8103C34.8528 84.1266 34.6852 84.2756 34.3874 84.2756H33.8847V84.2749Z" fill="black"/>
<path d="M43.6952 79.7488C43.7883 82.1145 45.1656 83.2131 46.8224 83.2131C47.5112 83.2131 48.0321 83.1386 48.4979 82.9896C48.7954 82.8778 49.0191 82.952 49.1677 83.2131L49.2798 83.3994C49.4473 83.6788 49.3729 83.8833 49.0932 83.9955C48.3303 84.2931 47.5485 84.368 46.8224 84.368C44.4023 84.368 42.2432 82.8592 42.2432 79.5439C42.2432 76.7874 43.7135 74.8691 46.2267 74.8691C48.8885 74.8691 50.0799 76.955 50.2102 79.2831C50.2288 79.5811 50.0799 79.7488 49.7631 79.7488H43.6952ZM43.7139 78.7615H48.7771C48.7027 77.1227 47.5674 76.0237 46.2271 76.0237C44.8867 76.0237 43.7883 77.1227 43.7139 78.7615Z" fill="black"/>
<path d="M58.8494 82.9523C58.9425 82.766 59.0542 82.6729 59.2031 82.6729C59.2776 82.6729 59.3707 82.6915 59.4638 82.7474C59.985 83.0082 60.6176 83.2131 61.2509 83.2131C62.2931 83.2131 62.9633 82.6543 62.9633 81.7415C62.9633 81.0154 62.5723 80.6056 61.2692 80.1027C60.1339 79.6743 58.868 79.0037 58.868 77.3648C58.868 75.8001 60.0409 74.8691 61.9207 74.8691C62.7395 74.8691 63.3352 75.0554 63.7448 75.2417C64.024 75.3721 64.0985 75.5956 63.9682 75.875L63.8561 76.0799C63.7262 76.3593 63.54 76.4338 63.2418 76.3217C62.8694 76.1731 62.3486 76.024 61.8273 76.024C60.7662 76.024 60.3194 76.6015 60.3194 77.3276C60.3194 78.2962 61.1195 78.6315 62.0135 78.9668C63.1487 79.3952 64.4146 79.8982 64.4146 81.6301C64.4146 83.1945 63.3349 84.368 61.1199 84.368C60.338 84.368 59.5565 84.1072 58.9607 83.8278C58.6815 83.6974 58.6257 83.4549 58.7556 83.1758L58.8494 82.9523Z" fill="black"/>
<path d="M69.4782 76.1169V81.388C69.4782 82.5802 69.7202 83.2135 70.7069 83.2135C70.8745 83.2135 71.042 83.1945 71.2095 83.1576C71.5257 83.0831 71.7118 83.1949 71.8053 83.4743L71.8608 83.6606C71.9538 83.9582 71.8608 84.1821 71.5633 84.2566C71.2282 84.3312 70.9117 84.3684 70.5766 84.3684C68.7336 84.3684 68.0265 83.3256 68.0265 81.3884V76.1169H67.5239C67.2264 76.1169 67.0588 75.9492 67.0588 75.6512V75.428C67.0588 75.1113 67.2264 74.9623 67.5239 74.9623H68.0265L68.3616 72.6346C68.3988 72.3366 68.585 72.1689 68.8829 72.1689H69.0132C69.3107 72.1689 69.4782 72.318 69.4782 72.6346V74.9623H70.9862C71.3026 74.9623 71.4512 75.13 71.4512 75.428V75.6512C71.4512 75.9678 71.2836 76.1169 70.9862 76.1169H69.4782Z" fill="black"/>
<path d="M81.1317 82.7474C80.5732 83.7347 79.5307 84.368 78.0227 84.368C76.3663 84.368 74.9514 83.5674 74.9514 81.7233C74.9514 78.9109 78.1531 78.6129 80.0143 78.6129H81.0755V78.1655C81.0755 76.638 80.0143 76.0237 78.8043 76.0237C77.818 76.0237 77.0919 76.2289 76.44 76.6756C76.3283 76.7501 76.2352 76.7688 76.1607 76.7688C76.0308 76.7688 75.9377 76.6943 75.8446 76.5452L75.7143 76.359C75.5654 76.0796 75.6212 75.8374 75.8633 75.6698C76.682 75.1296 77.7804 74.8691 78.8043 74.8691C80.7218 74.8691 82.5272 75.8188 82.5272 78.1655V83.8092C82.5272 84.1069 82.3596 84.2745 82.0621 84.2745H81.9318C81.6343 84.2745 81.4478 84.1255 81.3733 83.8274L81.1317 82.7474ZM80.0143 79.656C78.786 79.656 76.4031 79.9537 76.4031 81.7233C76.4031 82.766 77.2409 83.2135 78.0227 83.2135C80.0333 83.2135 81.0755 81.835 81.0755 80.2335V79.656H80.0143Z" fill="black"/>
<path d="M88.0015 83.8095C88.0015 84.1258 87.8526 84.2749 87.5361 84.2749H87.0148C86.6984 84.2749 86.5498 84.1072 86.5498 83.8095V75.428C86.5498 75.1299 86.6984 74.9623 87.0148 74.9623H87.2382C87.5357 74.9623 87.7409 75.1113 87.7964 75.4097L88.0015 76.3597C88.5972 75.3538 89.6394 74.8699 90.9611 74.8699C92.5245 74.8699 93.4554 75.5591 93.8649 76.6764C94.4417 75.4656 95.782 74.8699 96.9917 74.8699C99.4673 74.8699 100.286 76.3597 100.286 78.5015V83.8099C100.286 84.1262 100.138 84.2752 99.8214 84.2752H99.3002C98.9837 84.2752 98.8348 84.1076 98.8348 83.8099V78.4828C98.8348 77.2162 98.5741 76.0244 96.7687 76.0244C95.4842 76.0244 94.1442 77.0113 94.1442 79.2466V83.8099C94.1442 84.1262 93.9952 84.2752 93.6788 84.2752H93.1575C92.8414 84.2752 92.6925 84.1076 92.6925 83.8099V78.4828C92.6925 77.2162 92.4318 76.0244 90.6264 76.0244C89.3419 76.0244 88.0019 77.0113 88.0019 79.2466L88.0015 83.8095Z" fill="black"/>
<path d="M105.761 76.5452C106.412 75.3907 107.362 74.8691 108.665 74.8691C111.159 74.8691 112.872 76.7688 112.872 79.6184C112.872 82.4684 111.159 84.368 108.665 84.368C107.362 84.368 106.412 83.8464 105.761 82.6915V87.5343C105.761 87.851 105.612 88 105.296 88H104.775C104.458 88 104.31 87.851 104.31 87.5343V75.428C104.31 75.1113 104.477 74.9623 104.775 74.9623H104.961C105.259 74.9623 105.463 75.1113 105.519 75.4097L105.761 76.5452ZM108.591 76.0237C106.897 76.0237 105.761 77.458 105.761 79.6184C105.761 81.7792 106.897 83.2135 108.591 83.2135C110.285 83.2135 111.42 81.7792 111.42 79.6184C111.42 77.458 110.285 76.0237 108.591 76.0237Z" fill="black"/>
<path d="M115.982 82.9523C116.075 82.766 116.187 82.6729 116.335 82.6729C116.41 82.6729 116.503 82.6915 116.596 82.7474C117.117 83.0082 117.75 83.2131 118.383 83.2131C119.425 83.2131 120.096 82.6543 120.096 81.7415C120.096 81.0154 119.705 80.6056 118.401 80.1027C117.266 79.6743 116 79.0037 116 77.3648C116 75.8001 117.173 74.8691 119.053 74.8691C119.872 74.8691 120.468 75.0554 120.877 75.2417C121.156 75.3721 121.231 75.5956 121.101 75.875L120.988 76.0799C120.858 76.3593 120.672 76.4338 120.374 76.3217C120.002 76.1731 119.481 76.024 118.96 76.024C117.898 76.024 117.452 76.6015 117.452 77.3276C117.452 78.2962 118.252 78.6315 119.146 78.9668C120.281 79.3952 121.547 79.8982 121.547 81.6301C121.547 83.1945 120.467 84.368 118.252 84.368C117.47 84.368 116.689 84.1072 116.093 83.8278C115.814 83.6974 115.758 83.4549 115.888 83.1758L115.982 82.9523Z" fill="black"/>
<path d="M131.899 76.5452C132.55 75.3907 133.5 74.8691 134.803 74.8691C137.297 74.8691 139.009 76.7688 139.009 79.6184C139.009 82.4684 137.297 84.368 134.803 84.368C133.5 84.368 132.55 83.8464 131.899 82.6915V87.5343C131.899 87.851 131.75 88 131.433 88H130.912C130.596 88 130.447 87.851 130.447 87.5343V75.428C130.447 75.1113 130.615 74.9623 130.912 74.9623H131.098C131.396 74.9623 131.601 75.1113 131.657 75.4097L131.899 76.5452ZM134.728 76.0237C133.034 76.0237 131.899 77.458 131.899 79.6184C131.899 81.7792 133.034 83.2135 134.728 83.2135C136.422 83.2135 137.557 81.7792 137.557 79.6184C137.557 77.458 136.422 76.0237 134.728 76.0237Z" fill="black"/>
<path d="M143.608 79.7488C143.701 82.1145 145.078 83.2131 146.735 83.2131C147.424 83.2131 147.945 83.1386 148.41 82.9896C148.708 82.8778 148.932 82.952 149.08 83.2131L149.192 83.3994C149.36 83.6788 149.285 83.8833 149.006 83.9955C148.243 84.2931 147.461 84.368 146.735 84.368C144.315 84.368 142.156 82.8592 142.156 79.5439C142.156 76.7874 143.626 74.8691 146.139 74.8691C148.801 74.8691 149.993 76.955 150.123 79.2831C150.141 79.5811 149.993 79.7488 149.676 79.7488H143.608ZM143.626 78.7615H148.69C148.615 77.1227 147.48 76.0237 146.14 76.0237C144.799 76.0237 143.701 77.1227 143.626 78.7615Z" fill="black"/>
<path d="M154.238 84.2749C153.921 84.2749 153.773 84.1073 153.773 83.8096V75.428C153.773 75.13 153.94 74.9624 154.238 74.9624H154.461C154.778 74.9624 154.964 75.1114 155.019 75.4098L155.224 76.3598C155.839 75.3915 156.36 74.9627 157.737 74.8886C158.035 74.8699 158.203 75.019 158.203 75.3356V75.5592C158.203 75.8568 158.054 76.0062 157.737 76.0435C155.671 76.2853 155.224 78.1294 155.224 80.1408V83.8104C155.224 84.108 155.075 84.2757 154.759 84.2757H154.238V84.2749Z" fill="black"/>
<path d="M162.615 83.8095C162.615 84.1258 162.466 84.2749 162.149 84.2749H161.628C161.312 84.2749 161.163 84.1072 161.163 83.8095V75.428C161.163 75.1299 161.312 74.9623 161.628 74.9623H161.852C162.149 74.9623 162.354 75.1113 162.41 75.4097L162.615 76.3597C163.211 75.3538 164.253 74.8699 165.574 74.8699C167.138 74.8699 168.069 75.5591 168.478 76.6764C169.055 75.4656 170.395 74.8699 171.605 74.8699C174.081 74.8699 174.9 76.3597 174.9 78.5015V83.8099C174.9 84.1262 174.751 84.2752 174.435 84.2752H173.913C173.597 84.2752 173.448 84.1076 173.448 83.8099V78.4828C173.448 77.2162 173.187 76.0244 171.382 76.0244C170.097 76.0244 168.757 77.0113 168.757 79.2466V83.8099C168.757 84.1262 168.609 84.2752 168.292 84.2752H167.771C167.455 84.2752 167.306 84.1076 167.306 83.8099V78.4828C167.306 77.2162 167.045 76.0244 165.24 76.0244C163.955 76.0244 162.615 77.0113 162.615 79.2466V83.8095H162.615Z" fill="black"/>
<path d="M184.619 82.7474C184.06 83.7347 183.018 84.368 181.51 84.368C179.854 84.368 178.439 83.5674 178.439 81.7233C178.439 78.9109 181.64 78.6129 183.502 78.6129H184.563V78.1655C184.563 76.638 183.502 76.0237 182.292 76.0237C181.305 76.0237 180.579 76.2289 179.927 76.6756C179.816 76.7501 179.723 76.7688 179.648 76.7688C179.518 76.7688 179.425 76.6943 179.332 76.5452L179.202 76.359C179.053 76.0796 179.109 75.8374 179.351 75.6698C180.169 75.1296 181.268 74.8691 182.292 74.8691C184.209 74.8691 186.014 75.8188 186.014 78.1655V83.8092C186.014 84.1069 185.847 84.2745 185.549 84.2745H185.419C185.122 84.2745 184.935 84.1255 184.861 83.8274L184.619 82.7474ZM183.502 79.656C182.273 79.656 179.89 79.9537 179.89 81.7233C179.89 82.766 180.728 83.2135 181.51 83.2135C183.521 83.2135 184.563 81.835 184.563 80.2335V79.656H183.502Z" fill="black"/>
<path d="M191.489 83.8095C191.489 84.1258 191.34 84.2749 191.023 84.2749H190.502C190.185 84.2749 190.037 84.1072 190.037 83.8095V75.428C190.037 75.1299 190.185 74.9623 190.502 74.9623H190.725C191.023 74.9623 191.228 75.1113 191.283 75.4097L191.489 76.3597C192.084 75.3538 193.22 74.8699 194.337 74.8699C196.812 74.8699 197.631 76.3597 197.631 78.5015V83.8099C197.631 84.1262 197.482 84.2752 197.166 84.2752H196.645C196.328 84.2752 196.18 84.1076 196.18 83.8099V78.4828C196.18 77.2162 195.919 76.0244 194.113 76.0244C192.829 76.0244 191.489 77.0113 191.489 79.2466L191.489 83.8095Z" fill="black"/>
<path d="M202.621 79.7488C202.714 82.1145 204.092 83.2131 205.748 83.2131C206.437 83.2131 206.958 83.1386 207.424 82.9896C207.721 82.8778 207.945 82.952 208.094 83.2131L208.206 83.3994C208.373 83.6788 208.299 83.8833 208.02 83.9955C207.256 84.2931 206.474 84.368 205.748 84.368C203.328 84.368 201.169 82.8592 201.169 79.5439C201.169 76.7874 202.639 74.8691 205.153 74.8691C207.814 74.8691 209.006 76.955 209.136 79.2831C209.155 79.5811 209.006 79.7488 208.689 79.7488H202.621ZM202.64 78.7615H207.703C207.629 77.1227 206.493 76.0237 205.153 76.0237C203.813 76.0237 202.714 77.1227 202.64 78.7615Z" fill="black"/>
<path d="M214.238 83.8095C214.238 84.1258 214.089 84.2749 213.772 84.2749H213.251C212.934 84.2749 212.786 84.1072 212.786 83.8095V75.428C212.786 75.1299 212.934 74.9623 213.251 74.9623H213.474C213.772 74.9623 213.977 75.1113 214.032 75.4097L214.238 76.3597C214.833 75.3538 215.969 74.8699 217.086 74.8699C219.561 74.8699 220.38 76.3597 220.38 78.5015V83.8099C220.38 84.1262 220.231 84.2752 219.915 84.2752H219.394C219.077 84.2752 218.929 84.1076 218.929 83.8099V78.4828C218.929 77.2162 218.668 76.0244 216.863 76.0244C215.578 76.0244 214.238 77.0113 214.238 79.2466V83.8095H214.238Z" fill="black"/>
<path d="M225.891 76.1169V81.388C225.891 82.5802 226.133 83.2135 227.12 83.2135C227.287 83.2135 227.455 83.1945 227.622 83.1576C227.939 83.0831 228.125 83.1949 228.218 83.4743L228.274 83.6606C228.367 83.9582 228.274 84.1821 227.976 84.2566C227.641 84.3312 227.325 84.3684 226.989 84.3684C225.146 84.3684 224.439 83.3256 224.439 81.3884V76.1169H223.937C223.639 76.1169 223.472 75.9492 223.472 75.6512V75.428C223.472 75.1113 223.639 74.9623 223.937 74.9623H224.439L224.774 72.6346C224.812 72.3366 224.998 72.1689 225.296 72.1689H225.426C225.724 72.1689 225.891 72.318 225.891 72.6346V74.9623H227.399C227.715 74.9623 227.864 75.13 227.864 75.428V75.6512C227.864 75.9678 227.697 76.1169 227.399 76.1169H225.891Z" fill="black"/>
</g>
<path fill-rule="evenodd" clip-rule="evenodd" d="M185.895 18.0291C186.193 17.1415 186.821 16.8343 187.737 16.8358C197.869 16.8515 215.048 16.8457 225.18 16.8457C225.325 16.8457 225.472 16.8457 225.707 16.8457C225.559 16.6919 225.466 16.5904 225.367 16.4925C223.772 14.9015 222.176 13.3101 220.578 11.7213C220.144 11.2907 220.002 10.7761 220.173 10.199C220.331 9.66354 220.709 9.32094 221.257 9.1953C221.823 9.06527 222.291 9.2563 222.696 9.65916C224.483 11.4415 226.274 13.2206 228.064 15.0008C228.726 15.6612 229.406 16.3069 230.045 16.9899C230.332 17.2967 230.537 17.6799 230.78 18.0283C230.78 18.2259 230.78 18.4228 230.78 18.62C230.537 18.9688 230.34 19.3622 230.045 19.6588C227.613 22.1033 225.166 24.5311 222.721 26.9614C222.068 27.6105 221.222 27.6707 220.606 27.1225C219.949 26.5374 219.93 25.5808 220.58 24.9292C222.172 23.3342 223.771 21.7461 225.37 20.1581C225.464 20.0646 225.584 19.997 225.693 19.9177C225.674 19.8797 225.655 19.8414 225.637 19.8027C225.497 19.8027 225.356 19.8027 225.217 19.8027C215.073 19.8027 197.882 19.7972 187.738 19.8129C186.823 19.814 186.194 19.5068 185.895 18.6197C185.895 18.4235 185.895 18.2267 185.895 18.0291Z" fill="white"/>
<path fill-rule="evenodd" clip-rule="evenodd" d="M186.115 42.9334C186.412 42.0459 187.042 41.7387 187.957 41.7398C198.089 41.7559 215.269 41.7497 225.4 41.7497C225.545 41.7497 225.692 41.7497 225.927 41.7497C225.779 41.5959 225.687 41.4944 225.588 41.3965C223.992 39.8058 222.397 38.2141 220.798 36.6257C220.365 36.1951 220.222 35.6801 220.393 35.1033C220.552 34.5675 220.929 34.2253 221.477 34.0993C222.043 33.9693 222.512 34.1603 222.917 34.5631C224.704 36.3455 226.495 38.125 228.284 39.9048C228.946 40.5652 229.626 41.2109 230.265 41.8939C230.552 42.2007 230.757 42.5839 231 42.9327C231 43.1299 231 43.3271 231 43.524C230.757 43.8728 230.56 44.2658 230.266 44.5628C227.834 47.0073 225.386 49.4351 222.941 51.8654C222.288 52.5145 221.442 52.5747 220.827 52.0265C220.17 51.4414 220.15 50.4848 220.8 49.8332C222.393 48.2382 223.991 46.6498 225.59 45.062C225.684 44.9685 225.805 44.9013 225.913 44.8217C225.895 44.7837 225.875 44.7457 225.857 44.707C225.717 44.707 225.576 44.707 225.438 44.707C215.294 44.707 198.102 44.7012 187.958 44.7176C187.043 44.7184 186.414 44.4108 186.115 43.524C186.115 43.3279 186.115 43.1306 186.115 42.9334Z" fill="white"/>
<path fill-rule="evenodd" clip-rule="evenodd" d="M111.006 31.032C111.304 30.1444 111.933 29.8376 112.849 29.8387C122.981 29.8544 129.587 29.8486 139.719 29.8486C139.864 29.8486 140.011 29.8486 140.246 29.8486C140.099 29.6948 140.005 29.5933 139.907 29.4954C138.311 27.9044 136.716 26.3131 135.117 24.7242C134.683 24.2936 134.541 23.779 134.712 23.2023C134.87 22.6665 135.248 22.3242 135.796 22.1982C136.362 22.0682 136.83 22.2592 137.235 22.6621C139.022 24.4445 140.813 26.2236 142.603 28.0038C143.265 28.6641 143.945 29.3099 144.584 29.9932C144.871 30.2997 145.076 30.6828 145.319 31.0316C145.319 31.2292 145.319 31.4261 145.319 31.6233C145.076 31.9721 144.879 32.3655 144.584 32.6621C142.153 35.1066 139.705 37.5344 137.26 39.9647C136.607 40.6138 135.761 40.674 135.146 40.1258C134.489 39.5407 134.469 38.5841 135.119 37.9325C136.711 36.3375 138.31 34.7494 139.909 33.1613C140.003 33.0678 140.124 33.0003 140.232 32.921C140.214 32.883 140.194 32.845 140.176 32.806C140.036 32.806 139.895 32.806 139.757 32.806C129.612 32.806 122.993 32.8005 112.85 32.8162C111.934 32.8173 111.306 32.5101 111.007 31.6229C111.006 31.4264 111.006 31.2296 111.006 31.032Z" fill="white"/>
</svg>
