<svg width="119" height="16" viewBox="0 0 119 16" fill="none" xmlns="http://www.w3.org/2000/svg">
<path d="M113.909 8.81797L117.727 5L118.817 6.0914L113.909 11L109 6.0914L110.091 5.00077L113.909 8.81797Z" fill="#808080"/>
<path d="M12.4444 6.22222C12.2087 6.22222 11.9826 6.12857 11.8159 5.96187C11.6492 5.79517 11.5556 5.56908 11.5556 5.33333C11.5556 5.09759 11.6492 4.87149 11.8159 4.70479C11.9826 4.53809 12.2087 4.44444 12.4444 4.44444C12.6802 4.44444 12.9063 4.53809 13.073 4.70479C13.2397 4.87149 13.3333 5.09759 13.3333 5.33333C13.3333 5.56908 13.2397 5.79517 13.073 5.96187C12.9063 6.12857 12.6802 6.22222 12.4444 6.22222ZM7.11111 6.22222H1.77778V1.77778H7.11111M14.0178 3.76L14.0267 3.75111L10.72 0.444444L9.77778 1.38667L11.6533 3.26222C10.8178 3.55556 10.2222 4.38222 10.2222 5.33333C10.2222 5.62516 10.2797 5.91413 10.3914 6.18374C10.5031 6.45335 10.6667 6.69833 10.8731 6.90468C11.2898 7.32143 11.8551 7.55556 12.4444 7.55556C12.7644 7.55556 13.0578 7.48444 13.3333 7.36889V13.7778C13.3333 14.0135 13.2397 14.2396 13.073 14.4063C12.9063 14.573 12.6802 14.6667 12.4444 14.6667C12.2087 14.6667 11.9826 14.573 11.8159 14.4063C11.6492 14.2396 11.5556 14.0135 11.5556 13.7778V9.77778C11.5556 9.30628 11.3683 8.8541 11.0349 8.5207C10.7015 8.1873 10.2493 8 9.77778 8H8.88889V1.77778C8.88889 1.30628 8.70159 0.854097 8.36819 0.520699C8.03479 0.187301 7.58261 0 7.11111 0H1.77778C0.791111 0 0 0.791111 0 1.77778V16H8.88889V9.33333H10.2222V13.7778C10.2222 14.3671 10.4563 14.9324 10.8731 15.3491C11.2898 15.7659 11.8551 16 12.4444 16C12.7363 16 13.0252 15.9425 13.2949 15.8308C13.5645 15.7192 13.8094 15.5555 14.0158 15.3491C14.2221 15.1428 14.3858 14.8978 14.4975 14.6282C14.6092 14.3586 14.6667 14.0696 14.6667 13.7778V5.33333C14.6667 4.72 14.4178 4.16 14.0178 3.76Z" fill="#2B2B2B"/>
<path d="M23.966 13C23.8727 13 23.7933 12.9673 23.728 12.902C23.6627 12.8367 23.63 12.7573 23.63 12.664V11.95C23.63 11.866 23.6487 11.768 23.686 11.656C23.7327 11.5347 23.8307 11.4133 23.98 11.292L26.192 9.094C26.808 8.60867 27.3027 8.198 27.676 7.862C28.0587 7.51667 28.334 7.204 28.502 6.924C28.6793 6.63467 28.768 6.35 28.768 6.07C28.768 5.65 28.6513 5.30933 28.418 5.048C28.194 4.78667 27.8347 4.656 27.34 4.656C27.0133 4.656 26.738 4.726 26.514 4.866C26.29 4.99667 26.1127 5.174 25.982 5.398C25.8607 5.622 25.7767 5.86933 25.73 6.14C25.7113 6.26133 25.66 6.34533 25.576 6.392C25.492 6.43867 25.408 6.462 25.324 6.462H24.078C23.994 6.462 23.924 6.434 23.868 6.378C23.812 6.322 23.784 6.25667 23.784 6.182C23.7933 5.78067 23.8773 5.39333 24.036 5.02C24.1947 4.63733 24.4233 4.30133 24.722 4.012C25.03 3.71333 25.4033 3.47533 25.842 3.298C26.2807 3.12067 26.7753 3.032 27.326 3.032C28.1007 3.032 28.74 3.16267 29.244 3.424C29.7573 3.68533 30.14 4.04 30.392 4.488C30.6533 4.936 30.784 5.44 30.784 6C30.784 6.43867 30.7 6.84467 30.532 7.218C30.364 7.582 30.1213 7.93667 29.804 8.282C29.4867 8.618 29.104 8.96333 28.656 9.318L26.668 11.334H30.658C30.7607 11.334 30.84 11.3667 30.896 11.432C30.9613 11.488 30.994 11.5673 30.994 11.67V12.664C30.994 12.7573 30.9613 12.8367 30.896 12.902C30.84 12.9673 30.7607 13 30.658 13H23.966ZM32.634 13C32.5406 13 32.4613 12.9673 32.396 12.902C32.3306 12.8367 32.298 12.7573 32.298 12.664V11.95C32.298 11.866 32.3166 11.768 32.354 11.656C32.4006 11.5347 32.4986 11.4133 32.648 11.292L34.86 9.094C35.476 8.60867 35.9706 8.198 36.344 7.862C36.7266 7.51667 37.002 7.204 37.17 6.924C37.3473 6.63467 37.436 6.35 37.436 6.07C37.436 5.65 37.3193 5.30933 37.086 5.048C36.862 4.78667 36.5026 4.656 36.008 4.656C35.6813 4.656 35.406 4.726 35.182 4.866C34.958 4.99667 34.7806 5.174 34.65 5.398C34.5286 5.622 34.4446 5.86933 34.398 6.14C34.3793 6.26133 34.328 6.34533 34.244 6.392C34.16 6.43867 34.076 6.462 33.992 6.462H32.746C32.662 6.462 32.592 6.434 32.536 6.378C32.48 6.322 32.452 6.25667 32.452 6.182C32.4613 5.78067 32.5453 5.39333 32.704 5.02C32.8626 4.63733 33.0913 4.30133 33.39 4.012C33.698 3.71333 34.0713 3.47533 34.51 3.298C34.9486 3.12067 35.4433 3.032 35.994 3.032C36.7686 3.032 37.408 3.16267 37.912 3.424C38.4253 3.68533 38.808 4.04 39.06 4.488C39.3213 4.936 39.452 5.44 39.452 6C39.452 6.43867 39.368 6.84467 39.2 7.218C39.032 7.582 38.7893 7.93667 38.472 8.282C38.1546 8.618 37.772 8.96333 37.324 9.318L35.336 11.334H39.326C39.4286 11.334 39.508 11.3667 39.564 11.432C39.6293 11.488 39.662 11.5673 39.662 11.67V12.664C39.662 12.7573 39.6293 12.8367 39.564 12.902C39.508 12.9673 39.4286 13 39.326 13H32.634ZM48.0292 13.14C47.1612 13.14 46.4332 13.014 45.8452 12.762C45.2665 12.5007 44.8232 12.1647 44.5152 11.754C44.2165 11.334 44.0578 10.8953 44.0392 10.438C44.0392 10.354 44.0672 10.284 44.1232 10.228C44.1792 10.172 44.2492 10.144 44.3332 10.144H45.5792C45.7005 10.144 45.7892 10.172 45.8452 10.228C45.9105 10.2747 45.9665 10.3353 46.0132 10.41C46.0692 10.5873 46.1765 10.7647 46.3352 10.942C46.4938 11.11 46.7085 11.25 46.9792 11.362C47.2592 11.474 47.6092 11.53 48.0292 11.53C48.7012 11.53 49.2005 11.418 49.5272 11.194C49.8632 10.97 50.0312 10.6667 50.0312 10.284C50.0312 10.0133 49.9425 9.79867 49.7652 9.64C49.5878 9.472 49.3125 9.32267 48.9392 9.192C48.5752 9.052 48.0898 8.90733 47.4832 8.758C46.7832 8.59 46.1952 8.38933 45.7192 8.156C45.2525 7.91333 44.8978 7.61 44.6552 7.246C44.4218 6.882 44.3052 6.42 44.3052 5.86C44.3052 5.31867 44.4498 4.838 44.7392 4.418C45.0378 3.998 45.4578 3.66667 45.9992 3.424C46.5498 3.18133 47.2032 3.06 47.9592 3.06C48.5658 3.06 49.1025 3.144 49.5692 3.312C50.0358 3.47067 50.4232 3.68533 50.7312 3.956C51.0392 4.21733 51.2725 4.502 51.4312 4.81C51.5992 5.10867 51.6878 5.40267 51.6972 5.692C51.6972 5.76667 51.6692 5.83667 51.6132 5.902C51.5665 5.958 51.4965 5.986 51.4032 5.986H50.1012C50.0265 5.986 49.9518 5.96733 49.8772 5.93C49.8025 5.89267 49.7418 5.82267 49.6952 5.72C49.6392 5.43067 49.4572 5.18333 49.1492 4.978C48.8412 4.77267 48.4445 4.67 47.9592 4.67C47.4552 4.67 47.0492 4.76333 46.7412 4.95C46.4332 5.13667 46.2792 5.426 46.2792 5.818C46.2792 6.07933 46.3538 6.29867 46.5032 6.476C46.6618 6.644 46.9092 6.79333 47.2452 6.924C47.5905 7.05467 48.0432 7.19467 48.6032 7.344C49.3965 7.52133 50.0452 7.72667 50.5492 7.96C51.0532 8.19333 51.4218 8.492 51.6552 8.856C51.8885 9.21067 52.0052 9.66333 52.0052 10.214C52.0052 10.83 51.8372 11.3573 51.5012 11.796C51.1745 12.2253 50.7125 12.5567 50.1152 12.79C49.5178 13.0233 48.8225 13.14 48.0292 13.14ZM55.5556 13.14C55.0702 13.14 54.6316 13.0467 54.2396 12.86C53.8476 12.664 53.5349 12.4073 53.3016 12.09C53.0776 11.7633 52.9656 11.3993 52.9656 10.998C52.9656 10.3447 53.2269 9.82667 53.7496 9.444C54.2816 9.052 54.9816 8.79067 55.8496 8.66L57.7676 8.38V8.086C57.7676 7.694 57.6696 7.39067 57.4736 7.176C57.2776 6.96133 56.9416 6.854 56.4656 6.854C56.1296 6.854 55.8542 6.924 55.6396 7.064C55.4342 7.19467 55.2802 7.372 55.1776 7.596C55.1029 7.71733 54.9956 7.778 54.8556 7.778H53.7496C53.6469 7.778 53.5676 7.75 53.5116 7.694C53.4649 7.638 53.4416 7.56333 53.4416 7.47C53.4509 7.32067 53.5116 7.13867 53.6236 6.924C53.7356 6.70933 53.9129 6.504 54.1556 6.308C54.3982 6.10267 54.7109 5.93 55.0936 5.79C55.4762 5.65 55.9382 5.58 56.4796 5.58C57.0676 5.58 57.5622 5.65467 57.9636 5.804C58.3742 5.944 58.7009 6.13533 58.9436 6.378C59.1862 6.62067 59.3636 6.90533 59.4756 7.232C59.5876 7.55867 59.6436 7.904 59.6436 8.268V12.664C59.6436 12.7573 59.6109 12.8367 59.5456 12.902C59.4802 12.9673 59.4009 13 59.3076 13H58.1736C58.0709 13 57.9869 12.9673 57.9216 12.902C57.8656 12.8367 57.8376 12.7573 57.8376 12.664V12.118C57.7162 12.2953 57.5529 12.4633 57.3476 12.622C57.1422 12.7713 56.8902 12.8973 56.5916 13C56.3022 13.0933 55.9569 13.14 55.5556 13.14ZM56.0316 11.81C56.3582 11.81 56.6522 11.74 56.9136 11.6C57.1842 11.46 57.3942 11.2453 57.5436 10.956C57.7022 10.6573 57.7816 10.284 57.7816 9.836V9.542L56.3816 9.766C55.8309 9.85 55.4202 9.98533 55.1496 10.172C54.8789 10.3587 54.7436 10.5873 54.7436 10.858C54.7436 11.0633 54.8042 11.2407 54.9256 11.39C55.0562 11.53 55.2196 11.6373 55.4156 11.712C55.6116 11.7773 55.8169 11.81 56.0316 11.81ZM64.6613 13C64.1013 13 63.6299 12.902 63.2473 12.706C62.8646 12.51 62.5799 12.2207 62.3933 11.838C62.2066 11.446 62.1133 10.9607 62.1133 10.382V7.204H61.0073C60.9139 7.204 60.8346 7.17133 60.7693 7.106C60.7039 7.04067 60.6713 6.96133 60.6713 6.868V6.056C60.6713 5.96267 60.7039 5.88333 60.7693 5.818C60.8346 5.75267 60.9139 5.72 61.0073 5.72H62.1133V3.396C62.1133 3.30267 62.1413 3.22333 62.1973 3.158C62.2626 3.09267 62.3466 3.06 62.4493 3.06H63.5833C63.6766 3.06 63.7559 3.09267 63.8213 3.158C63.8866 3.22333 63.9193 3.30267 63.9193 3.396V5.72H65.6693C65.7626 5.72 65.8419 5.75267 65.9073 5.818C65.9726 5.88333 66.0053 5.96267 66.0053 6.056V6.868C66.0053 6.96133 65.9726 7.04067 65.9073 7.106C65.8419 7.17133 65.7626 7.204 65.6693 7.204H63.9193V10.242C63.9193 10.6247 63.9846 10.9233 64.1153 11.138C64.2553 11.3527 64.4933 11.46 64.8293 11.46H65.7953C65.8886 11.46 65.9679 11.4927 66.0333 11.558C66.0986 11.6233 66.1313 11.7027 66.1313 11.796V12.664C66.1313 12.7573 66.0986 12.8367 66.0333 12.902C65.9679 12.9673 65.8886 13 65.7953 13H64.6613ZM70.1312 13.14C69.5712 13.14 69.0906 13.0747 68.6892 12.944C68.2972 12.8133 67.9752 12.65 67.7232 12.454C67.4712 12.258 67.2846 12.062 67.1632 11.866C67.0419 11.67 66.9766 11.5067 66.9672 11.376C66.9579 11.2733 66.9859 11.194 67.0512 11.138C67.1259 11.0727 67.2052 11.04 67.2892 11.04H68.3952C68.4326 11.04 68.4652 11.0447 68.4932 11.054C68.5212 11.0633 68.5586 11.0913 68.6052 11.138C68.7266 11.2407 68.8526 11.348 68.9832 11.46C69.1232 11.572 69.2866 11.67 69.4732 11.754C69.6599 11.8287 69.8932 11.866 70.1732 11.866C70.5372 11.866 70.8406 11.796 71.0832 11.656C71.3352 11.5067 71.4612 11.2967 71.4612 11.026C71.4612 10.83 71.4052 10.6713 71.2932 10.55C71.1906 10.4287 70.9946 10.3213 70.7052 10.228C70.4159 10.1253 70.0052 10.018 69.4732 9.906C68.9506 9.78467 68.5166 9.63067 68.1712 9.444C67.8259 9.25733 67.5692 9.024 67.4012 8.744C67.2332 8.464 67.1492 8.13733 67.1492 7.764C67.1492 7.4 67.2566 7.05467 67.4712 6.728C67.6952 6.392 68.0219 6.11667 68.4512 5.902C68.8899 5.68733 69.4312 5.58 70.0752 5.58C70.5792 5.58 71.0179 5.64533 71.3912 5.776C71.7646 5.89733 72.0726 6.05133 72.3152 6.238C72.5672 6.42467 72.7586 6.616 72.8892 6.812C73.0199 6.99867 73.0899 7.162 73.0992 7.302C73.1086 7.40467 73.0806 7.48867 73.0152 7.554C72.9499 7.61 72.8752 7.638 72.7912 7.638H71.7552C71.7086 7.638 71.6666 7.62867 71.6292 7.61C71.5919 7.59133 71.5546 7.568 71.5172 7.54C71.4146 7.44667 71.3026 7.34867 71.1812 7.246C71.0599 7.14333 70.9106 7.05467 70.7332 6.98C70.5652 6.896 70.3412 6.854 70.0612 6.854C69.7066 6.854 69.4359 6.93333 69.2492 7.092C69.0626 7.24133 68.9692 7.43267 68.9692 7.666C68.9692 7.82467 69.0112 7.96467 69.0952 8.086C69.1886 8.198 69.3706 8.30533 69.6412 8.408C69.9119 8.51067 70.3226 8.618 70.8732 8.73C71.4986 8.842 71.9932 9.01 72.3572 9.234C72.7306 9.44867 72.9919 9.70067 73.1412 9.99C73.2999 10.27 73.3792 10.5827 73.3792 10.928C73.3792 11.348 73.2532 11.726 73.0012 12.062C72.7586 12.398 72.3946 12.664 71.9092 12.86C71.4332 13.0467 70.8406 13.14 70.1312 13.14ZM74.4347 14.176C74.36 14.176 74.2947 14.148 74.2387 14.092C74.1827 14.036 74.1547 13.966 74.1547 13.882C74.1547 13.8447 74.164 13.7933 74.1827 13.728L78.9427 2.29C78.98 2.22467 79.0314 2.15933 79.0967 2.094C79.162 2.02867 79.2554 1.996 79.3767 1.996H80.2867C80.3614 1.996 80.4267 2.024 80.4827 2.08C80.548 2.136 80.5807 2.206 80.5807 2.29C80.5807 2.32733 80.5667 2.37867 80.5387 2.444L75.7647 13.882C75.7367 13.938 75.69 13.9987 75.6247 14.064C75.5594 14.1387 75.4614 14.176 75.3307 14.176H74.4347ZM83.9766 13C83.8272 13 83.7152 12.9673 83.6406 12.902C83.5752 12.8273 83.5192 12.7433 83.4726 12.65L80.8546 6.154C80.8359 6.10733 80.8266 6.06533 80.8266 6.028C80.8266 5.944 80.8546 5.874 80.9106 5.818C80.9759 5.75267 81.0506 5.72 81.1346 5.72H82.2686C82.3806 5.72 82.4646 5.75267 82.5206 5.818C82.5766 5.874 82.6139 5.93 82.6326 5.986L84.4946 10.9L86.3566 5.986C86.3752 5.93 86.4126 5.874 86.4686 5.818C86.5246 5.75267 86.6086 5.72 86.7206 5.72H87.8686C87.9432 5.72 88.0086 5.75267 88.0646 5.818C88.1299 5.874 88.1626 5.944 88.1626 6.028C88.1626 6.06533 88.1579 6.10733 88.1486 6.154L85.5166 12.65C85.4792 12.7433 85.4232 12.8273 85.3486 12.902C85.2739 12.9673 85.1619 13 85.0126 13H83.9766ZM93.4716 13.14C92.9303 13.14 92.4776 13.0467 92.1136 12.86C91.759 12.6733 91.465 12.4353 91.2316 12.146V12.664C91.2316 12.7573 91.199 12.8367 91.1336 12.902C91.0776 12.9673 90.9983 13 90.8956 13H89.7896C89.6963 13 89.617 12.9673 89.5516 12.902C89.4863 12.8367 89.4536 12.7573 89.4536 12.664V3.396C89.4536 3.30267 89.4863 3.22333 89.5516 3.158C89.617 3.09267 89.6963 3.06 89.7896 3.06H90.9796C91.0823 3.06 91.1616 3.09267 91.2176 3.158C91.283 3.22333 91.3156 3.30267 91.3156 3.396V6.504C91.549 6.23333 91.8383 6.014 92.1836 5.846C92.5383 5.66867 92.9676 5.58 93.4716 5.58C93.9663 5.58 94.3956 5.664 94.7596 5.832C95.1236 6 95.427 6.238 95.6696 6.546C95.9216 6.84467 96.113 7.19467 96.2436 7.596C96.3743 7.99733 96.4443 8.43133 96.4536 8.898C96.463 9.066 96.4676 9.22 96.4676 9.36C96.4676 9.49067 96.463 9.64 96.4536 9.808C96.435 10.2933 96.3603 10.7413 96.2296 11.152C96.099 11.5533 95.9123 11.9033 95.6696 12.202C95.427 12.5007 95.1236 12.734 94.7596 12.902C94.3956 13.0607 93.9663 13.14 93.4716 13.14ZM92.9536 11.642C93.355 11.642 93.6676 11.558 93.8916 11.39C94.1156 11.2127 94.2743 10.984 94.3676 10.704C94.4703 10.424 94.531 10.116 94.5496 9.78C94.5683 9.5 94.5683 9.22 94.5496 8.94C94.531 8.604 94.4703 8.296 94.3676 8.016C94.2743 7.736 94.1156 7.512 93.8916 7.344C93.6676 7.16667 93.355 7.078 92.9536 7.078C92.5803 7.078 92.277 7.162 92.0436 7.33C91.8103 7.498 91.633 7.71267 91.5116 7.974C91.3903 8.226 91.325 8.492 91.3156 8.772C91.3063 8.94 91.3016 9.122 91.3016 9.318C91.3016 9.50467 91.3063 9.682 91.3156 9.85C91.3343 10.1393 91.395 10.424 91.4976 10.704C91.6096 10.9747 91.7823 11.1987 92.0156 11.376C92.2583 11.5533 92.571 11.642 92.9536 11.642Z" fill="#2B2B2B"/>
</svg>
