<svg width="32" height="32" viewBox="0 0 32 32" fill="none" xmlns="http://www.w3.org/2000/svg">
<circle cx="16" cy="16" r="16" transform="matrix(-1 0 0 1 32 0)" fill="#ECF1F0"/>
<path d="M19.0575 9.7506C19.1488 9.84908 19.2 9.98127 19.2 10.1189C19.2 10.2566 19.1488 10.3888 19.0575 10.4872L13.9549 16L19.0575 21.5116C19.1488 21.6101 19.2 21.7423 19.2 21.8799C19.2 22.0176 19.1488 22.1498 19.0575 22.2482C19.0131 22.2963 18.96 22.3344 18.9014 22.3605C18.8428 22.3866 18.7798 22.4 18.7161 22.4C18.6525 22.4 18.5895 22.3866 18.5309 22.3605C18.4722 22.3344 18.4192 22.2963 18.3748 22.2482L12.9486 16.3848C12.8533 16.2819 12.8 16.1438 12.8 16C12.8 15.8562 12.8533 15.7181 12.9486 15.6151L18.3748 9.75171C18.4192 9.70369 18.4722 9.66552 18.5309 9.63946C18.5895 9.6134 18.6525 9.59998 18.7161 9.59998C18.7798 9.59998 18.8428 9.6134 18.9014 9.63946C18.96 9.66552 19.0131 9.70369 19.0575 9.75171V9.7506Z" fill="#2B2B2B"/>
</svg>
