<svg width="155" height="60" viewBox="0 0 155 60" fill="none" xmlns="http://www.w3.org/2000/svg">
<path d="M134.003 35.9742C134.003 39.1794 131.356 41.7775 128.091 41.7775H94.1971C90.9316 41.7775 88.2852 39.1794 88.2852 35.9742V8.70002C88.2852 5.4951 90.9316 2.89703 94.1971 2.89703H128.091C131.356 2.89703 134.003 5.4951 134.003 8.70002V35.9742Z" stroke="black" stroke-width="4" stroke-miterlimit="10"/>
<path d="M111.342 25.2389C111.342 26.3607 110.456 27.27 109.364 27.27H100.511C99.4181 27.27 98.5327 26.3607 98.5327 25.2389V18.8555C98.5327 17.7336 99.4181 16.8243 100.511 16.8243H109.364C110.456 16.8243 111.342 17.7336 111.342 18.8555V25.2389Z" fill="black"/>
<path d="M128.978 17.1143C128.978 18.2361 128.093 19.1452 127 19.1452H118.147C117.055 19.1452 116.169 18.2359 116.169 17.1143V10.7309C116.169 9.60907 117.055 8.69977 118.147 8.69977H127C128.093 8.69977 128.978 9.60907 128.978 10.7309V17.1143Z" fill="black"/>
<path d="M129.175 32.9759C129.175 34.0977 128.29 35.007 127.198 35.007H118.345C117.252 35.007 116.367 34.0977 116.367 32.9759V26.5925C116.367 25.4706 117.252 24.5613 118.345 24.5613H127.198C128.29 24.5613 129.175 25.4706 129.175 26.5925V32.9759Z" fill="black"/>
<path d="M0 11.3197C0 10.5352 0.430344 10.1128 1.2298 10.1128H2.98179C3.78124 10.1128 4.21159 10.5352 4.21159 11.3197V23.9026C4.21159 26.6485 6.20949 28.0969 8.36121 28.0969C10.5129 28.0969 12.5111 26.6485 12.5111 23.9026V11.3197C12.5111 10.5352 12.9414 10.1128 13.7409 10.1128H15.4929C16.2921 10.1128 16.7227 10.5352 16.7227 11.3197V23.9026C16.7227 28.3683 13.8944 31.3859 8.36121 31.3859C2.82822 31.3859 0 28.3683 0 23.9026V11.3197Z" fill="black"/>
<path d="M34.214 10.1128C35.0135 10.1128 35.4438 10.5352 35.4438 11.3197V12.1949C35.4438 12.9794 35.0135 13.4021 34.214 13.4021H29.7568V30.0282C29.7568 30.8127 29.3264 31.2354 28.5272 31.2354H26.775C25.9758 31.2354 25.5455 30.8127 25.5455 30.0282V13.4019H21.0882C20.289 13.4019 19.8584 12.9794 19.8584 12.1947V11.3195C19.8584 10.535 20.289 10.1125 21.0882 10.1125L34.214 10.1128Z" fill="black"/>
<path d="M43.6822 20.6436L37.3497 11.1084C36.9191 10.4446 37.1036 10.1125 37.903 10.1125H39.9624C40.7619 10.1125 41.4379 10.4746 41.8682 11.1385L46.3566 17.8976L50.8445 11.1385C51.2748 10.4746 51.9511 10.1125 52.7503 10.1125H54.8096C55.6091 10.1125 55.7935 10.4443 55.3632 11.1084L49.0307 20.6436L55.5168 30.2391C55.978 30.9031 55.7627 31.2352 54.9635 31.2352H52.9038C52.1046 31.2352 51.4286 30.9031 50.9674 30.2391L46.3566 23.6612L41.7455 30.2391C41.2846 30.9031 40.6081 31.2352 39.8091 31.2352H37.7495C36.9503 31.2352 36.735 30.9031 37.1962 30.2391L43.6822 20.6436Z" fill="black"/>
<path d="M66.7375 9.96179C72.6703 9.96179 76.5742 14.2164 76.5742 20.6738C76.5742 27.1313 72.6703 31.3859 66.7375 31.3859C60.8046 31.3859 56.9009 27.1313 56.9009 20.6738C56.9009 14.2164 60.8046 9.96179 66.7375 9.96179ZM66.7375 28.0968C70.0882 28.0968 72.3629 25.1699 72.3629 20.6738C72.3629 16.1778 70.0882 13.2509 66.7375 13.2509C63.3869 13.2509 61.1122 16.1778 61.1122 20.6738C61.1122 25.1699 63.3869 28.0968 66.7375 28.0968Z" fill="black"/>
<g opacity="0.9">
<path d="M4.02438 56.7499C4.02438 56.9581 3.92445 57.0562 3.7121 57.0562H3.36234C3.14998 57.0562 3.05029 56.9459 3.05029 56.7499V51.2325C3.05029 51.0364 3.14998 50.926 3.36234 50.926H3.51223C3.71185 50.926 3.8495 51.0241 3.88673 51.2205L4.02438 51.8459C4.42411 51.1837 5.12339 50.8652 6.01028 50.8652C7.05932 50.8652 7.6839 51.3189 7.95871 52.0543C8.3457 51.2573 9.24509 50.8652 10.0568 50.8652C11.7179 50.8652 12.2675 51.8459 12.2675 53.2558V56.7501C12.2675 56.9584 12.1676 57.0564 11.9555 57.0564H11.6057C11.3934 57.0564 11.2934 56.9461 11.2934 56.7501V53.2435C11.2934 52.4097 11.1186 51.6252 9.90714 51.6252C9.04522 51.6252 8.14608 52.2748 8.14608 53.7462V56.7501C8.14608 56.9584 8.04615 57.0564 7.8338 57.0564H7.48403C7.27192 57.0564 7.17199 56.9461 7.17199 56.7501V53.2435C7.17199 52.4097 6.99711 51.6252 5.78568 51.6252C4.92377 51.6252 4.02463 52.2748 4.02463 53.7462V56.7499H4.02438Z" fill="black"/>
<path d="M18.789 56.0508C18.4143 56.7007 17.7147 57.1176 16.7029 57.1176C15.5914 57.1176 14.6421 56.5906 14.6421 55.3766C14.6421 53.5253 16.7904 53.3291 18.0395 53.3291H18.7513V53.0346C18.7513 52.0291 18.0395 51.6247 17.2273 51.6247C16.5655 51.6247 16.0784 51.7599 15.6412 52.0539C15.566 52.103 15.5035 52.1152 15.4535 52.1152C15.3663 52.1152 15.3039 52.0662 15.2412 51.9681L15.154 51.8455C15.0541 51.6615 15.0915 51.5021 15.2539 51.3918C15.8033 51.0362 16.5403 50.8647 17.2273 50.8647C18.514 50.8647 19.7254 51.4899 19.7254 53.0346V56.7497C19.7254 56.9457 19.613 57.056 19.4133 57.056H19.3259C19.1263 57.056 19.0011 56.9579 18.9512 56.7617L18.789 56.0508ZM18.0398 54.0158C17.2153 54.0158 15.6164 54.2118 15.6164 55.3766C15.6164 56.063 16.1785 56.3576 16.7032 56.3576C18.0523 56.3576 18.7515 55.4502 18.7515 54.3959V54.0158H18.0398Z" fill="black"/>
<path d="M22.7364 57.0562C22.5367 57.0562 22.4243 56.9581 22.4243 56.7499V48.7804C22.4243 48.572 22.5367 48.4741 22.7364 48.4741H23.0736C23.2735 48.4741 23.3859 48.572 23.3859 48.7804V53.3781L25.5092 51.1467C25.6466 50.9998 25.8338 50.926 26.0339 50.926H26.6459C26.8456 50.926 26.8833 50.9998 26.7456 51.1467L24.2851 53.734L26.9205 56.8237C27.0582 56.9831 27.0204 57.0567 26.8081 57.0567H26.2587C26.0464 57.0567 25.884 56.9831 25.7466 56.8237L23.3859 54.0528V56.7504C23.3859 56.9586 23.2735 57.0567 23.0736 57.0567H22.7364V57.0562Z" fill="black"/>
<path d="M29.3195 54.0769C29.382 55.6341 30.3061 56.3573 31.4179 56.3573C31.8801 56.3573 32.2296 56.3083 32.5421 56.2102C32.7417 56.1366 32.8919 56.1854 32.9916 56.3573L33.0667 56.48C33.1792 56.6639 33.1292 56.7985 32.9416 56.8723C32.4297 57.0683 31.905 57.1176 31.4179 57.1176C29.794 57.1176 28.3452 56.1244 28.3452 53.942C28.3452 52.1275 29.3318 50.8647 31.0181 50.8647C32.8042 50.8647 33.6036 52.2378 33.6911 53.7703C33.7036 53.9665 33.6036 54.0769 33.391 54.0769H29.3195ZM29.332 53.427H32.7295C32.6795 52.3482 31.9178 51.6247 31.0184 51.6247C30.119 51.6247 29.382 52.3482 29.332 53.427Z" fill="black"/>
<path d="M39.4875 56.1857C39.55 56.0631 39.6249 56.0017 39.7249 56.0017C39.7748 56.0017 39.8373 56.014 39.8998 56.0508C40.2495 56.2225 40.674 56.3573 41.0989 56.3573C41.7982 56.3573 42.2479 55.9895 42.2479 55.3886C42.2479 54.9107 41.9856 54.6409 41.1112 54.3098C40.3495 54.0278 39.5 53.5864 39.5 52.5076C39.5 51.4776 40.287 50.8647 41.5484 50.8647C42.0978 50.8647 42.4975 50.9874 42.7723 51.11C42.9597 51.1958 43.0097 51.343 42.9222 51.5269L42.847 51.6618C42.7598 51.8457 42.6349 51.8947 42.4348 51.8209C42.185 51.7231 41.8355 51.625 41.4857 51.625C40.7737 51.625 40.4739 52.0051 40.4739 52.4831C40.4739 53.1207 41.0108 53.3414 41.6106 53.5621C42.3723 53.8441 43.2218 54.1752 43.2218 55.3153C43.2218 56.3451 42.4973 57.1176 41.011 57.1176C40.4864 57.1176 39.962 56.9459 39.5622 56.762C39.3749 56.6761 39.3374 56.5165 39.4246 56.3328L39.4875 56.1857Z" fill="black"/>
<path d="M46.6195 51.686V55.1559C46.6195 55.9406 46.7819 56.3575 47.4439 56.3575C47.5564 56.3575 47.6688 56.345 47.7812 56.3208C47.9933 56.2717 48.1182 56.3453 48.1809 56.5292L48.2182 56.6518C48.2806 56.8478 48.2182 56.9952 48.0185 57.0442C47.7937 57.0932 47.5813 57.1178 47.3565 57.1178C46.1198 57.1178 45.6454 56.4313 45.6454 55.1561V51.686H45.3081C45.1085 51.686 44.9961 51.5757 44.9961 51.3795V51.2326C44.9961 51.0241 45.1085 50.926 45.3081 50.926H45.6454L45.8703 49.3938C45.8952 49.1976 46.0201 49.0872 46.22 49.0872H46.3075C46.5071 49.0872 46.6195 49.1853 46.6195 49.3938V50.926H47.6313C47.8437 50.926 47.9433 51.0364 47.9433 51.2326V51.3795C47.9433 51.5879 47.8309 51.686 47.6313 51.686H46.6195Z" fill="black"/>
<path d="M54.4389 56.0508C54.0642 56.7007 53.3647 57.1176 52.3528 57.1176C51.2413 57.1176 50.292 56.5906 50.292 55.3766C50.292 53.5253 52.4403 53.3291 53.6892 53.3291H54.4012V53.0346C54.4012 52.0291 53.6892 51.6247 52.8772 51.6247C52.2154 51.6247 51.7283 51.7599 51.2908 52.0539C51.2159 52.103 51.1534 52.1152 51.1034 52.1152C51.0163 52.1152 50.9538 52.0662 50.8913 51.9681L50.8039 51.8455C50.704 51.6615 50.7414 51.5021 50.9038 51.3918C51.4532 51.0362 52.1902 50.8647 52.8772 50.8647C54.1639 50.8647 55.3753 51.4899 55.3753 53.0346V56.7497C55.3753 56.9457 55.2629 57.056 55.0633 57.056H54.9758C54.7762 57.056 54.651 56.9579 54.6011 56.7617L54.4389 56.0508ZM53.6892 54.0158C52.865 54.0158 51.2661 54.2118 51.2661 55.3766C51.2661 56.063 51.8282 56.3576 52.3528 56.3576C53.7019 56.3576 54.4012 55.4502 54.4012 54.3959V54.0158H53.6892Z" fill="black"/>
<path d="M59.0488 56.7499C59.0488 56.9581 58.9489 57.0562 58.7365 57.0562H58.3867C58.1744 57.0562 58.0747 56.9459 58.0747 56.7499V51.2325C58.0747 51.0364 58.1744 50.926 58.3867 50.926H58.5366C58.7363 50.926 58.8739 51.0241 58.9111 51.2205L59.0488 51.8459C59.4485 51.1837 60.1478 50.8652 61.0347 50.8652C62.0837 50.8652 62.7083 51.3189 62.9831 52.0543C63.3701 51.2573 64.2695 50.8652 65.0812 50.8652C66.7423 50.8652 67.292 51.8459 67.292 53.2558V56.7501C67.292 56.9584 67.192 57.0564 66.9799 57.0564H66.6301C66.4178 57.0564 66.3179 56.9461 66.3179 56.7501V53.2435C66.3179 52.4097 66.143 51.6252 64.9316 51.6252C64.0696 51.6252 63.1705 52.2748 63.1705 53.7462V56.7501C63.1705 56.9584 63.0706 57.0564 62.8582 57.0564H62.5084C62.2963 57.0564 62.1964 56.9461 62.1964 56.7501V53.2435C62.1964 52.4097 62.0215 51.6252 60.8101 51.6252C59.9482 51.6252 59.049 52.2748 59.049 53.7462L59.0488 56.7499Z" fill="black"/>
<path d="M70.9653 51.9681C71.4023 51.2081 72.0396 50.8647 72.9137 50.8647C74.5873 50.8647 75.7363 52.1152 75.7363 53.991C75.7363 55.8671 74.5873 57.1176 72.9137 57.1176C72.0396 57.1176 71.4023 56.7742 70.9653 56.014V59.2018C70.9653 59.4103 70.8654 59.5084 70.653 59.5084H70.3032C70.0909 59.5084 69.9912 59.4103 69.9912 59.2018V51.2326C69.9912 51.0241 70.1036 50.9261 70.3032 50.9261H70.4282C70.628 50.9261 70.7654 51.0241 70.8029 51.2206L70.9653 51.9681ZM72.8638 51.6247C71.727 51.6247 70.9653 52.5689 70.9653 53.991C70.9653 55.4134 71.727 56.3576 72.8638 56.3576C74.0005 56.3576 74.7622 55.4134 74.7622 53.991C74.7622 52.5689 74.0005 51.6247 72.8638 51.6247Z" fill="black"/>
<path d="M77.8235 56.1857C77.8859 56.0631 77.9609 56.0017 78.0608 56.0017C78.1108 56.0017 78.1732 56.014 78.2357 56.0508C78.5855 56.2225 79.0099 56.3573 79.4349 56.3573C80.1342 56.3573 80.5839 55.9895 80.5839 55.3886C80.5839 54.9107 80.3215 54.6409 79.4471 54.3098C78.6854 54.0278 77.836 53.5864 77.836 52.5076C77.836 51.4776 78.6229 50.8647 79.8843 50.8647C80.4337 50.8647 80.8334 50.9874 81.1083 51.11C81.2956 51.1958 81.3456 51.343 81.2582 51.5269L81.183 51.6618C81.0958 51.8457 80.9708 51.8947 80.7707 51.8209C80.5209 51.7231 80.1714 51.625 79.8216 51.625C79.1096 51.625 78.8098 52.0051 78.8098 52.4831C78.8098 53.1207 79.3467 53.3414 79.9465 53.5621C80.7083 53.8441 81.5577 54.1752 81.5577 55.3153C81.5577 56.3451 80.8332 57.1176 79.347 57.1176C78.8223 57.1176 78.2979 56.9459 77.8982 56.762C77.7108 56.6761 77.6733 56.5165 77.7605 56.3328L77.8235 56.1857Z" fill="black"/>
<path d="M88.5034 51.9681C88.9403 51.2081 89.5777 50.8647 90.4518 50.8647C92.1254 50.8647 93.2744 52.1152 93.2744 53.991C93.2744 55.8671 92.1254 57.1176 90.4518 57.1176C89.5777 57.1176 88.9403 56.7742 88.5034 56.014V59.2018C88.5034 59.4103 88.4035 59.5084 88.1911 59.5084H87.8413C87.629 59.5084 87.5293 59.4103 87.5293 59.2018V51.2326C87.5293 51.0241 87.6417 50.9261 87.8413 50.9261H87.9663C88.1661 50.9261 88.3035 51.0241 88.341 51.2206L88.5034 51.9681ZM90.4019 51.6247C89.2651 51.6247 88.5034 52.5689 88.5034 53.991C88.5034 55.4134 89.2651 56.3576 90.4019 56.3576C91.5386 56.3576 92.3003 55.4134 92.3003 53.991C92.3003 52.5689 91.5386 51.6247 90.4019 51.6247Z" fill="black"/>
<path d="M96.3601 54.0769C96.4225 55.6341 97.3467 56.3573 98.4584 56.3573C98.9206 56.3573 99.2701 56.3083 99.5826 56.2102C99.7822 56.1366 99.9324 56.1854 100.032 56.3573L100.107 56.48C100.22 56.6639 100.17 56.7985 99.9821 56.8723C99.4702 57.0683 98.9456 57.1176 98.4584 57.1176C96.8345 57.1176 95.3857 56.1244 95.3857 53.942C95.3857 52.1275 96.3723 50.8647 98.0587 50.8647C99.8447 50.8647 100.644 52.2378 100.732 53.7703C100.744 53.9665 100.644 54.0769 100.432 54.0769H96.3601ZM96.3726 53.427H99.77C99.72 52.3482 98.9583 51.6247 98.0589 51.6247C97.1595 51.6247 96.4225 52.3482 96.3726 53.427Z" fill="black"/>
<path d="M103.493 57.0563C103.28 57.0563 103.181 56.9459 103.181 56.75V51.2326C103.181 51.0364 103.293 50.9261 103.493 50.9261H103.643C103.855 50.9261 103.98 51.0241 104.017 51.2206L104.155 51.8459C104.567 51.2086 104.916 50.9263 105.841 50.8775C106.041 50.8652 106.153 50.9633 106.153 51.1718V51.3189C106.153 51.5149 106.053 51.6132 105.841 51.6377C104.455 51.7969 104.155 53.0108 104.155 54.3349V56.7504C104.155 56.9464 104.055 57.0567 103.842 57.0567H103.493V57.0563Z" fill="black"/>
<path d="M109.114 56.7499C109.114 56.9581 109.014 57.0562 108.801 57.0562H108.452C108.239 57.0562 108.14 56.9459 108.14 56.7499V51.2325C108.14 51.0364 108.239 50.926 108.452 50.926H108.602C108.801 50.926 108.939 51.0241 108.976 51.2205L109.114 51.8459C109.513 51.1837 110.213 50.8652 111.1 50.8652C112.149 50.8652 112.773 51.3189 113.048 52.0543C113.435 51.2573 114.334 50.8652 115.146 50.8652C116.808 50.8652 117.357 51.8459 117.357 53.2558V56.7501C117.357 56.9584 117.257 57.0564 117.045 57.0564H116.695C116.483 57.0564 116.383 56.9461 116.383 56.7501V53.2435C116.383 52.4097 116.208 51.6252 114.996 51.6252C114.135 51.6252 113.235 52.2748 113.235 53.7462V56.7501C113.235 56.9584 113.136 57.0564 112.923 57.0564H112.573C112.361 57.0564 112.261 56.9461 112.261 56.7501V53.2435C112.261 52.4097 112.086 51.6252 110.875 51.6252C110.013 51.6252 109.114 52.2748 109.114 53.7462V56.7499H109.114Z" fill="black"/>
<path d="M123.878 56.0508C123.504 56.7007 122.804 57.1176 121.792 57.1176C120.681 57.1176 119.731 56.5906 119.731 55.3766C119.731 53.5253 121.88 53.3291 123.129 53.3291H123.841V53.0346C123.841 52.0291 123.129 51.6247 122.317 51.6247C121.655 51.6247 121.168 51.7599 120.73 52.0539C120.655 52.103 120.593 52.1152 120.543 52.1152C120.456 52.1152 120.393 52.0662 120.331 51.9681L120.243 51.8455C120.143 51.6615 120.181 51.5021 120.343 51.3918C120.893 51.0362 121.63 50.8647 122.317 50.8647C123.603 50.8647 124.815 51.4899 124.815 53.0346V56.7497C124.815 56.9457 124.702 57.056 124.503 57.056H124.415C124.216 57.056 124.09 56.9579 124.041 56.7617L123.878 56.0508ZM123.129 54.0158C122.304 54.0158 120.706 54.2118 120.706 55.3766C120.706 56.063 121.268 56.3576 121.792 56.3576C123.141 56.3576 123.841 55.4502 123.841 54.3959V54.0158H123.129Z" fill="black"/>
<path d="M128.488 56.7499C128.488 56.9581 128.388 57.0562 128.176 57.0562H127.826C127.614 57.0562 127.514 56.9459 127.514 56.7499V51.2325C127.514 51.0364 127.614 50.926 127.826 50.926H127.976C128.176 50.926 128.313 51.0241 128.351 51.2205L128.488 51.8459C128.888 51.1837 129.65 50.8652 130.399 50.8652C132.06 50.8652 132.61 51.8459 132.61 53.2558V56.7501C132.61 56.9584 132.51 57.0564 132.298 57.0564H131.948C131.736 57.0564 131.636 56.9461 131.636 56.7501V53.2435C131.636 52.4097 131.461 51.6252 130.25 51.6252C129.388 51.6252 128.488 52.2748 128.488 53.7462L128.488 56.7499Z" fill="black"/>
<path d="M135.958 54.0769C136.021 55.6341 136.945 56.3573 138.057 56.3573C138.519 56.3573 138.868 56.3083 139.181 56.2102C139.38 56.1366 139.531 56.1854 139.63 56.3573L139.705 56.48C139.818 56.6639 139.768 56.7985 139.58 56.8723C139.068 57.0683 138.544 57.1176 138.057 57.1176C136.433 57.1176 134.984 56.1244 134.984 53.942C134.984 52.1275 135.97 50.8647 137.657 50.8647C139.443 50.8647 140.242 52.2378 140.33 53.7703C140.342 53.9665 140.242 54.0769 140.03 54.0769H135.958ZM135.971 53.427H139.368C139.318 52.3482 138.556 51.6247 137.657 51.6247C136.758 51.6247 136.021 52.3482 135.971 53.427Z" fill="black"/>
<path d="M143.752 56.7499C143.752 56.9581 143.652 57.0562 143.44 57.0562H143.09C142.878 57.0562 142.778 56.9459 142.778 56.7499V51.2325C142.778 51.0364 142.878 50.926 143.09 50.926H143.24C143.44 50.926 143.578 51.0241 143.615 51.2205L143.752 51.8459C144.152 51.1837 144.914 50.8652 145.663 50.8652C147.324 50.8652 147.874 51.8459 147.874 53.2558V56.7501C147.874 56.9584 147.774 57.0564 147.562 57.0564H147.212C147 57.0564 146.9 56.9461 146.9 56.7501V53.2435C146.9 52.4097 146.725 51.6252 145.514 51.6252C144.652 51.6252 143.753 52.2748 143.753 53.7462V56.7499H143.752Z" fill="black"/>
<path d="M151.572 51.686V55.1559C151.572 55.9406 151.734 56.3575 152.396 56.3575C152.509 56.3575 152.621 56.345 152.733 56.3208C152.945 56.2717 153.07 56.3453 153.133 56.5292L153.17 56.6518C153.233 56.8478 153.17 56.9952 152.971 57.0442C152.746 57.0932 152.534 57.1178 152.309 57.1178C151.072 57.1178 150.598 56.4313 150.598 55.1561V51.686H150.26C150.061 51.686 149.948 51.5757 149.948 51.3795V51.2326C149.948 51.0241 150.061 50.926 150.26 50.926H150.598L150.822 49.3938C150.848 49.1976 150.972 49.0872 151.172 49.0872H151.26C151.459 49.0872 151.572 49.1853 151.572 49.3938V50.926H152.583C152.796 50.926 152.896 51.0364 152.896 51.2326V51.3795C152.896 51.5879 152.783 51.686 152.583 51.686H151.572Z" fill="black"/>
</g>
<path fill-rule="evenodd" clip-rule="evenodd" d="M124.735 13.4485C124.934 12.8643 125.356 12.6621 125.971 12.663C132.769 12.6734 144.297 12.6695 151.095 12.6695C151.192 12.6695 151.291 12.6695 151.448 12.6695C151.349 12.5683 151.287 12.5015 151.221 12.437C150.15 11.3897 149.08 10.3422 148.007 9.29631C147.716 9.01284 147.62 8.67408 147.735 8.2942C147.841 7.94173 148.095 7.71621 148.462 7.6335C148.842 7.54791 149.157 7.67365 149.428 7.93885C150.627 9.11214 151.829 10.2833 153.03 11.4551C153.474 11.8898 153.93 12.3149 154.359 12.7645C154.552 12.9664 154.69 13.2187 154.852 13.448C154.852 13.5781 154.852 13.7077 154.852 13.8375C154.69 14.0671 154.557 14.3261 154.36 14.5213C152.728 16.1305 151.085 17.7286 149.445 19.3284C149.007 19.7557 148.439 19.7953 148.026 19.4345C147.585 19.0493 147.572 18.4196 148.008 17.9907C149.077 16.9407 150.15 15.8953 151.222 14.85C151.286 14.7884 151.366 14.7439 151.439 14.6918C151.427 14.6668 151.414 14.6415 151.402 14.616C151.307 14.616 151.213 14.616 151.12 14.616C144.313 14.616 132.778 14.6124 125.972 14.6228C125.357 14.6235 124.935 14.4213 124.735 13.8373C124.735 13.7082 124.735 13.5786 124.735 13.4485Z" fill="black"/>
<path fill-rule="evenodd" clip-rule="evenodd" d="M124.882 29.8423C125.082 29.2581 125.504 29.0559 126.118 29.0566C132.917 29.0672 144.444 29.0631 151.243 29.0631C151.34 29.0631 151.438 29.0631 151.596 29.0631C151.497 28.9619 151.435 28.895 151.368 28.8306C150.298 27.7835 149.227 26.7357 148.155 25.6901C147.864 25.4066 147.768 25.0676 147.883 24.688C147.989 24.3353 148.242 24.11 148.61 24.0271C148.99 23.9415 149.304 24.0672 149.576 24.3324C150.775 25.5057 151.977 26.6771 153.177 27.8487C153.622 28.2834 154.078 28.7084 154.507 29.158C154.699 29.36 154.837 29.6122 155 29.8418C155 29.9717 155 30.1015 155 30.2311C154.837 30.4607 154.705 30.7194 154.507 30.9149C152.875 32.524 151.233 34.1222 149.593 35.722C149.154 36.1492 148.586 36.1889 148.174 35.828C147.733 35.4428 147.72 34.8132 148.156 34.3842C149.225 33.3343 150.297 32.2887 151.37 31.2435C151.433 31.182 151.514 31.1377 151.587 31.0853C151.574 31.0603 151.561 31.0353 151.549 31.0098C151.455 31.0098 151.36 31.0098 151.268 31.0098C144.461 31.0098 132.926 31.006 126.119 31.0168C125.505 31.0173 125.083 30.8148 124.883 30.2311C124.882 30.102 124.882 29.9721 124.882 29.8423Z" fill="black"/>
<path fill-rule="evenodd" clip-rule="evenodd" d="M74.4849 22.008C74.6847 21.4237 75.1067 21.2218 75.721 21.2225C82.5196 21.2328 86.9526 21.229 93.7509 21.229C93.8484 21.229 93.9466 21.229 94.1046 21.229C94.0056 21.1277 93.9432 21.0609 93.8768 20.9965C92.8059 19.9492 91.7356 18.9016 90.663 17.8558C90.3721 17.5723 90.2765 17.2335 90.3912 16.8539C90.4975 16.5012 90.751 16.2759 91.1184 16.193C91.4985 16.1074 91.8128 16.2331 92.0844 16.4983C93.2836 17.6716 94.4852 18.8427 95.6861 20.0146C96.1304 20.4493 96.5865 20.8743 97.0151 21.3242C97.2079 21.5259 97.3457 21.7781 97.5084 22.0077C97.5084 22.1378 97.5084 22.2674 97.5084 22.3972C97.3457 22.6268 97.2132 22.8858 97.0156 23.081C95.3838 24.6902 93.7413 26.2883 92.101 27.8881C91.6629 28.3154 91.0949 28.355 90.6822 27.9941C90.2415 27.609 90.2283 26.9793 90.6645 26.5504C91.7329 25.5004 92.8057 24.455 93.8783 23.4097C93.9417 23.3481 94.0225 23.3036 94.0953 23.2515C94.0828 23.2264 94.0698 23.2014 94.0578 23.1757C93.9635 23.1757 93.869 23.1757 93.7761 23.1757C86.9695 23.1757 82.5282 23.1721 75.7218 23.1824C75.1075 23.1832 74.6857 22.981 74.4851 22.397C74.4849 22.2676 74.4849 22.138 74.4849 22.008Z" fill="black"/>
</svg>
