<svg width="155" height="60" viewBox="0 0 155 60" fill="none" xmlns="http://www.w3.org/2000/svg">
<path d="M134.003 35.6966C134.003 38.9618 131.357 41.6085 128.091 41.6085H94.1973C90.9319 41.6085 88.2854 38.9618 88.2854 35.6966V7.91165C88.2854 4.64672 90.9319 2 94.1973 2H128.091C131.357 2 134.003 4.64672 134.003 7.91165V35.6966Z" stroke="#0FAE96" stroke-width="4" stroke-miterlimit="10"/>
<path d="M111.341 24.7602C111.341 25.9031 110.456 26.8294 109.363 26.8294H100.51C99.4179 26.8294 98.5325 25.9031 98.5325 24.7602V18.2573C98.5325 17.1144 99.4179 16.1881 100.51 16.1881H109.363C110.456 16.1881 111.341 17.1144 111.341 18.2573V24.7602Z" fill="#0FAE96"/>
<path d="M128.978 16.4835C128.978 17.6263 128.092 18.5524 127 18.5524H118.147C117.054 18.5524 116.169 17.6261 116.169 16.4835V9.98055C116.169 8.83771 117.054 7.91138 118.147 7.91138H127C128.092 7.91138 128.978 8.83771 128.978 9.98055V16.4835Z" fill="#0FAE96"/>
<path d="M129.175 32.6421C129.175 33.7849 128.29 34.7113 127.197 34.7113H118.344C117.252 34.7113 116.366 33.7849 116.366 32.6421V26.1392C116.366 24.9963 117.252 24.07 118.344 24.07H127.197C128.29 24.07 129.175 24.9963 129.175 26.1392V32.6421Z" fill="#0FAE96"/>
<path d="M0 10.5804C0 9.78123 0.430344 9.35089 1.2298 9.35089H2.98179C3.78124 9.35089 4.21159 9.78123 4.21159 10.5804V23.3989C4.21159 26.1963 6.20949 27.6717 8.36121 27.6717C10.5129 27.6717 12.5111 26.1963 12.5111 23.3989V10.5804C12.5111 9.78123 12.9414 9.35089 13.7409 9.35089H15.4929C16.2921 9.35089 16.7227 9.78123 16.7227 10.5804V23.3989C16.7227 27.9483 13.8944 31.0224 8.36121 31.0224C2.82822 31.0224 0 27.9483 0 23.3989V10.5804Z" fill="black"/>
<path d="M34.214 9.35089C35.0135 9.35089 35.4438 9.78124 35.4438 10.5804V11.472C35.4438 12.2712 35.0135 12.7018 34.214 12.7018H29.7568V29.6393C29.7568 30.4385 29.3264 30.8691 28.5272 30.8691H26.775C25.9758 30.8691 25.5455 30.4385 25.5455 29.6393V12.7015H21.0882C20.289 12.7015 19.8584 12.2712 19.8584 11.4717V10.5802C19.8584 9.78099 20.289 9.35065 21.0882 9.35065L34.214 9.35089Z" fill="black"/>
<path d="M43.6822 20.0789L37.3497 10.3652C36.9191 9.6889 37.1036 9.35065 37.903 9.35065H39.9624C40.7619 9.35065 41.4379 9.71951 41.8682 10.3958L46.3566 17.2815L50.8445 10.3958C51.2748 9.71951 51.9511 9.35065 52.7503 9.35065H54.8096C55.6091 9.35065 55.7935 9.68865 55.3632 10.3652L49.0307 20.0789L55.5168 29.8541C55.978 30.5306 55.7627 30.8688 54.9635 30.8688H52.9038C52.1046 30.8688 51.4286 30.5306 50.9674 29.8541L46.3566 23.153L41.7455 29.8541C41.2846 30.5306 40.6081 30.8688 39.8091 30.8688H37.7495C36.9503 30.8688 36.735 30.5306 37.1962 29.8541L43.6822 20.0789Z" fill="black"/>
<path d="M66.7378 9.19708C72.6705 9.19708 76.5745 13.5314 76.5745 20.1097C76.5745 26.6881 72.6705 31.0224 66.7378 31.0224C60.8048 31.0224 56.9011 26.6881 56.9011 20.1097C56.9011 13.5314 60.8048 9.19708 66.7378 9.19708ZM66.7378 27.6717C70.0884 27.6717 72.3631 24.6899 72.3631 20.1097C72.3631 15.5295 70.0884 12.5477 66.7378 12.5477C63.3871 12.5477 61.1125 15.5295 61.1125 20.1097C61.1125 24.6899 63.3871 27.6717 66.7378 27.6717Z" fill="black"/>
<g opacity="0.9">
<path d="M4.02438 56.8614C4.02438 57.0735 3.92445 57.1734 3.7121 57.1734H3.36234C3.14998 57.1734 3.05029 57.061 3.05029 56.8614V51.2407C3.05029 51.0408 3.14998 50.9284 3.36234 50.9284H3.51223C3.71185 50.9284 3.8495 51.0284 3.88673 51.2285L4.02438 51.8655C4.42411 51.191 5.12339 50.8665 6.01028 50.8665C7.05932 50.8665 7.6839 51.3286 7.95871 52.0779C8.3457 51.2659 9.24509 50.8665 10.0568 50.8665C11.7179 50.8665 12.2675 51.8655 12.2675 53.3018V56.8616C12.2675 57.0737 12.1676 57.1737 11.9555 57.1737H11.6057C11.3934 57.1737 11.2934 57.0613 11.2934 56.8616V53.2893C11.2934 52.4399 11.1186 51.6407 9.90714 51.6407C9.04522 51.6407 8.14608 52.3025 8.14608 53.8015V56.8616C8.14608 57.0737 8.04615 57.1737 7.8338 57.1737H7.48403C7.27192 57.1737 7.17199 57.0613 7.17199 56.8616V53.2893C7.17199 52.4399 6.99711 51.6407 5.78568 51.6407C4.92377 51.6407 4.02463 52.3025 4.02463 53.8015V56.8614H4.02438Z" fill="black"/>
<path d="M18.7888 56.1491C18.414 56.8112 17.7145 57.2359 16.7027 57.2359C15.5912 57.2359 14.6418 56.699 14.6418 55.4623C14.6418 53.5764 16.7901 53.3765 18.0393 53.3765H18.7511V53.0765C18.7511 52.0522 18.0393 51.6402 17.2271 51.6402C16.5653 51.6402 16.0781 51.7778 15.6409 52.0774C15.5657 52.1274 15.5033 52.1399 15.4533 52.1399C15.3661 52.1399 15.3036 52.0899 15.2409 51.99L15.1538 51.865C15.0538 51.6777 15.0913 51.5153 15.2537 51.4029C15.8031 51.0406 16.5401 50.866 17.2271 50.866C18.5137 50.866 19.7251 51.5028 19.7251 53.0765V56.8611C19.7251 57.0608 19.6127 57.1732 19.4131 57.1732H19.3257C19.126 57.1732 19.0009 57.0733 18.9509 56.8734L18.7888 56.1491ZM18.0395 54.076C17.2151 54.076 15.6162 54.2756 15.6162 55.4623C15.6162 56.1616 16.1783 56.4617 16.7029 56.4617C18.052 56.4617 18.7513 55.5373 18.7513 54.4633V54.076H18.0395Z" fill="black"/>
<path d="M22.7366 57.1734C22.537 57.1734 22.4246 57.0735 22.4246 56.8614V48.7426C22.4246 48.5303 22.537 48.4306 22.7366 48.4306H23.0739C23.2737 48.4306 23.3862 48.5303 23.3862 48.7426V53.4265L25.5095 51.1533C25.6469 51.0036 25.834 50.9284 26.0341 50.9284H26.6462C26.8458 50.9284 26.8835 51.0036 26.7459 51.1533L24.2853 53.789L26.9208 56.9366C27.0584 57.099 27.0207 57.1739 26.8083 57.1739H26.259C26.0466 57.1739 25.8842 57.099 25.7468 56.9366L23.3862 54.1137V56.8619C23.3862 57.074 23.2737 57.1739 23.0739 57.1739H22.7366V57.1734Z" fill="black"/>
<path d="M29.3193 54.1382C29.3818 55.7247 30.3059 56.4614 31.4176 56.4614C31.8798 56.4614 32.2293 56.4115 32.5419 56.3115C32.7415 56.2366 32.8916 56.2863 32.9913 56.4614L33.0665 56.5863C33.1789 56.7737 33.129 56.9109 32.9413 56.9861C32.4294 57.1857 31.9048 57.2359 31.4176 57.2359C29.7937 57.2359 28.345 56.2241 28.345 54.0008C28.345 52.1523 29.3316 50.866 31.0179 50.866C32.8039 50.866 33.6034 52.2648 33.6908 53.826C33.7033 54.0258 33.6034 54.1382 33.3908 54.1382H29.3193ZM29.3318 53.4762H32.7292C32.6793 52.3772 31.9175 51.6402 31.0181 51.6402C30.1188 51.6402 29.3818 52.3772 29.3318 53.4762Z" fill="black"/>
<path d="M39.4875 56.2865C39.55 56.1616 39.6249 56.0992 39.7249 56.0992C39.7748 56.0992 39.8373 56.1117 39.8998 56.1491C40.2495 56.324 40.674 56.4614 41.0989 56.4614C41.7982 56.4614 42.2479 56.0867 42.2479 55.4746C42.2479 54.9877 41.9856 54.7129 41.1112 54.3756C40.3495 54.0883 39.5 53.6386 39.5 52.5396C39.5 51.4903 40.287 50.866 41.5484 50.866C42.0978 50.866 42.4975 50.9909 42.7723 51.1158C42.9597 51.2032 43.0097 51.3531 42.9222 51.5405L42.847 51.6779C42.7598 51.8653 42.6349 51.9153 42.4348 51.8401C42.185 51.7404 41.8355 51.6404 41.4857 51.6404C40.7737 51.6404 40.4739 52.0277 40.4739 52.5146C40.4739 53.1642 41.0108 53.389 41.6106 53.6138C42.3723 53.9012 43.2218 54.2384 43.2218 55.3999C43.2218 56.4489 42.4973 57.2359 41.011 57.2359C40.4864 57.2359 39.962 57.061 39.5622 56.8736C39.3749 56.7862 39.3374 56.6236 39.4246 56.4364L39.4875 56.2865Z" fill="black"/>
<path d="M46.6197 51.7026V55.2375C46.6197 56.0369 46.7821 56.4616 47.4442 56.4616C47.5566 56.4616 47.669 56.4489 47.7814 56.4242C47.9936 56.3742 48.1185 56.4492 48.1812 56.6365L48.2184 56.7614C48.2809 56.9611 48.2184 57.1112 48.0188 57.1612C47.7939 57.2111 47.5816 57.2361 47.3567 57.2361C46.1201 57.2361 45.6457 56.5368 45.6457 55.2377V51.7026H45.3084C45.1088 51.7026 44.9963 51.5902 44.9963 51.3903V51.2407C44.9963 51.0283 45.1088 50.9284 45.3084 50.9284H45.6457L45.8705 49.3675C45.8955 49.1676 46.0204 49.0552 46.2203 49.0552H46.3077C46.5073 49.0552 46.6197 49.1551 46.6197 49.3675V50.9284H47.6316C47.8439 50.9284 47.9436 51.0408 47.9436 51.2407V51.3903C47.9436 51.6027 47.8312 51.7026 47.6316 51.7026H46.6197Z" fill="black"/>
<path d="M54.4389 56.1491C54.0642 56.8112 53.3647 57.2359 52.3528 57.2359C51.2413 57.2359 50.292 56.699 50.292 55.4623C50.292 53.5764 52.4403 53.3765 53.6892 53.3765H54.4012V53.0765C54.4012 52.0522 53.6892 51.6402 52.8772 51.6402C52.2154 51.6402 51.7283 51.7778 51.2908 52.0774C51.2159 52.1274 51.1534 52.1399 51.1034 52.1399C51.0163 52.1399 50.9538 52.0899 50.8913 51.99L50.8039 51.865C50.704 51.6777 50.7414 51.5153 50.9038 51.4029C51.4532 51.0406 52.1902 50.866 52.8772 50.866C54.1639 50.866 55.3753 51.5028 55.3753 53.0765V56.8611C55.3753 57.0608 55.2629 57.1732 55.0633 57.1732H54.9758C54.7762 57.1732 54.651 57.0733 54.6011 56.8734L54.4389 56.1491ZM53.6892 54.076C52.865 54.076 51.2661 54.2756 51.2661 55.4623C51.2661 56.1616 51.8282 56.4617 52.3528 56.4617C53.7019 56.4617 54.4012 55.5373 54.4012 54.4633V54.076H53.6892Z" fill="black"/>
<path d="M59.0488 56.8614C59.0488 57.0735 58.9489 57.1734 58.7365 57.1734H58.3867C58.1744 57.1734 58.0747 57.061 58.0747 56.8614V51.2407C58.0747 51.0408 58.1744 50.9284 58.3867 50.9284H58.5366C58.7363 50.9284 58.8739 51.0284 58.9111 51.2285L59.0488 51.8655C59.4485 51.191 60.1478 50.8665 61.0347 50.8665C62.0837 50.8665 62.7083 51.3286 62.9831 52.0779C63.3701 51.2659 64.2695 50.8665 65.0812 50.8665C66.7423 50.8665 67.292 51.8655 67.292 53.3018V56.8616C67.292 57.0737 67.192 57.1737 66.9799 57.1737H66.6301C66.4178 57.1737 66.3179 57.0613 66.3179 56.8616V53.2893C66.3179 52.4399 66.143 51.6407 64.9316 51.6407C64.0696 51.6407 63.1705 52.3025 63.1705 53.8015V56.8616C63.1705 57.0737 63.0706 57.1737 62.8582 57.1737H62.5084C62.2963 57.1737 62.1964 57.0613 62.1964 56.8616V53.2893C62.1964 52.4399 62.0215 51.6407 60.8101 51.6407C59.9482 51.6407 59.049 52.3025 59.049 53.8015L59.0488 56.8614Z" fill="black"/>
<path d="M70.9653 51.99C71.4023 51.2157 72.0396 50.866 72.9137 50.866C74.5873 50.866 75.7363 52.1399 75.7363 54.0508C75.7363 55.962 74.5873 57.2359 72.9137 57.2359C72.0396 57.2359 71.4023 56.8861 70.9653 56.1117V59.3592C70.9653 59.5715 70.8654 59.6715 70.653 59.6715H70.3032C70.0909 59.6715 69.9912 59.5715 69.9912 59.3592V51.2407C69.9912 51.0284 70.1036 50.9284 70.3032 50.9284H70.4282C70.628 50.9284 70.7654 51.0284 70.8029 51.2285L70.9653 51.99ZM72.8638 51.6402C71.727 51.6402 70.9653 52.602 70.9653 54.0508C70.9653 55.4998 71.727 56.4617 72.8638 56.4617C74.0005 56.4617 74.7622 55.4998 74.7622 54.0508C74.7622 52.602 74.0005 51.6402 72.8638 51.6402Z" fill="black"/>
<path d="M77.8232 56.2865C77.8857 56.1616 77.9606 56.0992 78.0606 56.0992C78.1105 56.0992 78.173 56.1117 78.2355 56.1491C78.5852 56.324 79.0097 56.4614 79.4346 56.4614C80.1339 56.4614 80.5836 56.0867 80.5836 55.4746C80.5836 54.9877 80.3213 54.7129 79.4469 54.3756C78.6851 54.0883 77.8357 53.6386 77.8357 52.5396C77.8357 51.4903 78.6227 50.866 79.8841 50.866C80.4335 50.866 80.8332 50.9909 81.108 51.1158C81.2954 51.2032 81.3453 51.3531 81.2579 51.5405L81.1827 51.6779C81.0955 51.8653 80.9706 51.9153 80.7705 51.8401C80.5207 51.7404 80.1711 51.6404 79.8214 51.6404C79.1094 51.6404 78.8096 52.0277 78.8096 52.5146C78.8096 53.1642 79.3465 53.389 79.9463 53.6138C80.708 53.9012 81.5575 54.2384 81.5575 55.3999C81.5575 56.4489 80.833 57.2359 79.3467 57.2359C78.8221 57.2359 78.2977 57.061 77.8979 56.8736C77.7106 56.7862 77.6731 56.6236 77.7603 56.4364L77.8232 56.2865Z" fill="black"/>
<path d="M88.5034 51.99C88.9403 51.2157 89.5777 50.866 90.4518 50.866C92.1254 50.866 93.2744 52.1399 93.2744 54.0508C93.2744 55.962 92.1254 57.2359 90.4518 57.2359C89.5777 57.2359 88.9403 56.8861 88.5034 56.1117V59.3592C88.5034 59.5715 88.4035 59.6715 88.1911 59.6715H87.8413C87.629 59.6715 87.5293 59.5715 87.5293 59.3592V51.2407C87.5293 51.0284 87.6417 50.9284 87.8413 50.9284H87.9663C88.1661 50.9284 88.3035 51.0284 88.341 51.2285L88.5034 51.99ZM90.4019 51.6402C89.2651 51.6402 88.5034 52.602 88.5034 54.0508C88.5034 55.4998 89.2651 56.4617 90.4019 56.4617C91.5386 56.4617 92.3003 55.4998 92.3003 54.0508C92.3003 52.602 91.5386 51.6402 90.4019 51.6402Z" fill="black"/>
<path d="M96.3603 54.1382C96.4228 55.7247 97.3469 56.4614 98.4586 56.4614C98.9208 56.4614 99.2703 56.4115 99.5829 56.3115C99.7825 56.2366 99.9326 56.2863 100.032 56.4614L100.108 56.5863C100.22 56.7737 100.17 56.9109 99.9824 56.9861C99.4705 57.1857 98.9458 57.2359 98.4586 57.2359C96.8347 57.2359 95.386 56.2241 95.386 54.0008C95.386 52.1523 96.3726 50.866 98.0589 50.866C99.845 50.866 100.644 52.2648 100.732 53.826C100.744 54.0258 100.644 54.1382 100.432 54.1382H96.3603ZM96.3728 53.4762H99.7702C99.7203 52.3772 98.9585 51.6402 98.0592 51.6402C97.1598 51.6402 96.4228 52.3772 96.3728 53.4762Z" fill="black"/>
<path d="M103.493 57.1735C103.281 57.1735 103.181 57.061 103.181 56.8614V51.2407C103.181 51.0409 103.293 50.9284 103.493 50.9284H103.643C103.855 50.9284 103.98 51.0284 104.017 51.2285L104.155 51.8656C104.567 51.2162 104.917 50.9287 105.841 50.879C106.041 50.8665 106.153 50.9664 106.153 51.1788V51.3287C106.153 51.5283 106.053 51.6285 105.841 51.6534C104.455 51.8156 104.155 53.0522 104.155 54.4011V56.8619C104.155 57.0615 104.055 57.1739 103.843 57.1739H103.493V57.1735Z" fill="black"/>
<path d="M109.114 56.8614C109.114 57.0735 109.014 57.1734 108.801 57.1734H108.452C108.239 57.1734 108.14 57.061 108.14 56.8614V51.2407C108.14 51.0408 108.239 50.9284 108.452 50.9284H108.602C108.801 50.9284 108.939 51.0284 108.976 51.2285L109.114 51.8655C109.513 51.191 110.213 50.8665 111.1 50.8665C112.149 50.8665 112.773 51.3286 113.048 52.0779C113.435 51.2659 114.334 50.8665 115.146 50.8665C116.808 50.8665 117.357 51.8655 117.357 53.3018V56.8616C117.357 57.0737 117.257 57.1737 117.045 57.1737H116.695C116.483 57.1737 116.383 57.0613 116.383 56.8616V53.2893C116.383 52.4399 116.208 51.6407 114.996 51.6407C114.135 51.6407 113.235 52.3025 113.235 53.8015V56.8616C113.235 57.0737 113.136 57.1737 112.923 57.1737H112.573C112.361 57.1737 112.261 57.0613 112.261 56.8616V53.2893C112.261 52.4399 112.086 51.6407 110.875 51.6407C110.013 51.6407 109.114 52.3025 109.114 53.8015V56.8614H109.114Z" fill="black"/>
<path d="M123.879 56.1491C123.504 56.8112 122.804 57.2359 121.793 57.2359C120.681 57.2359 119.732 56.699 119.732 55.4623C119.732 53.5764 121.88 53.3765 123.129 53.3765H123.841V53.0765C123.841 52.0522 123.129 51.6402 122.317 51.6402C121.655 51.6402 121.168 51.7778 120.731 52.0774C120.656 52.1274 120.593 52.1399 120.543 52.1399C120.456 52.1399 120.393 52.0899 120.331 51.99L120.244 51.865C120.144 51.6777 120.181 51.5153 120.344 51.4029C120.893 51.0406 121.63 50.866 122.317 50.866C123.604 50.866 124.815 51.5028 124.815 53.0765V56.8611C124.815 57.0608 124.703 57.1732 124.503 57.1732H124.416C124.216 57.1732 124.091 57.0733 124.041 56.8734L123.879 56.1491ZM123.129 54.076C122.305 54.076 120.706 54.2756 120.706 55.4623C120.706 56.1616 121.268 56.4617 121.793 56.4617C123.142 56.4617 123.841 55.5373 123.841 54.4633V54.076H123.129Z" fill="black"/>
<path d="M128.488 56.8614C128.488 57.0735 128.388 57.1734 128.176 57.1734H127.826C127.614 57.1734 127.514 57.061 127.514 56.8614V51.2407C127.514 51.0408 127.614 50.9284 127.826 50.9284H127.976C128.175 50.9284 128.313 51.0284 128.35 51.2285L128.488 51.8655C128.888 51.191 129.649 50.8665 130.399 50.8665C132.06 50.8665 132.61 51.8655 132.61 53.3018V56.8616C132.61 57.0737 132.51 57.1737 132.297 57.1737H131.948C131.736 57.1737 131.636 57.0613 131.636 56.8616V53.2893C131.636 52.4399 131.461 51.6407 130.249 51.6407C129.387 51.6407 128.488 52.3025 128.488 53.8015L128.488 56.8614Z" fill="black"/>
<path d="M135.958 54.1382C136.02 55.7247 136.945 56.4614 138.056 56.4614C138.518 56.4614 138.868 56.4115 139.18 56.3115C139.38 56.2366 139.53 56.2863 139.63 56.4614L139.705 56.5863C139.818 56.7737 139.768 56.9109 139.58 56.9861C139.068 57.1857 138.543 57.2359 138.056 57.2359C136.432 57.2359 134.984 56.2241 134.984 54.0008C134.984 52.1523 135.97 50.866 137.657 50.866C139.443 50.866 140.242 52.2648 140.329 53.826C140.342 54.0258 140.242 54.1382 140.029 54.1382H135.958ZM135.97 53.4762H139.368C139.318 52.3772 138.556 51.6402 137.657 51.6402C136.757 51.6402 136.02 52.3772 135.97 53.4762Z" fill="black"/>
<path d="M143.752 56.8614C143.752 57.0735 143.652 57.1734 143.44 57.1734H143.09C142.878 57.1734 142.778 57.061 142.778 56.8614V51.2407C142.778 51.0408 142.878 50.9284 143.09 50.9284H143.24C143.44 50.9284 143.578 51.0284 143.615 51.2285L143.752 51.8655C144.152 51.191 144.914 50.8665 145.663 50.8665C147.324 50.8665 147.874 51.8655 147.874 53.3018V56.8616C147.874 57.0737 147.774 57.1737 147.562 57.1737H147.212C147 57.1737 146.9 57.0613 146.9 56.8616V53.2893C146.9 52.4399 146.725 51.6407 145.514 51.6407C144.652 51.6407 143.753 52.3025 143.753 53.8015V56.8614H143.752Z" fill="black"/>
<path d="M151.572 51.7026V55.2375C151.572 56.0369 151.734 56.4616 152.396 56.4616C152.509 56.4616 152.621 56.4489 152.734 56.4242C152.946 56.3742 153.071 56.4492 153.133 56.6365L153.171 56.7614C153.233 56.9611 153.171 57.1112 152.971 57.1612C152.746 57.2111 152.534 57.2361 152.309 57.2361C151.072 57.2361 150.598 56.5368 150.598 55.2377V51.7026H150.261C150.061 51.7026 149.948 51.5902 149.948 51.3903V51.2407C149.948 51.0283 150.061 50.9284 150.261 50.9284H150.598L150.823 49.3675C150.848 49.1676 150.973 49.0552 151.172 49.0552H151.26C151.459 49.0552 151.572 49.1551 151.572 49.3675V50.9284H152.584C152.796 50.9284 152.896 51.0408 152.896 51.2407V51.3903C152.896 51.6027 152.783 51.7026 152.584 51.7026H151.572Z" fill="black"/>
</g>
<path fill-rule="evenodd" clip-rule="evenodd" d="M124.735 12.7491C124.934 12.1539 125.356 11.9479 125.971 11.9489C132.769 11.9594 144.297 11.9555 151.095 11.9555C151.192 11.9555 151.291 11.9555 151.448 11.9555C151.349 11.8524 151.287 11.7843 151.221 11.7186C150.15 10.6517 149.08 9.58456 148.007 8.51911C147.716 8.23033 147.62 7.88522 147.735 7.49823C147.841 7.13916 148.095 6.90942 148.462 6.82516C148.842 6.73797 149.157 6.86607 149.428 7.13623C150.627 8.33149 151.829 9.52455 153.03 10.7183C153.474 11.1612 153.93 11.5942 154.359 12.0522C154.552 12.258 154.69 12.5149 154.852 12.7486C154.852 12.8811 154.852 13.0131 154.852 13.1454C154.69 13.3793 154.557 13.6431 154.36 13.8419C152.728 15.4813 151.085 17.1093 149.445 18.7391C149.007 19.1743 148.439 19.2148 148.026 18.8471C147.585 18.4547 147.572 17.8133 148.008 17.3763C149.077 16.3067 150.15 15.2417 151.222 14.1768C151.286 14.1141 151.366 14.0688 151.439 14.0156C151.427 13.9901 151.414 13.9644 151.402 13.9384C151.307 13.9384 151.213 13.9384 151.12 13.9384C144.313 13.9384 132.778 13.9348 125.972 13.9453C125.357 13.946 124.935 13.7401 124.735 13.1451C124.735 13.0136 124.735 12.8816 124.735 12.7491Z" fill="#0FAE96"/>
<path fill-rule="evenodd" clip-rule="evenodd" d="M124.882 29.4499C125.082 28.8547 125.504 28.6487 126.118 28.6494C132.917 28.6602 144.444 28.656 151.243 28.656C151.34 28.656 151.438 28.656 151.596 28.656C151.497 28.5529 151.435 28.4848 151.368 28.4192C150.298 27.3525 149.227 26.2851 148.155 25.2199C147.864 24.9311 147.768 24.5858 147.883 24.199C147.989 23.8397 148.242 23.6102 148.61 23.5257C148.99 23.4385 149.304 23.5666 149.576 23.8368C150.775 25.032 151.977 26.2254 153.177 27.4189C153.622 27.8617 154.078 28.2948 154.507 28.7528C154.699 28.9585 154.837 29.2155 155 29.4494C155 29.5816 155 29.7139 155 29.8459C154.837 30.0798 154.705 30.3434 154.507 30.5425C152.875 32.1818 151.233 33.8099 149.593 35.4397C149.154 35.8749 148.586 35.9153 148.174 35.5477C147.733 35.1553 147.72 34.5138 148.156 34.0769C149.225 33.0072 150.297 31.942 151.37 30.8773C151.433 30.8146 151.514 30.7696 151.587 30.7162C151.574 30.6907 151.561 30.6652 151.549 30.6393C151.455 30.6393 151.36 30.6393 151.268 30.6393C144.461 30.6393 132.926 30.6353 126.119 30.6464C125.505 30.6468 125.083 30.4406 124.883 29.8459C124.882 29.7144 124.882 29.5821 124.882 29.4499Z" fill="#0FAE96"/>
<path fill-rule="evenodd" clip-rule="evenodd" d="M74.4849 21.4688C74.6847 20.8736 75.1067 20.6679 75.721 20.6686C82.5196 20.6791 86.9526 20.6752 93.7509 20.6752C93.8484 20.6752 93.9466 20.6752 94.1046 20.6752C94.0056 20.5721 93.9432 20.504 93.8768 20.4384C92.8059 19.3714 91.7356 18.3043 90.663 17.2388C90.3721 16.9501 90.2765 16.605 90.3912 16.2182C90.4975 15.8589 90.751 15.6294 91.1184 15.5449C91.4985 15.4577 91.8128 15.5858 92.0844 15.856C93.2836 17.0512 94.4852 18.2443 95.6861 19.4381C96.1304 19.8809 96.5865 20.3139 97.0151 20.7722C97.2079 20.9777 97.3457 21.2346 97.5084 21.4685C97.5084 21.6011 97.5084 21.7331 97.5084 21.8653C97.3457 22.0992 97.2132 22.363 97.0156 22.5619C95.3838 24.2012 93.7413 25.8293 92.101 27.4591C91.6629 27.8943 91.0949 27.9347 90.6822 27.5671C90.2415 27.1747 90.2283 26.5332 90.6645 26.0963C91.7329 25.0267 92.8057 23.9617 93.8783 22.8967C93.9417 22.834 94.0225 22.7887 94.0953 22.7356C94.0828 22.7101 94.0698 22.6846 94.0578 22.6584C93.9635 22.6584 93.869 22.6584 93.7761 22.6584C86.9695 22.6584 82.5282 22.6547 75.7218 22.6653C75.1075 22.666 74.6857 22.46 74.4851 21.8651C74.4849 21.7333 74.4849 21.6013 74.4849 21.4688Z" fill="#0FAE96"/>
</svg>
