<svg width="155" height="60" viewBox="0 0 155 60" fill="none" xmlns="http://www.w3.org/2000/svg">
<path d="M134.003 35.6966C134.003 38.9618 131.356 41.6085 128.091 41.6085H94.1971C90.9316 41.6085 88.2852 38.9618 88.2852 35.6966V7.91165C88.2852 4.64672 90.9316 2 94.1971 2H128.091C131.356 2 134.003 4.64672 134.003 7.91165V35.6966Z" stroke="white" stroke-width="4" stroke-miterlimit="10"/>
<path d="M111.341 24.7602C111.341 25.9031 110.456 26.8294 109.363 26.8294H100.51C99.4177 26.8294 98.5322 25.9031 98.5322 24.7602V18.2573C98.5322 17.1144 99.4177 16.1881 100.51 16.1881H109.363C110.456 16.1881 111.341 17.1144 111.341 18.2573V24.7602Z" fill="#9B9B9B"/>
<path d="M128.978 16.4835C128.978 17.6263 128.092 18.5524 127 18.5524H118.147C117.054 18.5524 116.169 17.6261 116.169 16.4835V9.98055C116.169 8.83771 117.054 7.91138 118.147 7.91138H127C128.092 7.91138 128.978 8.83771 128.978 9.98055V16.4835Z" fill="#9B9B9B"/>
<path d="M129.175 32.6421C129.175 33.7849 128.29 34.7113 127.197 34.7113H118.344C117.251 34.7113 116.366 33.7849 116.366 32.6421V26.1392C116.366 24.9963 117.251 24.07 118.344 24.07H127.197C128.29 24.07 129.175 24.9963 129.175 26.1392V32.6421Z" fill="#9B9B9B"/>
<path d="M0 10.5804C0 9.78123 0.430344 9.35089 1.2298 9.35089H2.98179C3.78124 9.35089 4.21159 9.78123 4.21159 10.5804V23.3989C4.21159 26.1963 6.20949 27.6717 8.36121 27.6717C10.5129 27.6717 12.5111 26.1963 12.5111 23.3989V10.5804C12.5111 9.78123 12.9414 9.35089 13.7409 9.35089H15.4929C16.2921 9.35089 16.7227 9.78123 16.7227 10.5804V23.3989C16.7227 27.9483 13.8944 31.0224 8.36121 31.0224C2.82822 31.0224 0 27.9483 0 23.3989V10.5804Z" fill="white"/>
<path d="M34.214 9.35089C35.0135 9.35089 35.4438 9.78124 35.4438 10.5804V11.472C35.4438 12.2712 35.0135 12.7018 34.214 12.7018H29.7568V29.6393C29.7568 30.4385 29.3264 30.8691 28.5272 30.8691H26.775C25.9758 30.8691 25.5455 30.4385 25.5455 29.6393V12.7015H21.0882C20.289 12.7015 19.8584 12.2712 19.8584 11.4717V10.5802C19.8584 9.78099 20.289 9.35065 21.0882 9.35065L34.214 9.35089Z" fill="white"/>
<path d="M43.6827 20.0789L37.3502 10.3652C36.9196 9.6889 37.1041 9.35065 37.9035 9.35065H39.9629C40.7624 9.35065 41.4384 9.71951 41.8687 10.3958L46.3571 17.2815L50.8449 10.3958C51.2753 9.71951 51.9515 9.35065 52.7508 9.35065H54.8101C55.6096 9.35065 55.794 9.68865 55.3637 10.3652L49.0312 20.0789L55.5172 29.8541C55.9785 30.5306 55.7632 30.8688 54.9639 30.8688H52.9043C52.1051 30.8688 51.4291 30.5306 50.9679 29.8541L46.3571 23.153L41.746 29.8541C41.285 30.5306 40.6085 30.8688 39.8096 30.8688H37.75C36.9507 30.8688 36.7354 30.5306 37.1967 29.8541L43.6827 20.0789Z" fill="white"/>
<path d="M66.738 9.19708C72.6708 9.19708 76.5747 13.5314 76.5747 20.1097C76.5747 26.6881 72.6708 31.0224 66.738 31.0224C60.8051 31.0224 56.9014 26.6881 56.9014 20.1097C56.9014 13.5314 60.8051 9.19708 66.738 9.19708ZM66.738 27.6717C70.0887 27.6717 72.3634 24.6899 72.3634 20.1097C72.3634 15.5295 70.0887 12.5477 66.738 12.5477C63.3874 12.5477 61.1127 15.5295 61.1127 20.1097C61.1127 24.6899 63.3874 27.6717 66.738 27.6717Z" fill="white"/>
<g opacity="0.9">
<path d="M4.02487 56.8614C4.02487 57.0735 3.92494 57.1734 3.71258 57.1734H3.36282C3.15047 57.1734 3.05078 57.061 3.05078 56.8614V51.2407C3.05078 51.0408 3.15047 50.9284 3.36282 50.9284H3.51272C3.71234 50.9284 3.84999 51.0284 3.88722 51.2285L4.02487 51.8655C4.4246 51.191 5.12388 50.8665 6.01077 50.8665C7.05981 50.8665 7.68438 51.3286 7.9592 52.0779C8.34619 51.2659 9.24558 50.8665 10.0573 50.8665C11.7184 50.8665 12.268 51.8655 12.268 53.3018V56.8616C12.268 57.0737 12.1681 57.1737 11.956 57.1737H11.6062C11.3939 57.1737 11.2939 57.0613 11.2939 56.8616V53.2893C11.2939 52.4399 11.1191 51.6407 9.90762 51.6407C9.04571 51.6407 8.14657 52.3025 8.14657 53.8015V56.8616C8.14657 57.0737 8.04664 57.1737 7.83428 57.1737H7.48452C7.27241 57.1737 7.17248 57.0613 7.17248 56.8616V53.2893C7.17248 52.4399 6.9976 51.6407 5.78617 51.6407C4.92426 51.6407 4.02512 52.3025 4.02512 53.8015V56.8614H4.02487Z" fill="white"/>
<path d="M18.7895 56.1491C18.4148 56.8112 17.7152 57.2359 16.7034 57.2359C15.5919 57.2359 14.6426 56.699 14.6426 55.4623C14.6426 53.5764 16.7909 53.3765 18.04 53.3765H18.7518V53.0765C18.7518 52.0522 18.04 51.6402 17.2278 51.6402C16.566 51.6402 16.0789 51.7778 15.6417 52.0774C15.5665 52.1274 15.504 52.1399 15.454 52.1399C15.3668 52.1399 15.3044 52.0899 15.2417 51.99L15.1545 51.865C15.0546 51.6777 15.092 51.5153 15.2544 51.4029C15.8038 51.0406 16.5408 50.866 17.2278 50.866C18.5144 50.866 19.7259 51.5028 19.7259 53.0765V56.8611C19.7259 57.0608 19.6135 57.1732 19.4138 57.1732H19.3264C19.1268 57.1732 19.0016 57.0733 18.9516 56.8734L18.7895 56.1491ZM18.0403 54.076C17.2158 54.076 15.6169 54.2756 15.6169 55.4623C15.6169 56.1616 16.179 56.4617 16.7037 56.4617C18.0528 56.4617 18.752 55.5373 18.752 54.4633V54.076H18.0403Z" fill="white"/>
<path d="M22.7368 57.1734C22.5372 57.1734 22.4248 57.0735 22.4248 56.8614V48.7426C22.4248 48.5303 22.5372 48.4306 22.7368 48.4306H23.0741C23.274 48.4306 23.3864 48.5303 23.3864 48.7426V53.4265L25.5097 51.1533C25.6471 51.0036 25.8342 50.9284 26.0344 50.9284H26.6464C26.8461 50.9284 26.8838 51.0036 26.7461 51.1533L24.2855 53.789L26.921 56.9366C27.0587 57.099 27.0209 57.1739 26.8086 57.1739H26.2592C26.0468 57.1739 25.8845 57.099 25.747 56.9366L23.3864 54.1137V56.8619C23.3864 57.074 23.274 57.1739 23.0741 57.1739H22.7368V57.1734Z" fill="white"/>
<path d="M29.32 54.1382C29.3825 55.7247 30.3066 56.4614 31.4184 56.4614C31.8805 56.4614 32.2301 56.4115 32.5426 56.3115C32.7422 56.2366 32.8924 56.2863 32.992 56.4614L33.0672 56.5863C33.1797 56.7737 33.1297 56.9109 32.9421 56.9861C32.4302 57.1857 31.9055 57.2359 31.4184 57.2359C29.7945 57.2359 28.3457 56.2241 28.3457 54.0008C28.3457 52.1523 29.3323 50.866 31.0186 50.866C32.8047 50.866 33.6041 52.2648 33.6916 53.826C33.7041 54.0258 33.6041 54.1382 33.3915 54.1382H29.32ZM29.3325 53.4762H32.73C32.68 52.3772 31.9183 51.6402 31.0189 51.6402C30.1195 51.6402 29.3825 52.3772 29.3325 53.4762Z" fill="white"/>
<path d="M39.4885 56.2865C39.551 56.1616 39.6259 56.0992 39.7259 56.0992C39.7758 56.0992 39.8383 56.1117 39.9007 56.1491C40.2505 56.324 40.675 56.4614 41.0999 56.4614C41.7992 56.4614 42.2489 56.0867 42.2489 55.4746C42.2489 54.9877 41.9866 54.7129 41.1122 54.3756C40.3504 54.0883 39.501 53.6386 39.501 52.5396C39.501 51.4903 40.288 50.866 41.5494 50.866C42.0988 50.866 42.4985 50.9909 42.7733 51.1158C42.9607 51.2032 43.0106 51.3531 42.9232 51.5405L42.848 51.6779C42.7608 51.8653 42.6359 51.9153 42.4358 51.8401C42.1859 51.7404 41.8364 51.6404 41.4867 51.6404C40.7747 51.6404 40.4749 52.0277 40.4749 52.5146C40.4749 53.1642 41.0117 53.389 41.6116 53.6138C42.3733 53.9012 43.2227 54.2384 43.2227 55.3999C43.2227 56.4489 42.4982 57.2359 41.012 57.2359C40.4874 57.2359 39.963 57.061 39.5632 56.8736C39.3759 56.7862 39.3384 56.6236 39.4256 56.4364L39.4885 56.2865Z" fill="white"/>
<path d="M46.6205 51.7026V55.2375C46.6205 56.0369 46.7829 56.4616 47.4449 56.4616C47.5573 56.4616 47.6698 56.4489 47.7822 56.4242C47.9943 56.3742 48.1192 56.4492 48.1819 56.6365L48.2191 56.7614C48.2816 56.9611 48.2191 57.1112 48.0195 57.1612C47.7947 57.2111 47.5823 57.2361 47.3575 57.2361C46.1208 57.2361 45.6464 56.5368 45.6464 55.2377V51.7026H45.3091C45.1095 51.7026 44.9971 51.5902 44.9971 51.3903V51.2407C44.9971 51.0283 45.1095 50.9284 45.3091 50.9284H45.6464L45.8712 49.3675C45.8962 49.1676 46.0211 49.0552 46.221 49.0552H46.3084C46.5081 49.0552 46.6205 49.1551 46.6205 49.3675V50.9284H47.6323C47.8446 50.9284 47.9443 51.0408 47.9443 51.2407V51.3903C47.9443 51.6027 47.8319 51.7026 47.6323 51.7026H46.6205Z" fill="white"/>
<path d="M54.4399 56.1491C54.0652 56.8112 53.3656 57.2359 52.3538 57.2359C51.2423 57.2359 50.293 56.699 50.293 55.4623C50.293 53.5764 52.4413 53.3765 53.6902 53.3765H54.4022V53.0765C54.4022 52.0522 53.6902 51.6402 52.8782 51.6402C52.2164 51.6402 51.7292 51.7778 51.2918 52.0774C51.2168 52.1274 51.1544 52.1399 51.1044 52.1399C51.0172 52.1399 50.9548 52.0899 50.8923 51.99L50.8049 51.865C50.7049 51.6777 50.7424 51.5153 50.9048 51.4029C51.4542 51.0406 52.1912 50.866 52.8782 50.866C54.1648 50.866 55.3763 51.5028 55.3763 53.0765V56.8611C55.3763 57.0608 55.2638 57.1732 55.0642 57.1732H54.9768C54.7772 57.1732 54.652 57.0733 54.602 56.8734L54.4399 56.1491ZM53.6902 54.076C52.866 54.076 51.2671 54.2756 51.2671 55.4623C51.2671 56.1616 51.8292 56.4617 52.3538 56.4617C53.7029 56.4617 54.4022 55.5373 54.4022 54.4633V54.076H53.6902Z" fill="white"/>
<path d="M59.0493 56.8614C59.0493 57.0735 58.9494 57.1734 58.737 57.1734H58.3872C58.1749 57.1734 58.0752 57.061 58.0752 56.8614V51.2407C58.0752 51.0408 58.1749 50.9284 58.3872 50.9284H58.5371C58.7368 50.9284 58.8744 51.0284 58.9116 51.2285L59.0493 51.8655C59.449 51.191 60.1483 50.8665 61.0352 50.8665C62.0842 50.8665 62.7088 51.3286 62.9836 52.0779C63.3706 51.2659 64.27 50.8665 65.0817 50.8665C66.7428 50.8665 67.2924 51.8655 67.2924 53.3018V56.8616C67.2924 57.0737 67.1925 57.1737 66.9804 57.1737H66.6306C66.4183 57.1737 66.3183 57.0613 66.3183 56.8616V53.2893C66.3183 52.4399 66.1435 51.6407 64.932 51.6407C64.0701 51.6407 63.171 52.3025 63.171 53.8015V56.8616C63.171 57.0737 63.0711 57.1737 62.8587 57.1737H62.5089C62.2968 57.1737 62.1969 57.0613 62.1969 56.8616V53.2893C62.1969 52.4399 62.022 51.6407 60.8106 51.6407C59.9487 51.6407 59.0495 52.3025 59.0495 53.8015L59.0493 56.8614Z" fill="white"/>
<path d="M70.9663 51.99C71.4032 51.2157 72.0405 50.866 72.9147 50.866C74.5883 50.866 75.7373 52.1399 75.7373 54.0508C75.7373 55.962 74.5883 57.2359 72.9147 57.2359C72.0405 57.2359 71.4032 56.8861 70.9663 56.1117V59.3592C70.9663 59.5715 70.8663 59.6715 70.654 59.6715H70.3042C70.0919 59.6715 69.9922 59.5715 69.9922 59.3592V51.2407C69.9922 51.0284 70.1046 50.9284 70.3042 50.9284H70.4291C70.629 50.9284 70.7664 51.0284 70.8039 51.2285L70.9663 51.99ZM72.8647 51.6402C71.728 51.6402 70.9663 52.602 70.9663 54.0508C70.9663 55.4998 71.728 56.4617 72.8647 56.4617C74.0015 56.4617 74.7632 55.4998 74.7632 54.0508C74.7632 52.602 74.0015 51.6402 72.8647 51.6402Z" fill="white"/>
<path d="M77.8235 56.2865C77.8859 56.1616 77.9609 56.0992 78.0608 56.0992C78.1108 56.0992 78.1732 56.1117 78.2357 56.1491C78.5855 56.324 79.0099 56.4614 79.4349 56.4614C80.1342 56.4614 80.5839 56.0867 80.5839 55.4746C80.5839 54.9877 80.3215 54.7129 79.4471 54.3756C78.6854 54.0883 77.836 53.6386 77.836 52.5396C77.836 51.4903 78.6229 50.866 79.8843 50.866C80.4337 50.866 80.8334 50.9909 81.1083 51.1158C81.2956 51.2032 81.3456 51.3531 81.2582 51.5405L81.183 51.6779C81.0958 51.8653 80.9708 51.9153 80.7707 51.8401C80.5209 51.7404 80.1714 51.6404 79.8216 51.6404C79.1096 51.6404 78.8098 52.0277 78.8098 52.5146C78.8098 53.1642 79.3467 53.389 79.9465 53.6138C80.7083 53.9012 81.5577 54.2384 81.5577 55.3999C81.5577 56.4489 80.8332 57.2359 79.347 57.2359C78.8223 57.2359 78.2979 57.061 77.8982 56.8736C77.7108 56.7862 77.6733 56.6236 77.7605 56.4364L77.8235 56.2865Z" fill="white"/>
<path d="M88.5044 51.99C88.9413 51.2157 89.5786 50.866 90.4528 50.866C92.1264 50.866 93.2754 52.1399 93.2754 54.0508C93.2754 55.962 92.1264 57.2359 90.4528 57.2359C89.5786 57.2359 88.9413 56.8861 88.5044 56.1117V59.3592C88.5044 59.5715 88.4044 59.6715 88.1921 59.6715H87.8423C87.63 59.6715 87.5303 59.5715 87.5303 59.3592V51.2407C87.5303 51.0284 87.6427 50.9284 87.8423 50.9284H87.9672C88.1671 50.9284 88.3045 51.0284 88.342 51.2285L88.5044 51.99ZM90.4028 51.6402C89.2661 51.6402 88.5044 52.602 88.5044 54.0508C88.5044 55.4998 89.2661 56.4617 90.4028 56.4617C91.5396 56.4617 92.3013 55.4998 92.3013 54.0508C92.3013 52.602 91.5396 51.6402 90.4028 51.6402Z" fill="white"/>
<path d="M96.3611 54.1382C96.4235 55.7247 97.3476 56.4614 98.4594 56.4614C98.9216 56.4614 99.2711 56.4115 99.5836 56.3115C99.7832 56.2366 99.9334 56.2863 100.033 56.4614L100.108 56.5863C100.221 56.7737 100.171 56.9109 99.9831 56.9861C99.4712 57.1857 98.9465 57.2359 98.4594 57.2359C96.8355 57.2359 95.3867 56.2241 95.3867 54.0008C95.3867 52.1523 96.3733 50.866 98.0596 50.866C99.8457 50.866 100.645 52.2648 100.733 53.826C100.745 54.0258 100.645 54.1382 100.433 54.1382H96.3611ZM96.3735 53.4762H99.771C99.721 52.3772 98.9593 51.6402 98.0599 51.6402C97.1605 51.6402 96.4235 52.3772 96.3735 53.4762Z" fill="white"/>
<path d="M103.494 57.1735C103.281 57.1735 103.182 57.061 103.182 56.8614V51.2407C103.182 51.0409 103.294 50.9284 103.494 50.9284H103.644C103.856 50.9284 103.981 51.0284 104.018 51.2285L104.156 51.8656C104.568 51.2162 104.917 50.9287 105.842 50.879C106.042 50.8665 106.154 50.9664 106.154 51.1788V51.3287C106.154 51.5283 106.054 51.6285 105.842 51.6534C104.456 51.8156 104.156 53.0522 104.156 54.4011V56.8619C104.156 57.0615 104.056 57.1739 103.843 57.1739H103.494V57.1735Z" fill="white"/>
<path d="M109.115 56.8614C109.115 57.0735 109.015 57.1734 108.802 57.1734H108.453C108.24 57.1734 108.141 57.061 108.141 56.8614V51.2407C108.141 51.0408 108.24 50.9284 108.453 50.9284H108.603C108.802 50.9284 108.94 51.0284 108.977 51.2285L109.115 51.8655C109.514 51.191 110.214 50.8665 111.101 50.8665C112.15 50.8665 112.774 51.3286 113.049 52.0779C113.436 51.2659 114.335 50.8665 115.147 50.8665C116.808 50.8665 117.358 51.8655 117.358 53.3018V56.8616C117.358 57.0737 117.258 57.1737 117.046 57.1737H116.696C116.484 57.1737 116.384 57.0613 116.384 56.8616V53.2893C116.384 52.4399 116.209 51.6407 114.997 51.6407C114.136 51.6407 113.236 52.3025 113.236 53.8015V56.8616C113.236 57.0737 113.136 57.1737 112.924 57.1737H112.574C112.362 57.1737 112.262 57.0613 112.262 56.8616V53.2893C112.262 52.4399 112.087 51.6407 110.876 51.6407C110.014 51.6407 109.115 52.3025 109.115 53.8015V56.8614H109.115Z" fill="white"/>
<path d="M123.879 56.1491C123.505 56.8112 122.805 57.2359 121.793 57.2359C120.682 57.2359 119.732 56.699 119.732 55.4623C119.732 53.5764 121.881 53.3765 123.13 53.3765H123.842V53.0765C123.842 52.0522 123.13 51.6402 122.318 51.6402C121.656 51.6402 121.169 51.7778 120.731 52.0774C120.656 52.1274 120.594 52.1399 120.544 52.1399C120.457 52.1399 120.394 52.0899 120.332 51.99L120.244 51.865C120.144 51.6777 120.182 51.5153 120.344 51.4029C120.894 51.0406 121.631 50.866 122.318 50.866C123.604 50.866 124.816 51.5028 124.816 53.0765V56.8611C124.816 57.0608 124.703 57.1732 124.504 57.1732H124.416C124.217 57.1732 124.091 57.0733 124.041 56.8734L123.879 56.1491ZM123.13 54.076C122.305 54.076 120.707 54.2756 120.707 55.4623C120.707 56.1616 121.269 56.4617 121.793 56.4617C123.142 56.4617 123.842 55.5373 123.842 54.4633V54.076H123.13Z" fill="white"/>
<path d="M128.489 56.8614C128.489 57.0735 128.389 57.1734 128.176 57.1734H127.827C127.614 57.1734 127.515 57.061 127.515 56.8614V51.2407C127.515 51.0408 127.614 50.9284 127.827 50.9284H127.977C128.176 50.9284 128.314 51.0284 128.351 51.2285L128.489 51.8655C128.888 51.191 129.65 50.8665 130.4 50.8665C132.061 50.8665 132.61 51.8655 132.61 53.3018V56.8616C132.61 57.0737 132.51 57.1737 132.298 57.1737H131.948C131.736 57.1737 131.636 57.0613 131.636 56.8616V53.2893C131.636 52.4399 131.461 51.6407 130.25 51.6407C129.388 51.6407 128.489 52.3025 128.489 53.8015L128.489 56.8614Z" fill="white"/>
<path d="M135.959 54.1382C136.021 55.7247 136.945 56.4614 138.057 56.4614C138.519 56.4614 138.869 56.4115 139.181 56.3115C139.381 56.2366 139.531 56.2863 139.631 56.4614L139.706 56.5863C139.818 56.7737 139.768 56.9109 139.581 56.9861C139.069 57.1857 138.544 57.2359 138.057 57.2359C136.433 57.2359 134.984 56.2241 134.984 54.0008C134.984 52.1523 135.971 50.866 137.657 50.866C139.443 50.866 140.243 52.2648 140.33 53.826C140.343 54.0258 140.243 54.1382 140.03 54.1382H135.959ZM135.971 53.4762H139.369C139.319 52.3772 138.557 51.6402 137.658 51.6402C136.758 51.6402 136.021 52.3772 135.971 53.4762Z" fill="white"/>
<path d="M143.753 56.8614C143.753 57.0735 143.653 57.1734 143.441 57.1734H143.091C142.879 57.1734 142.779 57.061 142.779 56.8614V51.2407C142.779 51.0408 142.879 50.9284 143.091 50.9284H143.241C143.441 50.9284 143.579 51.0284 143.616 51.2285L143.753 51.8655C144.153 51.191 144.915 50.8665 145.664 50.8665C147.325 50.8665 147.875 51.8655 147.875 53.3018V56.8616C147.875 57.0737 147.775 57.1737 147.563 57.1737H147.213C147.001 57.1737 146.901 57.0613 146.901 56.8616V53.2893C146.901 52.4399 146.726 51.6407 145.515 51.6407C144.653 51.6407 143.754 52.3025 143.754 53.8015V56.8614H143.753Z" fill="white"/>
<path d="M151.573 51.7026V55.2375C151.573 56.0369 151.735 56.4616 152.397 56.4616C152.509 56.4616 152.622 56.4489 152.734 56.4242C152.946 56.3742 153.071 56.4492 153.134 56.6365L153.171 56.7614C153.234 56.9611 153.171 57.1112 152.972 57.1612C152.747 57.2111 152.534 57.2361 152.31 57.2361C151.073 57.2361 150.599 56.5368 150.599 55.2377V51.7026H150.261C150.062 51.7026 149.949 51.5902 149.949 51.3903V51.2407C149.949 51.0283 150.062 50.9284 150.261 50.9284H150.599L150.823 49.3675C150.849 49.1676 150.973 49.0552 151.173 49.0552H151.261C151.46 49.0552 151.573 49.1551 151.573 49.3675V50.9284H152.584C152.797 50.9284 152.896 51.0408 152.896 51.2407V51.3903C152.896 51.6027 152.784 51.7026 152.584 51.7026H151.573Z" fill="white"/>
</g>
<path fill-rule="evenodd" clip-rule="evenodd" d="M124.734 12.7491C124.934 12.1539 125.356 11.9479 125.97 11.9489C132.769 11.9594 144.296 11.9555 151.094 11.9555C151.192 11.9555 151.29 11.9555 151.448 11.9555C151.349 11.8524 151.287 11.7843 151.22 11.7186C150.149 10.6517 149.079 9.58456 148.006 8.51911C147.716 8.23033 147.62 7.88522 147.735 7.49823C147.841 7.13916 148.094 6.90942 148.462 6.82516C148.842 6.73797 149.156 6.86607 149.428 7.13623C150.627 8.33149 151.829 9.52455 153.03 10.7183C153.474 11.1612 153.93 11.5942 154.359 12.0522C154.551 12.258 154.689 12.5149 154.852 12.7486C154.852 12.8811 154.852 13.0131 154.852 13.1454C154.689 13.3793 154.557 13.6431 154.359 13.8419C152.727 15.4813 151.085 17.1093 149.444 18.7391C149.006 19.1743 148.438 19.2148 148.026 18.8471C147.585 18.4547 147.572 17.8133 148.008 17.3763C149.076 16.3067 150.149 15.2417 151.222 14.1768C151.285 14.1141 151.366 14.0688 151.439 14.0156C151.426 13.9901 151.413 13.9644 151.401 13.9384C151.307 13.9384 151.212 13.9384 151.12 13.9384C144.313 13.9384 132.777 13.9348 125.971 13.9453C125.357 13.946 124.935 13.7401 124.735 13.1451C124.734 13.0136 124.734 12.8816 124.734 12.7491Z" fill="#9B9B9B"/>
<path fill-rule="evenodd" clip-rule="evenodd" d="M124.882 29.4499C125.081 28.8547 125.504 28.6487 126.118 28.6494C132.917 28.6602 144.444 28.656 151.242 28.656C151.34 28.656 151.438 28.656 151.595 28.656C151.497 28.5529 151.434 28.4848 151.368 28.4192C150.297 27.3525 149.227 26.2851 148.154 25.2199C147.863 24.9311 147.768 24.5858 147.882 24.199C147.989 23.8397 148.242 23.6102 148.61 23.5257C148.99 23.4385 149.304 23.5666 149.576 23.8368C150.775 25.032 151.976 26.2254 153.177 27.4189C153.622 27.8617 154.078 28.2948 154.506 28.7528C154.699 28.9585 154.837 29.2155 155 29.4494C155 29.5816 155 29.7139 155 29.8459C154.837 30.0798 154.704 30.3434 154.507 30.5425C152.875 32.1818 151.232 33.8099 149.592 35.4397C149.154 35.8749 148.586 35.9153 148.173 35.5477C147.732 35.1553 147.719 34.5138 148.155 34.0769C149.224 33.0072 150.297 31.942 151.369 30.8773C151.433 30.8146 151.513 30.7696 151.586 30.7162C151.574 30.6907 151.561 30.6652 151.549 30.6393C151.455 30.6393 151.36 30.6393 151.267 30.6393C144.461 30.6393 132.925 30.6353 126.119 30.6464C125.504 30.6468 125.083 30.4406 124.882 29.8459C124.882 29.7144 124.882 29.5821 124.882 29.4499Z" fill="#9B9B9B"/>
<path fill-rule="evenodd" clip-rule="evenodd" d="M74.4844 21.4688C74.6842 20.8736 75.1063 20.6679 75.7205 20.6686C82.5191 20.6791 86.9521 20.6752 93.7504 20.6752C93.8479 20.6752 93.9461 20.6752 94.1041 20.6752C94.0051 20.5721 93.9427 20.504 93.8763 20.4384C92.8055 19.3714 91.7351 18.3043 90.6626 17.2388C90.3716 16.9501 90.2761 16.605 90.3907 16.2182C90.497 15.8589 90.7505 15.6294 91.1179 15.5449C91.498 15.4577 91.8123 15.5858 92.0839 15.856C93.2831 17.0512 94.4847 18.2443 95.6856 19.4381C96.1299 19.8809 96.586 20.3139 97.0146 20.7722C97.2074 20.9777 97.3453 21.2346 97.5079 21.4685C97.5079 21.6011 97.5079 21.7331 97.5079 21.8653C97.3453 22.0992 97.2127 22.363 97.0151 22.5619C95.3834 24.2012 93.7409 25.8293 92.1005 27.4591C91.6624 27.8943 91.0944 27.9347 90.6817 27.5671C90.241 27.1747 90.2278 26.5332 90.664 26.0963C91.7324 25.0267 92.8052 23.9617 93.8778 22.8967C93.9412 22.834 94.022 22.7887 94.0948 22.7356C94.0823 22.7101 94.0693 22.6846 94.0573 22.6584C93.963 22.6584 93.8685 22.6584 93.7756 22.6584C86.969 22.6584 82.5277 22.6547 75.7213 22.6653C75.107 22.666 74.6852 22.46 74.4846 21.8651C74.4844 21.7333 74.4844 21.6013 74.4844 21.4688Z" fill="#9B9B9B"/>
</svg>
