<svg width="155" height="60" viewBox="0 0 155 60" fill="none" xmlns="http://www.w3.org/2000/svg">
<path d="M134.003 35.6966C134.003 38.9618 131.356 41.6085 128.091 41.6085H94.1971C90.9316 41.6085 88.2852 38.9618 88.2852 35.6966V7.91165C88.2852 4.64672 90.9316 2 94.1971 2H128.091C131.356 2 134.003 4.64672 134.003 7.91165V35.6966Z" stroke="white" stroke-width="4" stroke-miterlimit="10"/>
<path d="M111.342 24.7602C111.342 25.9031 110.456 26.8294 109.364 26.8294H100.511C99.4181 26.8294 98.5327 25.9031 98.5327 24.7602V18.2573C98.5327 17.1144 99.4181 16.1881 100.511 16.1881H109.364C110.456 16.1881 111.342 17.1144 111.342 18.2573V24.7602Z" fill="#9B9B9B"/>
<path d="M128.978 16.4835C128.978 17.6263 128.093 18.5524 127 18.5524H118.147C117.055 18.5524 116.169 17.6261 116.169 16.4835V9.98055C116.169 8.83771 117.055 7.91138 118.147 7.91138H127C128.093 7.91138 128.978 8.83771 128.978 9.98055V16.4835Z" fill="#9B9B9B"/>
<path d="M129.175 32.6421C129.175 33.7849 128.29 34.7113 127.198 34.7113H118.345C117.252 34.7113 116.367 33.7849 116.367 32.6421V26.1392C116.367 24.9963 117.252 24.07 118.345 24.07H127.198C128.29 24.07 129.175 24.9963 129.175 26.1392V32.6421Z" fill="#9B9B9B"/>
<path d="M0 10.5804C0 9.78123 0.430344 9.35089 1.2298 9.35089H2.98179C3.78124 9.35089 4.21159 9.78123 4.21159 10.5804V23.3989C4.21159 26.1963 6.20949 27.6717 8.36121 27.6717C10.5129 27.6717 12.5111 26.1963 12.5111 23.3989V10.5804C12.5111 9.78123 12.9414 9.35089 13.7409 9.35089H15.4929C16.2921 9.35089 16.7227 9.78123 16.7227 10.5804V23.3989C16.7227 27.9483 13.8944 31.0224 8.36121 31.0224C2.82822 31.0224 0 27.9483 0 23.3989V10.5804Z" fill="white"/>
<path d="M34.214 9.35089C35.0135 9.35089 35.4438 9.78124 35.4438 10.5804V11.472C35.4438 12.2712 35.0135 12.7018 34.214 12.7018H29.7568V29.6393C29.7568 30.4385 29.3264 30.8691 28.5272 30.8691H26.775C25.9758 30.8691 25.5455 30.4385 25.5455 29.6393V12.7015H21.0882C20.289 12.7015 19.8584 12.2712 19.8584 11.4717V10.5802C19.8584 9.78099 20.289 9.35065 21.0882 9.35065L34.214 9.35089Z" fill="white"/>
<path d="M43.6822 20.0789L37.3497 10.3652C36.9191 9.6889 37.1036 9.35065 37.903 9.35065H39.9624C40.7619 9.35065 41.4379 9.71951 41.8682 10.3958L46.3566 17.2815L50.8445 10.3958C51.2748 9.71951 51.9511 9.35065 52.7503 9.35065H54.8096C55.6091 9.35065 55.7935 9.68865 55.3632 10.3652L49.0307 20.0789L55.5168 29.8541C55.978 30.5306 55.7627 30.8688 54.9635 30.8688H52.9038C52.1046 30.8688 51.4286 30.5306 50.9674 29.8541L46.3566 23.153L41.7455 29.8541C41.2846 30.5306 40.6081 30.8688 39.8091 30.8688H37.7495C36.9503 30.8688 36.735 30.5306 37.1962 29.8541L43.6822 20.0789Z" fill="white"/>
<path d="M66.7375 9.19708C72.6703 9.19708 76.5742 13.5314 76.5742 20.1097C76.5742 26.6881 72.6703 31.0224 66.7375 31.0224C60.8046 31.0224 56.9009 26.6881 56.9009 20.1097C56.9009 13.5314 60.8046 9.19708 66.7375 9.19708ZM66.7375 27.6717C70.0882 27.6717 72.3629 24.6899 72.3629 20.1097C72.3629 15.5295 70.0882 12.5477 66.7375 12.5477C63.3869 12.5477 61.1122 15.5295 61.1122 20.1097C61.1122 24.6899 63.3869 27.6717 66.7375 27.6717Z" fill="white"/>
<g opacity="0.9">
<path d="M4.02438 56.8614C4.02438 57.0735 3.92445 57.1734 3.7121 57.1734H3.36234C3.14998 57.1734 3.05029 57.061 3.05029 56.8614V51.2407C3.05029 51.0408 3.14998 50.9284 3.36234 50.9284H3.51223C3.71185 50.9284 3.8495 51.0284 3.88673 51.2285L4.02438 51.8655C4.42411 51.191 5.12339 50.8665 6.01028 50.8665C7.05932 50.8665 7.6839 51.3286 7.95871 52.0779C8.3457 51.2659 9.24509 50.8665 10.0568 50.8665C11.7179 50.8665 12.2675 51.8655 12.2675 53.3018V56.8616C12.2675 57.0737 12.1676 57.1737 11.9555 57.1737H11.6057C11.3934 57.1737 11.2934 57.0613 11.2934 56.8616V53.2893C11.2934 52.4399 11.1186 51.6407 9.90714 51.6407C9.04522 51.6407 8.14608 52.3025 8.14608 53.8015V56.8616C8.14608 57.0737 8.04615 57.1737 7.8338 57.1737H7.48403C7.27192 57.1737 7.17199 57.0613 7.17199 56.8616V53.2893C7.17199 52.4399 6.99711 51.6407 5.78568 51.6407C4.92377 51.6407 4.02463 52.3025 4.02463 53.8015V56.8614H4.02438Z" fill="white"/>
<path d="M18.789 56.1491C18.4143 56.8112 17.7147 57.2359 16.7029 57.2359C15.5914 57.2359 14.6421 56.699 14.6421 55.4623C14.6421 53.5764 16.7904 53.3765 18.0395 53.3765H18.7513V53.0765C18.7513 52.0522 18.0395 51.6402 17.2273 51.6402C16.5655 51.6402 16.0784 51.7778 15.6412 52.0774C15.566 52.1274 15.5035 52.1399 15.4535 52.1399C15.3663 52.1399 15.3039 52.0899 15.2412 51.99L15.154 51.865C15.0541 51.6777 15.0915 51.5153 15.2539 51.4029C15.8033 51.0406 16.5403 50.866 17.2273 50.866C18.514 50.866 19.7254 51.5028 19.7254 53.0765V56.8611C19.7254 57.0608 19.613 57.1732 19.4133 57.1732H19.3259C19.1263 57.1732 19.0011 57.0733 18.9512 56.8734L18.789 56.1491ZM18.0398 54.076C17.2153 54.076 15.6164 54.2756 15.6164 55.4623C15.6164 56.1616 16.1785 56.4617 16.7032 56.4617C18.0523 56.4617 18.7515 55.5373 18.7515 54.4633V54.076H18.0398Z" fill="white"/>
<path d="M22.7364 57.1734C22.5367 57.1734 22.4243 57.0735 22.4243 56.8614V48.7426C22.4243 48.5303 22.5367 48.4306 22.7364 48.4306H23.0736C23.2735 48.4306 23.3859 48.5303 23.3859 48.7426V53.4265L25.5092 51.1533C25.6466 51.0036 25.8338 50.9284 26.0339 50.9284H26.6459C26.8456 50.9284 26.8833 51.0036 26.7456 51.1533L24.2851 53.789L26.9205 56.9366C27.0582 57.099 27.0204 57.1739 26.8081 57.1739H26.2587C26.0464 57.1739 25.884 57.099 25.7466 56.9366L23.3859 54.1137V56.8619C23.3859 57.074 23.2735 57.1739 23.0736 57.1739H22.7364V57.1734Z" fill="white"/>
<path d="M29.3195 54.1382C29.382 55.7247 30.3061 56.4614 31.4179 56.4614C31.8801 56.4614 32.2296 56.4115 32.5421 56.3115C32.7417 56.2366 32.8919 56.2863 32.9916 56.4614L33.0667 56.5863C33.1792 56.7737 33.1292 56.9109 32.9416 56.9861C32.4297 57.1857 31.905 57.2359 31.4179 57.2359C29.794 57.2359 28.3452 56.2241 28.3452 54.0008C28.3452 52.1523 29.3318 50.866 31.0181 50.866C32.8042 50.866 33.6036 52.2648 33.6911 53.826C33.7036 54.0258 33.6036 54.1382 33.391 54.1382H29.3195ZM29.332 53.4762H32.7295C32.6795 52.3772 31.9178 51.6402 31.0184 51.6402C30.119 51.6402 29.382 52.3772 29.332 53.4762Z" fill="white"/>
<path d="M39.4875 56.2865C39.55 56.1616 39.6249 56.0992 39.7249 56.0992C39.7748 56.0992 39.8373 56.1117 39.8998 56.1491C40.2495 56.324 40.674 56.4614 41.0989 56.4614C41.7982 56.4614 42.2479 56.0867 42.2479 55.4746C42.2479 54.9877 41.9856 54.7129 41.1112 54.3756C40.3495 54.0883 39.5 53.6386 39.5 52.5396C39.5 51.4903 40.287 50.866 41.5484 50.866C42.0978 50.866 42.4975 50.9909 42.7723 51.1158C42.9597 51.2032 43.0097 51.3531 42.9222 51.5405L42.847 51.6779C42.7598 51.8653 42.6349 51.9153 42.4348 51.8401C42.185 51.7404 41.8355 51.6404 41.4857 51.6404C40.7737 51.6404 40.4739 52.0277 40.4739 52.5146C40.4739 53.1642 41.0108 53.389 41.6106 53.6138C42.3723 53.9012 43.2218 54.2384 43.2218 55.3999C43.2218 56.4489 42.4973 57.2359 41.011 57.2359C40.4864 57.2359 39.962 57.061 39.5622 56.8736C39.3749 56.7862 39.3374 56.6236 39.4246 56.4364L39.4875 56.2865Z" fill="white"/>
<path d="M46.6195 51.7026V55.2375C46.6195 56.0369 46.7819 56.4616 47.4439 56.4616C47.5564 56.4616 47.6688 56.4489 47.7812 56.4242C47.9933 56.3742 48.1182 56.4492 48.1809 56.6365L48.2182 56.7614C48.2806 56.9611 48.2182 57.1112 48.0185 57.1612C47.7937 57.2111 47.5813 57.2361 47.3565 57.2361C46.1198 57.2361 45.6454 56.5368 45.6454 55.2377V51.7026H45.3081C45.1085 51.7026 44.9961 51.5902 44.9961 51.3903V51.2407C44.9961 51.0283 45.1085 50.9284 45.3081 50.9284H45.6454L45.8703 49.3675C45.8952 49.1676 46.0201 49.0552 46.22 49.0552H46.3075C46.5071 49.0552 46.6195 49.1551 46.6195 49.3675V50.9284H47.6313C47.8437 50.9284 47.9433 51.0408 47.9433 51.2407V51.3903C47.9433 51.6027 47.8309 51.7026 47.6313 51.7026H46.6195Z" fill="white"/>
<path d="M54.4389 56.1491C54.0642 56.8112 53.3647 57.2359 52.3528 57.2359C51.2413 57.2359 50.292 56.699 50.292 55.4623C50.292 53.5764 52.4403 53.3765 53.6892 53.3765H54.4012V53.0765C54.4012 52.0522 53.6892 51.6402 52.8772 51.6402C52.2154 51.6402 51.7283 51.7778 51.2908 52.0774C51.2159 52.1274 51.1534 52.1399 51.1034 52.1399C51.0163 52.1399 50.9538 52.0899 50.8913 51.99L50.8039 51.865C50.704 51.6777 50.7414 51.5153 50.9038 51.4029C51.4532 51.0406 52.1902 50.866 52.8772 50.866C54.1639 50.866 55.3753 51.5028 55.3753 53.0765V56.8611C55.3753 57.0608 55.2629 57.1732 55.0633 57.1732H54.9758C54.7762 57.1732 54.651 57.0733 54.6011 56.8734L54.4389 56.1491ZM53.6892 54.076C52.865 54.076 51.2661 54.2756 51.2661 55.4623C51.2661 56.1616 51.8282 56.4617 52.3528 56.4617C53.7019 56.4617 54.4012 55.5373 54.4012 54.4633V54.076H53.6892Z" fill="white"/>
<path d="M59.0488 56.8614C59.0488 57.0735 58.9489 57.1734 58.7365 57.1734H58.3867C58.1744 57.1734 58.0747 57.061 58.0747 56.8614V51.2407C58.0747 51.0408 58.1744 50.9284 58.3867 50.9284H58.5366C58.7363 50.9284 58.8739 51.0284 58.9111 51.2285L59.0488 51.8655C59.4485 51.191 60.1478 50.8665 61.0347 50.8665C62.0837 50.8665 62.7083 51.3286 62.9831 52.0779C63.3701 51.2659 64.2695 50.8665 65.0812 50.8665C66.7423 50.8665 67.292 51.8655 67.292 53.3018V56.8616C67.292 57.0737 67.192 57.1737 66.9799 57.1737H66.6301C66.4178 57.1737 66.3179 57.0613 66.3179 56.8616V53.2893C66.3179 52.4399 66.143 51.6407 64.9316 51.6407C64.0696 51.6407 63.1705 52.3025 63.1705 53.8015V56.8616C63.1705 57.0737 63.0706 57.1737 62.8582 57.1737H62.5084C62.2963 57.1737 62.1964 57.0613 62.1964 56.8616V53.2893C62.1964 52.4399 62.0215 51.6407 60.8101 51.6407C59.9482 51.6407 59.049 52.3025 59.049 53.8015L59.0488 56.8614Z" fill="white"/>
<path d="M70.9653 51.99C71.4023 51.2157 72.0396 50.866 72.9137 50.866C74.5873 50.866 75.7363 52.1399 75.7363 54.0508C75.7363 55.962 74.5873 57.2359 72.9137 57.2359C72.0396 57.2359 71.4023 56.8861 70.9653 56.1117V59.3592C70.9653 59.5715 70.8654 59.6715 70.653 59.6715H70.3032C70.0909 59.6715 69.9912 59.5715 69.9912 59.3592V51.2407C69.9912 51.0284 70.1036 50.9284 70.3032 50.9284H70.4282C70.628 50.9284 70.7654 51.0284 70.8029 51.2285L70.9653 51.99ZM72.8638 51.6402C71.727 51.6402 70.9653 52.602 70.9653 54.0508C70.9653 55.4998 71.727 56.4617 72.8638 56.4617C74.0005 56.4617 74.7622 55.4998 74.7622 54.0508C74.7622 52.602 74.0005 51.6402 72.8638 51.6402Z" fill="white"/>
<path d="M77.8235 56.2865C77.8859 56.1616 77.9609 56.0992 78.0608 56.0992C78.1108 56.0992 78.1732 56.1117 78.2357 56.1491C78.5855 56.324 79.0099 56.4614 79.4349 56.4614C80.1342 56.4614 80.5839 56.0867 80.5839 55.4746C80.5839 54.9877 80.3215 54.7129 79.4471 54.3756C78.6854 54.0883 77.836 53.6386 77.836 52.5396C77.836 51.4903 78.6229 50.866 79.8843 50.866C80.4337 50.866 80.8334 50.9909 81.1083 51.1158C81.2956 51.2032 81.3456 51.3531 81.2582 51.5405L81.183 51.6779C81.0958 51.8653 80.9708 51.9153 80.7707 51.8401C80.5209 51.7404 80.1714 51.6404 79.8216 51.6404C79.1096 51.6404 78.8098 52.0277 78.8098 52.5146C78.8098 53.1642 79.3467 53.389 79.9465 53.6138C80.7083 53.9012 81.5577 54.2384 81.5577 55.3999C81.5577 56.4489 80.8332 57.2359 79.347 57.2359C78.8223 57.2359 78.2979 57.061 77.8982 56.8736C77.7108 56.7862 77.6733 56.6236 77.7605 56.4364L77.8235 56.2865Z" fill="white"/>
<path d="M88.5034 51.99C88.9403 51.2157 89.5777 50.866 90.4518 50.866C92.1254 50.866 93.2744 52.1399 93.2744 54.0508C93.2744 55.962 92.1254 57.2359 90.4518 57.2359C89.5777 57.2359 88.9403 56.8861 88.5034 56.1117V59.3592C88.5034 59.5715 88.4035 59.6715 88.1911 59.6715H87.8413C87.629 59.6715 87.5293 59.5715 87.5293 59.3592V51.2407C87.5293 51.0284 87.6417 50.9284 87.8413 50.9284H87.9663C88.1661 50.9284 88.3035 51.0284 88.341 51.2285L88.5034 51.99ZM90.4019 51.6402C89.2651 51.6402 88.5034 52.602 88.5034 54.0508C88.5034 55.4998 89.2651 56.4617 90.4019 56.4617C91.5386 56.4617 92.3003 55.4998 92.3003 54.0508C92.3003 52.602 91.5386 51.6402 90.4019 51.6402Z" fill="white"/>
<path d="M96.3601 54.1382C96.4225 55.7247 97.3467 56.4614 98.4584 56.4614C98.9206 56.4614 99.2701 56.4115 99.5826 56.3115C99.7822 56.2366 99.9324 56.2863 100.032 56.4614L100.107 56.5863C100.22 56.7737 100.17 56.9109 99.9821 56.9861C99.4702 57.1857 98.9456 57.2359 98.4584 57.2359C96.8345 57.2359 95.3857 56.2241 95.3857 54.0008C95.3857 52.1523 96.3723 50.866 98.0587 50.866C99.8447 50.866 100.644 52.2648 100.732 53.826C100.744 54.0258 100.644 54.1382 100.432 54.1382H96.3601ZM96.3726 53.4762H99.77C99.72 52.3772 98.9583 51.6402 98.0589 51.6402C97.1595 51.6402 96.4225 52.3772 96.3726 53.4762Z" fill="white"/>
<path d="M103.493 57.1735C103.28 57.1735 103.181 57.061 103.181 56.8614V51.2407C103.181 51.0409 103.293 50.9284 103.493 50.9284H103.643C103.855 50.9284 103.98 51.0284 104.017 51.2285L104.155 51.8656C104.567 51.2162 104.916 50.9287 105.841 50.879C106.041 50.8665 106.153 50.9664 106.153 51.1788V51.3287C106.153 51.5283 106.053 51.6285 105.841 51.6534C104.455 51.8156 104.155 53.0522 104.155 54.4011V56.8619C104.155 57.0615 104.055 57.1739 103.842 57.1739H103.493V57.1735Z" fill="white"/>
<path d="M109.114 56.8614C109.114 57.0735 109.014 57.1734 108.801 57.1734H108.452C108.239 57.1734 108.14 57.061 108.14 56.8614V51.2407C108.14 51.0408 108.239 50.9284 108.452 50.9284H108.602C108.801 50.9284 108.939 51.0284 108.976 51.2285L109.114 51.8655C109.513 51.191 110.213 50.8665 111.1 50.8665C112.149 50.8665 112.773 51.3286 113.048 52.0779C113.435 51.2659 114.334 50.8665 115.146 50.8665C116.808 50.8665 117.357 51.8655 117.357 53.3018V56.8616C117.357 57.0737 117.257 57.1737 117.045 57.1737H116.695C116.483 57.1737 116.383 57.0613 116.383 56.8616V53.2893C116.383 52.4399 116.208 51.6407 114.996 51.6407C114.135 51.6407 113.235 52.3025 113.235 53.8015V56.8616C113.235 57.0737 113.136 57.1737 112.923 57.1737H112.573C112.361 57.1737 112.261 57.0613 112.261 56.8616V53.2893C112.261 52.4399 112.086 51.6407 110.875 51.6407C110.013 51.6407 109.114 52.3025 109.114 53.8015V56.8614H109.114Z" fill="white"/>
<path d="M123.878 56.1491C123.504 56.8112 122.804 57.2359 121.792 57.2359C120.681 57.2359 119.731 56.699 119.731 55.4623C119.731 53.5764 121.88 53.3765 123.129 53.3765H123.841V53.0765C123.841 52.0522 123.129 51.6402 122.317 51.6402C121.655 51.6402 121.168 51.7778 120.73 52.0774C120.655 52.1274 120.593 52.1399 120.543 52.1399C120.456 52.1399 120.393 52.0899 120.331 51.99L120.243 51.865C120.143 51.6777 120.181 51.5153 120.343 51.4029C120.893 51.0406 121.63 50.866 122.317 50.866C123.603 50.866 124.815 51.5028 124.815 53.0765V56.8611C124.815 57.0608 124.702 57.1732 124.503 57.1732H124.415C124.216 57.1732 124.09 57.0733 124.041 56.8734L123.878 56.1491ZM123.129 54.076C122.304 54.076 120.706 54.2756 120.706 55.4623C120.706 56.1616 121.268 56.4617 121.792 56.4617C123.141 56.4617 123.841 55.5373 123.841 54.4633V54.076H123.129Z" fill="white"/>
<path d="M128.488 56.8614C128.488 57.0735 128.388 57.1734 128.176 57.1734H127.826C127.614 57.1734 127.514 57.061 127.514 56.8614V51.2407C127.514 51.0408 127.614 50.9284 127.826 50.9284H127.976C128.176 50.9284 128.313 51.0284 128.351 51.2285L128.488 51.8655C128.888 51.191 129.65 50.8665 130.399 50.8665C132.06 50.8665 132.61 51.8655 132.61 53.3018V56.8616C132.61 57.0737 132.51 57.1737 132.298 57.1737H131.948C131.736 57.1737 131.636 57.0613 131.636 56.8616V53.2893C131.636 52.4399 131.461 51.6407 130.25 51.6407C129.388 51.6407 128.488 52.3025 128.488 53.8015L128.488 56.8614Z" fill="white"/>
<path d="M135.958 54.1382C136.021 55.7247 136.945 56.4614 138.057 56.4614C138.519 56.4614 138.868 56.4115 139.181 56.3115C139.38 56.2366 139.531 56.2863 139.63 56.4614L139.705 56.5863C139.818 56.7737 139.768 56.9109 139.58 56.9861C139.068 57.1857 138.544 57.2359 138.057 57.2359C136.433 57.2359 134.984 56.2241 134.984 54.0008C134.984 52.1523 135.97 50.866 137.657 50.866C139.443 50.866 140.242 52.2648 140.33 53.826C140.342 54.0258 140.242 54.1382 140.03 54.1382H135.958ZM135.971 53.4762H139.368C139.318 52.3772 138.556 51.6402 137.657 51.6402C136.758 51.6402 136.021 52.3772 135.971 53.4762Z" fill="white"/>
<path d="M143.752 56.8614C143.752 57.0735 143.652 57.1734 143.44 57.1734H143.09C142.878 57.1734 142.778 57.061 142.778 56.8614V51.2407C142.778 51.0408 142.878 50.9284 143.09 50.9284H143.24C143.44 50.9284 143.578 51.0284 143.615 51.2285L143.752 51.8655C144.152 51.191 144.914 50.8665 145.663 50.8665C147.324 50.8665 147.874 51.8655 147.874 53.3018V56.8616C147.874 57.0737 147.774 57.1737 147.562 57.1737H147.212C147 57.1737 146.9 57.0613 146.9 56.8616V53.2893C146.9 52.4399 146.725 51.6407 145.514 51.6407C144.652 51.6407 143.753 52.3025 143.753 53.8015V56.8614H143.752Z" fill="white"/>
<path d="M151.572 51.7026V55.2375C151.572 56.0369 151.734 56.4616 152.396 56.4616C152.509 56.4616 152.621 56.4489 152.733 56.4242C152.945 56.3742 153.07 56.4492 153.133 56.6365L153.17 56.7614C153.233 56.9611 153.17 57.1112 152.971 57.1612C152.746 57.2111 152.534 57.2361 152.309 57.2361C151.072 57.2361 150.598 56.5368 150.598 55.2377V51.7026H150.26C150.061 51.7026 149.948 51.5902 149.948 51.3903V51.2407C149.948 51.0283 150.061 50.9284 150.26 50.9284H150.598L150.822 49.3675C150.848 49.1676 150.972 49.0552 151.172 49.0552H151.26C151.459 49.0552 151.572 49.1551 151.572 49.3675V50.9284H152.583C152.796 50.9284 152.896 51.0408 152.896 51.2407V51.3903C152.896 51.6027 152.783 51.7026 152.583 51.7026H151.572Z" fill="white"/>
</g>
<path fill-rule="evenodd" clip-rule="evenodd" d="M124.735 12.7491C124.934 12.1539 125.356 11.9479 125.971 11.9489C132.769 11.9594 144.297 11.9555 151.095 11.9555C151.192 11.9555 151.291 11.9555 151.448 11.9555C151.349 11.8524 151.287 11.7843 151.221 11.7186C150.15 10.6517 149.08 9.58456 148.007 8.51911C147.716 8.23033 147.62 7.88522 147.735 7.49823C147.841 7.13916 148.095 6.90942 148.462 6.82516C148.842 6.73797 149.157 6.86607 149.428 7.13623C150.627 8.33149 151.829 9.52455 153.03 10.7183C153.474 11.1612 153.93 11.5942 154.359 12.0522C154.552 12.258 154.69 12.5149 154.852 12.7486C154.852 12.8811 154.852 13.0131 154.852 13.1454C154.69 13.3793 154.557 13.6431 154.36 13.8419C152.728 15.4813 151.085 17.1093 149.445 18.7391C149.007 19.1743 148.439 19.2148 148.026 18.8471C147.585 18.4547 147.572 17.8133 148.008 17.3763C149.077 16.3067 150.15 15.2417 151.222 14.1768C151.286 14.1141 151.366 14.0688 151.439 14.0156C151.427 13.9901 151.414 13.9644 151.402 13.9384C151.307 13.9384 151.213 13.9384 151.12 13.9384C144.313 13.9384 132.778 13.9348 125.972 13.9453C125.357 13.946 124.935 13.7401 124.735 13.1451C124.735 13.0136 124.735 12.8816 124.735 12.7491Z" fill="#9B9B9B"/>
<path fill-rule="evenodd" clip-rule="evenodd" d="M124.882 29.4499C125.082 28.8547 125.504 28.6487 126.118 28.6494C132.917 28.6602 144.444 28.656 151.243 28.656C151.34 28.656 151.438 28.656 151.596 28.656C151.497 28.5529 151.435 28.4848 151.368 28.4192C150.298 27.3525 149.227 26.2851 148.155 25.2199C147.864 24.9311 147.768 24.5858 147.883 24.199C147.989 23.8397 148.242 23.6102 148.61 23.5257C148.99 23.4385 149.304 23.5666 149.576 23.8368C150.775 25.032 151.977 26.2254 153.177 27.4189C153.622 27.8617 154.078 28.2948 154.507 28.7528C154.699 28.9585 154.837 29.2155 155 29.4494C155 29.5816 155 29.7139 155 29.8459C154.837 30.0798 154.705 30.3434 154.507 30.5425C152.875 32.1818 151.233 33.8099 149.593 35.4397C149.154 35.8749 148.586 35.9153 148.174 35.5477C147.733 35.1553 147.72 34.5138 148.156 34.0769C149.225 33.0072 150.297 31.942 151.37 30.8773C151.433 30.8146 151.514 30.7696 151.587 30.7162C151.574 30.6907 151.561 30.6652 151.549 30.6393C151.455 30.6393 151.36 30.6393 151.268 30.6393C144.461 30.6393 132.926 30.6353 126.119 30.6464C125.505 30.6468 125.083 30.4406 124.883 29.8459C124.882 29.7144 124.882 29.5821 124.882 29.4499Z" fill="#9B9B9B"/>
<path fill-rule="evenodd" clip-rule="evenodd" d="M74.4849 21.4688C74.6847 20.8736 75.1067 20.6679 75.721 20.6686C82.5196 20.6791 86.9526 20.6752 93.7509 20.6752C93.8484 20.6752 93.9466 20.6752 94.1046 20.6752C94.0056 20.5721 93.9432 20.504 93.8768 20.4384C92.8059 19.3714 91.7356 18.3043 90.663 17.2388C90.3721 16.9501 90.2765 16.605 90.3912 16.2182C90.4975 15.8589 90.751 15.6294 91.1184 15.5449C91.4985 15.4577 91.8128 15.5858 92.0844 15.856C93.2836 17.0512 94.4852 18.2443 95.6861 19.4381C96.1304 19.8809 96.5865 20.3139 97.0151 20.7722C97.2079 20.9777 97.3457 21.2346 97.5084 21.4685C97.5084 21.6011 97.5084 21.7331 97.5084 21.8653C97.3457 22.0992 97.2132 22.363 97.0156 22.5619C95.3838 24.2012 93.7413 25.8293 92.101 27.4591C91.6629 27.8943 91.0949 27.9347 90.6822 27.5671C90.2415 27.1747 90.2283 26.5332 90.6645 26.0963C91.7329 25.0267 92.8057 23.9617 93.8783 22.8967C93.9417 22.834 94.0225 22.7887 94.0953 22.7356C94.0828 22.7101 94.0698 22.6846 94.0578 22.6584C93.9635 22.6584 93.869 22.6584 93.7761 22.6584C86.9695 22.6584 82.5282 22.6547 75.7218 22.6653C75.1075 22.666 74.6857 22.46 74.4851 21.8651C74.4849 21.7333 74.4849 21.6013 74.4849 21.4688Z" fill="#9B9B9B"/>
</svg>
