<svg width="181" height="69" viewBox="0 0 181 69" fill="none" xmlns="http://www.w3.org/2000/svg">
<path d="M156.048 41.1316C156.048 44.9234 152.975 47.997 149.183 47.997H109.822C106.03 47.997 102.957 44.9234 102.957 41.1316V8.86515C102.957 5.07362 106.03 2 109.822 2H149.183C152.975 2 156.048 5.07362 156.048 8.86515V41.1316Z" stroke="white" stroke-width="4" stroke-miterlimit="10"/>
<path d="M129.731 28.4312C129.731 29.7584 128.703 30.8341 127.434 30.8341H117.153C115.885 30.8341 114.856 29.7584 114.856 28.4312V20.8794C114.856 19.5522 115.885 18.4765 117.153 18.4765H127.434C128.703 18.4765 129.731 19.5522 129.731 20.8794V28.4312Z" fill="#9B9B9B"/>
<path d="M150.212 18.8196C150.212 20.1467 149.184 21.2222 147.916 21.2222H137.635C136.366 21.2222 135.338 20.1465 135.338 18.8196V11.2678C135.338 9.9406 136.366 8.86487 137.635 8.86487H147.916C149.184 8.86487 150.212 9.9406 150.212 11.2678V18.8196Z" fill="#9B9B9B"/>
<path d="M150.442 37.5843C150.442 38.9115 149.414 39.9872 148.145 39.9872H137.864C136.595 39.9872 135.567 38.9115 135.567 37.5843V30.0326C135.567 28.7054 136.595 27.6296 137.864 27.6296H148.145C149.414 27.6296 150.442 28.7054 150.442 30.0326V37.5843Z" fill="#9B9B9B"/>
<path d="M0.431641 11.9644C0.431641 11.0363 0.931395 10.5365 1.85979 10.5365H3.89436C4.82276 10.5365 5.32252 11.0363 5.32252 11.9644V26.8503C5.32252 30.0989 7.64266 31.8123 10.1414 31.8123C12.6402 31.8123 14.9606 30.0989 14.9606 26.8503V11.9644C14.9606 11.0363 15.4604 10.5365 16.3888 10.5365H18.4234C19.3515 10.5365 19.8515 11.0363 19.8515 11.9644V26.8503C19.8515 32.1334 16.5671 35.7034 10.1414 35.7034C3.71602 35.7034 0.431641 32.1334 0.431641 26.8503V11.9644Z" fill="white"/>
<path d="M40.1642 10.5365C41.0926 10.5365 41.5924 11.0363 41.5924 11.9644V12.9998C41.5924 13.9279 41.0926 14.4279 40.1642 14.4279H34.9881V34.0972C34.9881 35.0253 34.4883 35.5254 33.5602 35.5254H31.5254C30.5972 35.5254 30.0975 35.0253 30.0975 34.0972V14.4276H24.9213C23.9932 14.4276 23.4932 13.9279 23.4932 12.9995V11.9641C23.4932 11.036 23.9932 10.5363 24.9213 10.5363L40.1642 10.5365Z" fill="white"/>
<path d="M51.1591 22.9948L43.8052 11.7144C43.3052 10.9291 43.5194 10.5363 44.4478 10.5363H46.8393C47.7677 10.5363 48.5528 10.9646 49.0525 11.7499L54.2648 19.7463L59.4765 11.7499C59.9763 10.9646 60.7616 10.5363 61.6897 10.5363H64.0813C65.0097 10.5363 65.2238 10.9288 64.7241 11.7144L57.3703 22.9948L64.9024 34.3467C65.438 35.1323 65.188 35.5251 64.2599 35.5251H61.8681C60.94 35.5251 60.1549 35.1323 59.6193 34.3467L54.2648 26.5648L48.91 34.3467C48.3747 35.1323 47.5891 35.5251 46.6613 35.5251H44.2694C43.3413 35.5251 43.0913 35.1323 43.6269 34.3467L51.1591 22.9948Z" fill="white"/>
<path d="M77.934 10.3579C84.8236 10.3579 89.3572 15.3913 89.3572 23.0307C89.3572 30.6701 84.8236 35.7034 77.934 35.7034C71.0441 35.7034 66.5107 30.6701 66.5107 23.0307C66.5107 15.3913 71.0441 10.3579 77.934 10.3579ZM77.934 31.8124C81.8251 31.8124 84.4666 28.3496 84.4666 23.0307C84.4666 17.7117 81.8251 14.249 77.934 14.249C74.0429 14.249 71.4013 17.7117 71.4013 23.0307C71.4013 28.3496 74.0429 31.8124 77.934 31.8124Z" fill="white"/>
<g opacity="0.9">
<path d="M5.10483 65.71C5.10483 65.9563 4.98878 66.0723 4.74218 66.0723H4.336C4.0894 66.0723 3.97363 65.9418 3.97363 65.71V59.1827C3.97363 58.9506 4.0894 58.8201 4.336 58.8201H4.51008C4.74189 58.8201 4.90175 58.9361 4.94498 59.1685L5.10483 59.9083C5.56903 59.125 6.3811 58.7481 7.41104 58.7481C8.62928 58.7481 9.35459 59.2848 9.67373 60.1549C10.1231 59.212 11.1676 58.7481 12.1102 58.7481C14.0393 58.7481 14.6775 59.9083 14.6775 61.5763V65.7103C14.6775 65.9566 14.5615 66.0726 14.3152 66.0726H13.909C13.6624 66.0726 13.5463 65.9421 13.5463 65.7103V61.5617C13.5463 60.5753 13.3432 59.6472 11.9364 59.6472C10.9355 59.6472 9.89132 60.4158 9.89132 62.1565V65.7103C9.89132 65.9566 9.77527 66.0726 9.52867 66.0726H9.12249C8.87617 66.0726 8.76012 65.9421 8.76012 65.7103V61.5617C8.76012 60.5753 8.55703 59.6472 7.15021 59.6472C6.14928 59.6472 5.10512 60.4158 5.10512 62.1565V65.71H5.10483Z" fill="white"/>
<path d="M22.2504 64.8828C21.8152 65.6517 21.0028 66.1449 19.8278 66.1449C18.537 66.1449 17.4346 65.5214 17.4346 64.0853C17.4346 61.8951 19.9294 61.663 21.38 61.663H22.2066V61.3146C22.2066 60.1251 21.38 59.6467 20.4368 59.6467C19.6682 59.6467 19.1025 59.8065 18.5948 60.1544C18.5075 60.2124 18.4349 60.2269 18.3769 60.2269C18.2756 60.2269 18.2031 60.1689 18.1303 60.0528L18.029 59.9078C17.913 59.6902 17.9565 59.5016 18.1451 59.371C18.7831 58.9504 19.6389 58.7476 20.4368 58.7476C21.9309 58.7476 23.3378 59.4871 23.3378 61.3146V65.7097C23.3378 65.9415 23.2072 66.0721 22.9754 66.0721H22.8738C22.642 66.0721 22.4967 65.956 22.4387 65.7239L22.2504 64.8828ZM21.3803 62.4754C20.4229 62.4754 18.5661 62.7072 18.5661 64.0853C18.5661 64.8973 19.2188 65.2458 19.8281 65.2458C21.3948 65.2458 22.2068 64.1723 22.2068 62.9251V62.4754H21.3803Z" fill="white"/>
<path d="M26.835 66.0723C26.6032 66.0723 26.4727 65.9563 26.4727 65.7099V56.2817C26.4727 56.0351 26.6032 55.9194 26.835 55.9194H27.2267C27.4588 55.9194 27.5894 56.0351 27.5894 56.2817V61.721L30.0551 59.0812C30.2147 58.9074 30.432 58.8201 30.6644 58.8201H31.3752C31.607 58.8201 31.6508 58.9074 31.491 59.0812L28.6335 62.142L31.694 65.7973C31.8539 65.9859 31.8101 66.0729 31.5635 66.0729H30.9255C30.6789 66.0729 30.4903 65.9859 30.3307 65.7973L27.5894 62.5191V65.7105C27.5894 65.9568 27.4588 66.0729 27.2267 66.0729H26.835V66.0723Z" fill="white"/>
<path d="M34.4801 62.5476C34.5526 64.3899 35.6258 65.2455 36.9169 65.2455C37.4536 65.2455 37.8595 65.1875 38.2224 65.0714C38.4543 64.9844 38.6286 65.0421 38.7444 65.2455L38.8317 65.3906C38.9623 65.6082 38.9042 65.7674 38.6864 65.8548C38.0919 66.0866 37.4826 66.1449 36.9169 66.1449C35.0311 66.1449 33.3486 64.9699 33.3486 62.3881C33.3486 60.2414 34.4943 58.7476 36.4527 58.7476C38.5268 58.7476 39.4552 60.372 39.5567 62.185C39.5712 62.4171 39.4552 62.5476 39.2083 62.5476H34.4801ZM34.4946 61.7788H38.44C38.382 60.5025 37.4974 59.6467 36.453 59.6467C35.4085 59.6467 34.5527 60.5025 34.4946 61.7788Z" fill="white"/>
<path d="M46.2881 65.0424C46.3606 64.8973 46.4477 64.8248 46.5637 64.8248C46.6218 64.8248 46.6943 64.8393 46.7668 64.8828C47.173 65.0859 47.6659 65.2455 48.1594 65.2455C48.9715 65.2455 49.4937 64.8103 49.4937 64.0995C49.4937 63.534 49.1891 63.2149 48.1736 62.8232C47.289 62.4896 46.3026 61.9674 46.3026 60.6911C46.3026 59.4726 47.2165 58.7476 48.6814 58.7476C49.3193 58.7476 49.7835 58.8926 50.1027 59.0377C50.3203 59.1392 50.3783 59.3133 50.2768 59.5309L50.1894 59.6905C50.0882 59.9081 49.9431 59.9661 49.7107 59.8788C49.4206 59.763 49.0147 59.6469 48.6085 59.6469C47.7817 59.6469 47.4335 60.0966 47.4335 60.6621C47.4335 61.4164 48.057 61.6775 48.7536 61.9386C49.6382 62.2723 50.6246 62.664 50.6246 64.0128C50.6246 65.231 49.7833 66.1449 48.0573 66.1449C47.448 66.1449 46.8391 65.9418 46.3749 65.7242C46.1573 65.6227 46.1138 65.4338 46.215 65.2165L46.2881 65.0424Z" fill="white"/>
<path d="M54.5708 59.7192V63.8242C54.5708 64.7526 54.7594 65.2458 55.5282 65.2458C55.6588 65.2458 55.7893 65.231 55.9199 65.2023C56.1662 65.1442 56.3112 65.2313 56.3841 65.4489L56.4273 65.5939C56.4998 65.8257 56.4273 66.0001 56.1955 66.0581C55.9344 66.1161 55.6878 66.1452 55.4267 66.1452C53.9905 66.1452 53.4396 65.3331 53.4396 63.8244V59.7192H53.0479C52.8161 59.7192 52.6855 59.5886 52.6855 59.3565V59.1827C52.6855 58.9361 52.8161 58.8201 53.0479 58.8201H53.4396L53.7007 57.0074C53.7297 56.7753 53.8748 56.6447 54.1069 56.6447H54.2084C54.4402 56.6447 54.5708 56.7608 54.5708 57.0074V58.8201H55.7458C55.9924 58.8201 56.1082 58.9506 56.1082 59.1827V59.3565C56.1082 59.6031 55.9776 59.7192 55.7458 59.7192H54.5708Z" fill="white"/>
<path d="M63.6507 64.8828C63.2156 65.6517 62.4032 66.1449 61.2282 66.1449C59.9374 66.1449 58.835 65.5214 58.835 64.0853C58.835 61.8951 61.3298 61.663 62.7801 61.663H63.6069V61.3146C63.6069 60.1251 62.7801 59.6467 61.8372 59.6467C61.0686 59.6467 60.5029 59.8065 59.9949 60.1544C59.9079 60.2124 59.8353 60.2269 59.7773 60.2269C59.676 60.2269 59.6035 60.1689 59.531 60.0528L59.4294 59.9078C59.3134 59.6902 59.3569 59.5016 59.5455 59.371C60.1835 58.9504 61.0393 58.7476 61.8372 58.7476C63.3313 58.7476 64.7381 59.4871 64.7381 61.3146V65.7097C64.7381 65.9415 64.6076 66.0721 64.3758 66.0721H64.2742C64.0424 66.0721 63.8971 65.956 63.839 65.7239L63.6507 64.8828ZM62.7801 62.4754C61.823 62.4754 59.9662 62.7072 59.9662 64.0853C59.9662 64.8973 60.6189 65.2458 61.2282 65.2458C62.7949 65.2458 63.6069 64.1723 63.6069 62.9251V62.4754H62.7801Z" fill="white"/>
<path d="M69.0043 65.71C69.0043 65.9563 68.8882 66.0723 68.6416 66.0723H68.2354C67.9888 66.0723 67.873 65.9418 67.873 65.71V59.1827C67.873 58.9506 67.9888 58.8201 68.2354 58.8201H68.4095C68.6413 58.8201 68.8012 58.9361 68.8444 59.1685L69.0043 59.9083C69.4685 59.125 70.2805 58.7481 71.3105 58.7481C72.5287 58.7481 73.254 59.2848 73.5731 60.1549C74.0226 59.212 75.067 58.7481 76.0096 58.7481C77.9387 58.7481 78.5769 59.9083 78.5769 61.5763V65.7103C78.5769 65.9566 78.4609 66.0726 78.2146 66.0726H77.8084C77.5618 66.0726 77.4457 65.9421 77.4457 65.7103V61.5617C77.4457 60.5753 77.2427 59.6472 75.8358 59.6472C74.8349 59.6472 73.7907 60.4158 73.7907 62.1565V65.7103C73.7907 65.9566 73.6747 66.0726 73.4281 66.0726H73.0219C72.7756 66.0726 72.6595 65.9421 72.6595 65.7103V61.5617C72.6595 60.5753 72.4564 59.6472 71.0496 59.6472C70.0487 59.6472 69.0045 60.4158 69.0045 62.1565L69.0043 65.71Z" fill="white"/>
<path d="M82.8431 60.0528C83.3505 59.1537 84.0906 58.7476 85.1058 58.7476C87.0493 58.7476 88.3836 60.2269 88.3836 62.4461C88.3836 64.6655 87.0493 66.1449 85.1058 66.1449C84.0906 66.1449 83.3505 65.7387 82.8431 64.8393V68.6107C82.8431 68.8573 82.7271 68.9733 82.4805 68.9733H82.0743C81.8277 68.9733 81.7119 68.8573 81.7119 68.6107V59.1827C81.7119 58.9361 81.8425 58.8201 82.0743 58.8201H82.2193C82.4514 58.8201 82.611 58.9361 82.6545 59.1685L82.8431 60.0528ZM85.0478 59.6467C83.7277 59.6467 82.8431 60.7636 82.8431 62.4461C82.8431 64.1288 83.7277 65.2458 85.0478 65.2458C86.3678 65.2458 87.2524 64.1288 87.2524 62.4461C87.2524 60.7636 86.3678 59.6467 85.0478 59.6467Z" fill="white"/>
<path d="M90.8067 65.0424C90.8792 64.8973 90.9662 64.8248 91.0823 64.8248C91.1403 64.8248 91.2128 64.8393 91.2854 64.8828C91.6915 65.0859 92.1845 65.2455 92.678 65.2455C93.49 65.2455 94.0123 64.8103 94.0123 64.0995C94.0123 63.534 93.7076 63.2149 92.6922 62.8232C91.8076 62.4896 90.8212 61.9674 90.8212 60.6911C90.8212 59.4726 91.7351 58.7476 93.1999 58.7476C93.8379 58.7476 94.3021 58.8926 94.6212 59.0377C94.8388 59.1392 94.8969 59.3133 94.7953 59.5309L94.708 59.6905C94.6067 59.9081 94.4617 59.9661 94.2293 59.8788C93.9392 59.763 93.5333 59.6469 93.1271 59.6469C92.3002 59.6469 91.9521 60.0966 91.9521 60.6621C91.9521 61.4164 92.5756 61.6775 93.2722 61.9386C94.1567 62.2723 95.1432 62.664 95.1432 64.0128C95.1432 65.231 94.3018 66.1449 92.5759 66.1449C91.9666 66.1449 91.3576 65.9418 90.8934 65.7242C90.6758 65.6227 90.6323 65.4338 90.7336 65.2165L90.8067 65.0424Z" fill="white"/>
<path d="M103.209 60.0528C103.717 59.1537 104.457 58.7476 105.472 58.7476C107.416 58.7476 108.75 60.2269 108.75 62.4461C108.75 64.6655 107.416 66.1449 105.472 66.1449C104.457 66.1449 103.717 65.7387 103.209 64.8393V68.6107C103.209 68.8573 103.093 68.9733 102.847 68.9733H102.441C102.194 68.9733 102.078 68.8573 102.078 68.6107V59.1827C102.078 58.9361 102.209 58.8201 102.441 58.8201H102.586C102.818 58.8201 102.977 58.9361 103.021 59.1685L103.209 60.0528ZM105.414 59.6467C104.094 59.6467 103.209 60.7636 103.209 62.4461C103.209 64.1288 104.094 65.2458 105.414 65.2458C106.734 65.2458 107.619 64.1288 107.619 62.4461C107.619 60.7636 106.734 59.6467 105.414 59.6467Z" fill="white"/>
<path d="M112.334 62.5476C112.406 64.3899 113.479 65.2455 114.77 65.2455C115.307 65.2455 115.713 65.1875 116.076 65.0714C116.308 64.9844 116.482 65.0421 116.598 65.2455L116.685 65.3906C116.816 65.6082 116.758 65.7674 116.54 65.8548C115.945 66.0866 115.336 66.1449 114.77 66.1449C112.885 66.1449 111.202 64.9699 111.202 62.3881C111.202 60.2414 112.348 58.7476 114.306 58.7476C116.38 58.7476 117.309 60.372 117.41 62.185C117.425 62.4171 117.309 62.5476 117.062 62.5476H112.334ZM112.348 61.7788H116.294C116.236 60.5025 115.351 59.6467 114.306 59.6467C113.262 59.6467 112.406 60.5025 112.348 61.7788Z" fill="white"/>
<path d="M120.616 66.0723C120.37 66.0723 120.254 65.9418 120.254 65.71V59.1827C120.254 58.9506 120.384 58.8201 120.616 58.8201H120.79C121.037 58.8201 121.182 58.9361 121.225 59.1685L121.385 59.9083C121.864 59.1543 122.27 58.8204 123.343 58.7626C123.575 58.7481 123.706 58.8642 123.706 59.1108V59.2848C123.706 59.5167 123.59 59.633 123.343 59.662C121.733 59.8503 121.385 61.2864 121.385 62.8528V65.7105C121.385 65.9424 121.269 66.0729 121.022 66.0729H120.616V66.0723Z" fill="white"/>
<path d="M127.144 65.71C127.144 65.9563 127.028 66.0723 126.781 66.0723H126.375C126.128 66.0723 126.013 65.9418 126.013 65.71V59.1827C126.013 58.9506 126.128 58.8201 126.375 58.8201H126.549C126.781 58.8201 126.941 58.9361 126.984 59.1685L127.144 59.9083C127.608 59.125 128.42 58.7481 129.45 58.7481C130.668 58.7481 131.394 59.2848 131.713 60.1549C132.162 59.212 133.207 58.7481 134.149 58.7481C136.079 58.7481 136.717 59.9083 136.717 61.5763V65.7103C136.717 65.9566 136.601 66.0726 136.354 66.0726H135.948C135.701 66.0726 135.585 65.9421 135.585 65.7103V61.5617C135.585 60.5753 135.382 59.6472 133.975 59.6472C132.975 59.6472 131.93 60.4158 131.93 62.1565V65.7103C131.93 65.9566 131.814 66.0726 131.568 66.0726H131.162C130.915 66.0726 130.799 65.9421 130.799 65.7103V61.5617C130.799 60.5753 130.596 59.6472 129.189 59.6472C128.188 59.6472 127.144 60.4158 127.144 62.1565V65.71H127.144Z" fill="white"/>
<path d="M144.29 64.8828C143.855 65.6517 143.043 66.1449 141.868 66.1449C140.577 66.1449 139.475 65.5214 139.475 64.0853C139.475 61.8951 141.969 61.663 143.42 61.663H144.247V61.3146C144.247 60.1251 143.42 59.6467 142.477 59.6467C141.708 59.6467 141.143 59.8065 140.635 60.1544C140.548 60.2124 140.475 60.2269 140.417 60.2269C140.316 60.2269 140.243 60.1689 140.171 60.0528L140.069 59.9078C139.953 59.6902 139.997 59.5016 140.185 59.371C140.823 58.9504 141.679 58.7476 142.477 58.7476C143.971 58.7476 145.378 59.4871 145.378 61.3146V65.7097C145.378 65.9415 145.247 66.0721 145.015 66.0721H144.914C144.682 66.0721 144.537 65.956 144.479 65.7239L144.29 64.8828ZM143.42 62.4754C142.463 62.4754 140.606 62.7072 140.606 64.0853C140.606 64.8973 141.259 65.2458 141.868 65.2458C143.435 65.2458 144.247 64.1723 144.247 62.9251V62.4754H143.42Z" fill="white"/>
<path d="M149.643 65.71C149.643 65.9563 149.527 66.0723 149.28 66.0723H148.874C148.627 66.0723 148.512 65.9418 148.512 65.71V59.1827C148.512 58.9506 148.627 58.8201 148.874 58.8201H149.048C149.28 58.8201 149.44 58.9361 149.483 59.1685L149.643 59.9083C150.107 59.125 150.992 58.7481 151.862 58.7481C153.791 58.7481 154.429 59.9083 154.429 61.5763V65.7103C154.429 65.9566 154.313 66.0726 154.067 66.0726H153.661C153.414 66.0726 153.298 65.9421 153.298 65.7103V61.5617C153.298 60.5753 153.095 59.6472 151.688 59.6472C150.687 59.6472 149.643 60.4158 149.643 62.1565L149.643 65.71Z" fill="white"/>
<path d="M158.318 62.5476C158.391 64.3899 159.464 65.2455 160.755 65.2455C161.291 65.2455 161.697 65.1875 162.06 65.0714C162.292 64.9844 162.466 65.0421 162.582 65.2455L162.67 65.3906C162.8 65.6082 162.742 65.7674 162.525 65.8548C161.93 66.0866 161.321 66.1449 160.755 66.1449C158.869 66.1449 157.187 64.9699 157.187 62.3881C157.187 60.2414 158.332 58.7476 160.291 58.7476C162.365 58.7476 163.293 60.372 163.395 62.185C163.409 62.4171 163.293 62.5476 163.046 62.5476H158.318ZM158.333 61.7788H162.278C162.22 60.5025 161.335 59.6467 160.291 59.6467C159.246 59.6467 158.391 60.5025 158.333 61.7788Z" fill="white"/>
<path d="M167.369 65.71C167.369 65.9563 167.253 66.0723 167.007 66.0723H166.601C166.354 66.0723 166.238 65.9418 166.238 65.71V59.1827C166.238 58.9506 166.354 58.8201 166.601 58.8201H166.775C167.007 58.8201 167.166 58.9361 167.21 59.1685L167.369 59.9083C167.834 59.125 168.718 58.7481 169.589 58.7481C171.518 58.7481 172.156 59.9083 172.156 61.5763V65.7103C172.156 65.9566 172.04 66.0726 171.793 66.0726H171.387C171.141 66.0726 171.025 65.9421 171.025 65.7103V61.5617C171.025 60.5753 170.822 59.6472 169.415 59.6472C168.414 59.6472 167.37 60.4158 167.37 62.1565V65.71H167.369Z" fill="white"/>
<path d="M176.451 59.7192V63.8242C176.451 64.7526 176.639 65.2458 177.408 65.2458C177.539 65.2458 177.669 65.231 177.8 65.2023C178.046 65.1442 178.191 65.2313 178.264 65.4489L178.307 65.5939C178.38 65.8257 178.307 66.0001 178.075 66.0581C177.814 66.1161 177.568 66.1452 177.307 66.1452C175.87 66.1452 175.319 65.3331 175.319 63.8244V59.7192H174.928C174.696 59.7192 174.565 59.5886 174.565 59.3565V59.1827C174.565 58.9361 174.696 58.8201 174.928 58.8201H175.319L175.581 57.0074C175.61 56.7753 175.755 56.6447 175.987 56.6447H176.088C176.32 56.6447 176.451 56.7608 176.451 57.0074V58.8201H177.626C177.872 58.8201 177.988 58.9506 177.988 59.1827V59.3565C177.988 59.6031 177.857 59.7192 177.626 59.7192H176.451Z" fill="white"/>
</g>
<path fill-rule="evenodd" clip-rule="evenodd" d="M145.285 14.4828C145.517 13.7916 146.007 13.5524 146.72 13.5535C154.615 13.5658 168.002 13.5612 175.897 13.5612C176.01 13.5612 176.124 13.5612 176.307 13.5612C176.192 13.4415 176.12 13.3624 176.043 13.2861C174.799 12.0471 173.556 10.8079 172.311 9.57056C171.973 9.23521 171.862 8.83444 171.995 8.38503C172.119 7.96805 172.413 7.70125 172.84 7.6034C173.281 7.50214 173.646 7.6509 173.961 7.96464C175.354 9.35268 176.749 10.7382 178.144 12.1245C178.66 12.6388 179.19 13.1417 179.687 13.6736C179.911 13.9125 180.071 14.2109 180.26 14.4822C180.26 14.6361 180.26 14.7894 180.26 14.943C180.071 15.2146 179.918 15.521 179.688 15.7519C177.793 17.6557 175.886 19.5463 173.981 21.4389C173.472 21.9444 172.812 21.9913 172.333 21.5644C171.821 21.1087 171.806 20.3638 172.312 19.8563C173.553 18.6142 174.799 17.3775 176.045 16.1408C176.118 16.0679 176.212 16.0153 176.297 15.9536C176.282 15.924 176.267 15.8941 176.253 15.864C176.144 15.864 176.034 15.864 175.926 15.864C168.022 15.864 154.625 15.8597 146.722 15.872C146.008 15.8728 145.518 15.6336 145.285 14.9427C145.285 14.79 145.285 14.6367 145.285 14.4828Z" fill="#9B9B9B"/>
<path fill-rule="evenodd" clip-rule="evenodd" d="M145.456 33.8773C145.688 33.1861 146.178 32.9469 146.892 32.9477C154.787 32.9603 168.173 32.9554 176.068 32.9554C176.181 32.9554 176.295 32.9554 176.478 32.9554C176.363 32.8357 176.291 32.7566 176.214 32.6804C174.971 31.4417 173.728 30.2021 172.482 28.9651C172.144 28.6297 172.033 28.2287 172.166 27.7795C172.29 27.3623 172.584 27.0958 173.011 26.9976C173.452 26.8964 173.817 27.0451 174.133 27.3589C175.525 28.7469 176.921 30.1327 178.315 31.5187C178.831 32.033 179.361 32.5359 179.859 33.0678C180.082 33.3067 180.242 33.6051 180.431 33.8767C180.431 34.0303 180.431 34.1839 180.431 34.3372C180.242 34.6089 180.089 34.9149 179.859 35.1462C177.964 37.0499 176.057 38.9405 174.152 40.8332C173.643 41.3386 172.983 41.3855 172.504 40.9586C171.992 40.5029 171.977 39.758 172.483 39.2506C173.724 38.0084 174.97 36.7714 176.216 35.535C176.289 35.4622 176.383 35.4098 176.468 35.3478C176.453 35.3182 176.438 35.2887 176.424 35.2585C176.315 35.2585 176.205 35.2585 176.097 35.2585C168.193 35.2585 154.797 35.254 146.892 35.2668C146.179 35.2673 145.689 35.0278 145.456 34.3372C145.456 34.1845 145.456 34.0309 145.456 33.8773Z" fill="#9B9B9B"/>
<path fill-rule="evenodd" clip-rule="evenodd" d="M86.9297 24.6089C87.1618 23.9178 87.6519 23.6788 88.3652 23.6797C96.2603 23.6919 101.408 23.6874 109.303 23.6874C109.416 23.6874 109.53 23.6874 109.714 23.6874C109.599 23.5676 109.526 23.4885 109.449 23.4123C108.206 22.1733 106.963 20.934 105.717 19.6967C105.379 19.3614 105.268 18.9606 105.402 18.5115C105.525 18.0942 105.819 17.8277 106.246 17.7296C106.687 17.6283 107.052 17.7771 107.368 18.0908C108.76 19.4788 110.156 20.8643 111.55 22.2507C112.066 22.7649 112.596 23.2678 113.094 23.8C113.318 24.0386 113.478 24.337 113.667 24.6086C113.667 24.7625 113.667 24.9158 113.667 25.0694C113.478 25.3411 113.324 25.6474 113.094 25.8784C111.199 27.7821 109.292 29.6727 107.387 31.5654C106.878 32.0708 106.219 32.1178 105.739 31.6908C105.228 31.2352 105.212 30.4902 105.719 29.9828C106.96 28.7407 108.206 27.5039 109.451 26.2672C109.525 26.1944 109.619 26.1418 109.703 26.08C109.689 26.0505 109.673 26.0209 109.66 25.9904C109.55 25.9904 109.44 25.9904 109.332 25.9904C101.428 25.9904 96.2703 25.9862 88.3661 25.9984C87.6527 25.9993 87.1629 25.76 86.93 25.0692C86.9297 24.9161 86.9297 24.7628 86.9297 24.6089Z" fill="#9B9B9B"/>
</svg>
