<svg width="26" height="24" viewBox="0 0 26 24" fill="none" xmlns="http://www.w3.org/2000/svg">
<path d="M11.3683 15.6808V21.4736H13.8946V15.6808C13.8946 15.0164 13.6243 14.3646 13.1544 13.8947L10.6281 11.3684L13.8946 8.10186L16.4209 10.6282C16.8908 11.0981 17.5426 11.3684 18.207 11.3684H22.7367V8.84207H18.207L13.5245 4.15954C13.4073 4.04214 13.2681 3.949 13.1149 3.88545C12.9616 3.8219 12.7974 3.78918 12.6315 3.78918C12.4656 3.78918 12.3013 3.8219 12.1481 3.88545C11.9948 3.949 11.8556 4.04214 11.7384 4.15954L7.57883 8.31912C7.10136 8.7966 6.83862 9.4307 6.83862 10.1052C6.83862 10.7798 7.10136 11.4139 7.57883 11.8913L11.3683 15.6808Z" fill="#808080"/>
<path d="M17.6843 5.05263C19.0795 5.05263 20.2106 3.92156 20.2106 2.52632C20.2106 1.13107 19.0795 0 17.6843 0C16.289 0 15.158 1.13107 15.158 2.52632C15.158 3.92156 16.289 5.05263 17.6843 5.05263Z" fill="#808080"/>
<path d="M20.2105 13.8948C17.424 13.8948 15.1579 16.1609 15.1579 18.9474C15.1579 21.7339 17.424 24 20.2105 24C22.9971 24 25.2632 21.7339 25.2632 18.9474C25.2632 16.1609 22.9971 13.8948 20.2105 13.8948ZM20.2105 21.4737C18.8173 21.4737 17.6842 20.3407 17.6842 18.9474C17.6842 17.5541 18.8173 16.4211 20.2105 16.4211C21.6038 16.4211 22.7368 17.5541 22.7368 18.9474C22.7368 20.3407 21.6038 21.4737 20.2105 21.4737ZM5.05263 24C7.83916 24 10.1053 21.7339 10.1053 18.9474C10.1053 16.1609 7.83916 13.8948 5.05263 13.8948C2.26611 13.8948 0 16.1609 0 18.9474C0 21.7339 2.26611 24 5.05263 24ZM5.05263 16.4211C6.44589 16.4211 7.57895 17.5541 7.57895 18.9474C7.57895 20.3407 6.44589 21.4737 5.05263 21.4737C3.65937 21.4737 2.52632 20.3407 2.52632 18.9474C2.52632 17.5541 3.65937 16.4211 5.05263 16.4211Z" fill="#808080"/>
</svg>
