<svg width="30" height="32" viewBox="0 0 30 32" fill="none" xmlns="http://www.w3.org/2000/svg">
<ellipse cx="15" cy="16" rx="15" ry="16" fill="#ECF1F0"/>
<path d="M12.1336 9.7506C12.0479 9.84908 12 9.98127 12 10.1189C12 10.2566 12.0479 10.3888 12.1336 10.4872L16.9173 16L12.1336 21.5116C12.0479 21.6101 12 21.7423 12 21.8799C12 22.0176 12.0479 22.1498 12.1336 22.2482C12.1752 22.2963 12.2249 22.3344 12.2799 22.3605C12.3349 22.3866 12.3939 22.4 12.4536 22.4C12.5132 22.4 12.5723 22.3866 12.6273 22.3605C12.6822 22.3344 12.732 22.2963 12.7736 22.2482L17.8607 16.3848C17.95 16.2819 18 16.1438 18 16C18 15.8562 17.95 15.7181 17.8607 15.6151L12.7736 9.75171C12.732 9.70369 12.6822 9.66552 12.6273 9.63946C12.5723 9.6134 12.5132 9.59998 12.4536 9.59998C12.3939 9.59998 12.3349 9.6134 12.2799 9.63946C12.2249 9.66552 12.1752 9.70369 12.1336 9.75171V9.7506Z" fill="#2B2B2B"/>
</svg>
