<svg width="54" height="56" viewBox="0 0 54 56" fill="none" xmlns="http://www.w3.org/2000/svg">
<path d="M40.3721 30.9882L37.5934 25.0983L30.0459 34.0932L32.748 42.9297L40.3721 30.9882Z" fill="#005A24"/>
<path d="M21.599 15.2356L27.4434 16.5814L19.8958 25.5762L11.2988 24.9316L21.599 15.2356Z" fill="#005A24"/>
<path d="M21.8241 33.7794L23.4355 31.859L25.047 29.9386L42.2354 9.45425C42.2354 9.45425 38.2746 8.2982 31.2375 12.6887C27.1892 15.2145 23.9527 18.0288 20.8035 21.1964C18.7798 23.2319 16.9614 25.6084 15.0967 28.1344L16.4422 29.2634L15.3679 30.5437L16.945 31.867L15.8707 33.1473L19.6756 36.3399L20.7499 35.0597L21.8241 33.7794Z" fill="#DCDFD9"/>
<path d="M21.8241 33.7794L23.4355 31.859L25.047 29.9386L42.2354 9.45425C42.2354 9.45425 44.142 13.2216 41.0948 20.96C39.3418 25.4118 37.1466 29.0998 34.582 32.7579C32.9339 35.1087 30.9064 37.3096 28.7385 39.5812L27.3556 38.4209L26.2813 39.7011L24.6604 38.341L23.5861 39.6213L19.6756 36.3399L20.7499 35.0597L21.8241 33.7794Z" fill="#F9F1F9"/>
<path d="M16.4897 37.0353C17.5071 37.8889 18.2114 38.48 19.9331 39.9246C21.828 41.5146 15.6741 45.9539 15.2046 45.5599C14.735 45.1659 11.5762 46.3875 11.5762 46.3875C11.5762 46.3875 12.4655 43.2615 11.7612 42.6705C11.0568 42.0795 14.7318 35.5602 16.4897 37.0353Z" fill="#005A24"/>
<path d="M16.7882 37.2861C17.6286 37.9913 18.2104 38.4795 19.6327 39.673C21.198 40.9864 16.4742 44.2249 16.0863 43.8994C15.6984 43.5739 13.234 44.4102 13.234 44.4102C13.234 44.4102 13.8236 42.0008 13.2417 41.5125C12.6599 41.0243 15.336 36.0676 16.7882 37.2861Z" fill="#238927"/>
<path d="M17.2373 37.6623C17.8123 38.1448 18.2104 38.4789 19.1836 39.2954C20.2546 40.1941 17.0847 42.3358 16.8193 42.1131C16.5539 41.8904 14.8928 42.4327 14.8928 42.4327C14.8928 42.4327 15.2711 40.814 14.873 40.48C14.4749 40.1459 16.2437 36.8286 17.2373 37.6623Z" fill="#2EE411"/>
<path d="M16.6113 33.7688L22.9312 39.0718L20.5576 41.1226L15.1953 36.6231L16.6113 33.7688Z" fill="#25AE02"/>
<ellipse cx="36.6347" cy="16.2087" rx="4" ry="4.12903" transform="rotate(40 36.6347 16.2087)" fill="#00D5CC"/>
<path d="M29.2944 22.0799L32.4119 21.0871L31.9756 24.3296L19.3073 36.7045L29.2944 22.0799Z" fill="#005A24"/>
</svg>
