<svg width="32" height="32" viewBox="0 0 32 32" fill="none" xmlns="http://www.w3.org/2000/svg">
<ellipse cx="16" cy="15.7059" rx="16" ry="15.7059" fill="#EAEAEA"/>
<path d="M22.6004 10.172C21.4083 9.62448 20.1336 9.22657 18.801 9C18.6373 9.29046 18.4461 9.68113 18.3143 9.99191C16.8976 9.78278 15.494 9.78278 14.1035 9.99191C13.9717 9.68113 13.7761 9.29046 13.611 9C12.2769 9.22657 11.0008 9.62594 9.80864 10.1749C7.40412 13.7416 6.75229 17.2198 7.07821 20.6486C8.67301 21.8177 10.2186 22.5278 11.738 22.9925C12.1132 22.4857 12.4478 21.9469 12.7361 21.3791C12.1871 21.1743 11.6613 20.9216 11.1645 20.6283C11.2963 20.5324 11.4252 20.4322 11.5497 20.3291C14.58 21.7204 17.8725 21.7204 20.8665 20.3291C20.9926 20.4322 21.1215 20.5324 21.2518 20.6283C20.7535 20.9231 20.2263 21.1758 19.6773 21.3805C19.9656 21.9469 20.2987 22.4872 20.6753 22.994C22.1963 22.5293 23.7433 21.8191 25.3381 20.6486C25.7205 16.6738 24.6848 13.2275 22.6004 10.172ZM13.1489 18.5399C12.2392 18.5399 11.4932 17.7063 11.4932 16.6912C11.4932 15.6761 12.2233 14.841 13.1489 14.841C14.0745 14.841 14.8205 15.6746 14.8045 16.6912C14.806 17.7063 14.0745 18.5399 13.1489 18.5399ZM19.2674 18.5399C18.3577 18.5399 17.6117 17.7063 17.6117 16.6912C17.6117 15.6761 18.3418 14.841 19.2674 14.841C20.193 14.841 20.939 15.6746 20.923 16.6912C20.923 17.7063 20.193 18.5399 19.2674 18.5399Z" fill="black"/>
</svg>
