<svg width="32" height="32" viewBox="0 0 32 32" fill="none" xmlns="http://www.w3.org/2000/svg">
<circle cx="16" cy="16" r="16" fill="#EAEAEA"/>
<mask id="mask0_18_1881" style="mask-type:luminance" maskUnits="userSpaceOnUse" x="7" y="9" width="20" height="14">
<path d="M26.7647 9H7V23H26.7647V9Z" fill="white"/>
</mask>
<g mask="url(#mask0_18_1881)">
<path d="M24.8979 14.8032C24.4028 14.8032 23.928 14.9951 23.5779 15.337C23.2277 15.6788 23.0311 16.1424 23.0311 16.6258C23.0321 16.7677 23.0508 16.909 23.0872 17.0465L17.3115 20.0762C17.1284 19.8397 16.8885 19.651 16.6129 19.5266C16.3373 19.4023 16.0345 19.3463 15.7314 19.3635C15.4283 19.3808 15.1342 19.4708 14.8753 19.6255C14.6163 19.7802 14.4004 19.9949 14.2468 20.2506C12.3589 19.3513 9.23818 17.8569 8.88092 17.6243C8.35904 17.2824 8.04031 16.6566 8.11387 15.511C8.18742 14.3654 9.05254 14.6527 9.49736 14.9194C9.94218 15.1861 15.5112 18.1236 15.5112 18.1236L26.0188 12.6522L18.2256 9C18.2256 9 9.11908 13.0796 8.06834 13.7054C7.01758 14.3312 7.01758 15.275 7.01758 15.853C7.01758 16.4309 7.09113 17.7851 8.45361 18.4861C9.35026 18.9477 12.1803 20.3361 13.9981 21.2218C13.9976 21.4733 14.0505 21.7221 14.1535 21.9526C14.2565 22.1831 14.4073 22.3903 14.5965 22.5611C14.7856 22.7318 15.0089 22.8624 15.2523 22.9446C15.4958 23.0268 15.754 23.0588 16.0108 23.0386C16.2675 23.0184 16.5172 22.9466 16.7441 22.8275C16.971 22.7083 17.17 22.5446 17.3288 22.3465C17.4876 22.1485 17.6025 21.9204 17.6664 21.6768C17.7304 21.4332 17.7419 21.1793 17.7003 20.9311L23.6125 17.9184C23.8311 18.1264 24.0988 18.2789 24.392 18.3622C24.685 18.4456 24.9947 18.4573 25.2936 18.3965C25.5924 18.3355 25.8714 18.2039 26.106 18.013C26.3405 17.8222 26.5234 17.578 26.6385 17.302C26.7538 17.026 26.7977 16.7265 26.7666 16.43C26.7355 16.1334 26.6301 15.8489 26.46 15.6014C26.2898 15.3539 26.0599 15.1511 25.7906 15.0107C25.5213 14.8703 25.2208 14.7967 24.9155 14.7963L24.8979 14.8032ZM15.8404 21.9673C15.6804 21.9673 15.5239 21.9209 15.3909 21.8341C15.2579 21.7473 15.1542 21.624 15.0929 21.4796C15.0317 21.3353 15.0157 21.1765 15.0469 21.0232C15.0781 20.87 15.1552 20.7293 15.2683 20.6188C15.3815 20.5083 15.5256 20.4331 15.6826 20.4026C15.8395 20.3721 16.0022 20.3878 16.1501 20.4476C16.2979 20.5073 16.4242 20.6086 16.5132 20.7385C16.602 20.8684 16.6495 21.0211 16.6495 21.1774C16.65 21.2812 16.6294 21.3842 16.5889 21.4802C16.5483 21.5762 16.4888 21.6635 16.4135 21.737C16.3383 21.8103 16.249 21.8686 16.1506 21.9081C16.0522 21.9476 15.9468 21.9677 15.8404 21.9673ZM24.8979 17.4157C24.7371 17.4157 24.5798 17.3691 24.4461 17.2818C24.3124 17.1944 24.2083 17.0703 24.1469 16.9252C24.0854 16.78 24.0695 16.6204 24.1012 16.4664C24.1329 16.3124 24.2106 16.171 24.3246 16.0602C24.4386 15.9494 24.5837 15.8741 24.7415 15.8439C24.8994 15.8136 25.0629 15.8299 25.2113 15.8904C25.3598 15.951 25.4864 16.0532 25.5753 16.1841C25.6641 16.315 25.7112 16.4688 25.7105 16.6258C25.7105 16.7298 25.6895 16.8328 25.6486 16.9289C25.6077 17.025 25.5478 17.1122 25.4723 17.1856C25.3968 17.259 25.3072 17.3171 25.2086 17.3566C25.1101 17.396 25.0045 17.4162 24.8979 17.4157Z" fill="#2B2B2B"/>
</g>
</svg>
