<svg width="32" height="32" viewBox="0 0 32 32" fill="none" xmlns="http://www.w3.org/2000/svg">
<circle cx="16" cy="16" r="16" fill="#EAEAEA"/>
<path fill-rule="evenodd" clip-rule="evenodd" d="M20.5286 21.9933V21.9919L20.5413 21.9616L22.6572 11.2937V11.2598C22.6572 10.9938 22.5585 10.7617 22.3454 10.6227C22.1584 10.5006 21.9432 10.4922 21.7922 10.5035C21.6517 10.5162 21.513 10.5446 21.3788 10.5881C21.3215 10.6066 21.265 10.6273 21.2094 10.6502L21.2003 10.6538L9.40352 15.2814L9.39999 15.2829C9.36412 15.2951 9.32902 15.3095 9.29486 15.3259C9.21096 15.3636 9.13047 15.4084 9.05427 15.4599C8.90258 15.5644 8.61401 15.8099 8.66269 16.1994C8.70291 16.5225 8.92515 16.7271 9.07544 16.8336C9.16414 16.8958 9.25951 16.9479 9.35977 16.9889L9.38235 16.9987L9.3894 17.0009L9.39434 17.003L11.4588 17.6979C11.4517 17.8271 11.4644 17.959 11.499 18.0895L12.5326 22.0117C12.5891 22.2255 12.7111 22.4162 12.8815 22.5571C13.052 22.698 13.2622 22.7819 13.4828 22.7972C13.7034 22.8125 13.9233 22.7582 14.1115 22.6421C14.2997 22.5261 14.4468 22.3539 14.5321 22.1499L16.1464 20.4242L18.9185 22.5493L18.958 22.5662C19.2099 22.6763 19.4449 22.7109 19.6601 22.6819C19.8753 22.6523 20.046 22.562 20.1744 22.4597C20.3229 22.3393 20.4413 22.1859 20.5201 22.0117L20.5258 21.9997L20.5279 21.9954L20.5286 21.9933ZM12.522 17.82C12.5106 17.7765 12.5133 17.7304 12.5298 17.6886C12.5463 17.6467 12.5757 17.6112 12.6138 17.5872L19.6135 13.1422C19.6135 13.1422 20.0255 12.8917 20.0107 13.1422C20.0107 13.1422 20.0841 13.186 19.8633 13.3913C19.6544 13.5867 14.8743 18.2017 14.3903 18.6688C14.3634 18.6949 14.3446 18.7282 14.336 18.7647L13.5557 21.7421L12.522 17.82Z" fill="#2B2B2B"/>
</svg>
