<svg width="32" height="32" viewBox="0 0 32 32" fill="none" xmlns="http://www.w3.org/2000/svg">
<circle cx="16" cy="16" r="16" fill="#EAEAEA"/>
<path d="M13.5135 9.23066C14.0386 9.40856 14.5382 9.65447 14.9995 9.96213C15.651 9.79563 16.3208 9.71199 16.9932 9.71318C17.6876 9.71318 18.3576 9.79989 18.9855 9.96143C19.4466 9.65407 19.946 9.40839 20.4709 9.23066C20.9583 9.06492 21.6527 8.79639 22.0653 9.25304C22.345 9.56353 22.4149 10.0838 22.4646 10.481C22.5205 10.9244 22.5338 11.502 22.387 12.0754C22.9485 12.8006 23.287 13.6657 23.287 14.6083C23.287 16.0363 22.5135 17.2762 21.3688 18.1349C20.8179 18.543 20.2068 18.8629 19.5576 19.0832C19.7072 19.4258 19.7904 19.8049 19.7904 20.2028V22.3007C19.7904 22.4862 19.7168 22.664 19.5856 22.7952C19.4545 22.9263 19.2766 23 19.0911 23H14.8953C14.7098 23 14.532 22.9263 14.4008 22.7952C14.2697 22.664 14.196 22.4862 14.196 22.3007V21.6077C13.5282 21.6895 12.968 21.6168 12.4918 21.4147C11.9939 21.2035 11.647 20.8762 11.3862 20.5629C11.1386 20.2664 10.8687 19.5979 10.4785 19.4678C10.3913 19.4388 10.3108 19.3929 10.2413 19.3327C10.1719 19.2726 10.115 19.1993 10.0739 19.1172C9.99093 18.9513 9.97722 18.7592 10.0358 18.5832C10.0944 18.4072 10.2206 18.2617 10.3865 18.1786C10.5524 18.0956 10.7444 18.0819 10.9204 18.1405C11.3862 18.2958 11.6897 18.6314 11.8974 18.9014C12.233 19.3349 12.5058 19.9014 13.0372 20.1273C13.2561 20.2203 13.5771 20.2811 14.0792 20.2126L14.196 20.1888C14.1973 19.8082 14.2766 19.432 14.4289 19.0832C13.7796 18.8629 13.1686 18.543 12.6177 18.1349C11.4729 17.2762 10.6995 16.037 10.6995 14.6083C10.6995 13.6671 11.0372 12.8027 11.5974 12.0782C11.4505 11.5048 11.4631 10.9258 11.5191 10.4817L11.5226 10.4551C11.5736 10.0481 11.633 9.56912 11.9184 9.25304C12.3309 8.79639 13.0261 9.06562 13.5128 9.23136L13.5135 9.23066Z" fill="#2B2B2B"/>
</svg>
