<svg width="22" height="22" viewBox="0 0 22 22" fill="none" xmlns="http://www.w3.org/2000/svg">
<circle cx="11" cy="11" r="11" fill="#383838"/>
<path d="M14.471 8.63639C13.8236 8.33909 13.1315 8.12303 12.4079 8C12.319 8.15772 12.2152 8.36985 12.1436 8.5386C11.3744 8.42505 10.6122 8.42505 9.85715 8.5386C9.78558 8.36985 9.6794 8.15772 9.58973 8C8.86534 8.12303 8.1724 8.33988 7.52508 8.63796C6.21943 10.5747 5.8655 12.4633 6.04247 14.3251C6.90844 14.9599 7.74767 15.3456 8.57274 15.5979C8.77645 15.3227 8.95814 15.0301 9.11466 14.7218C8.81656 14.6106 8.53105 14.4734 8.26128 14.3141C8.33285 14.2621 8.40286 14.2076 8.47049 14.1516C10.1159 14.9071 11.9037 14.9071 13.5295 14.1516C13.5979 14.2076 13.6679 14.2621 13.7387 14.3141C13.4681 14.4742 13.1818 14.6114 12.8837 14.7226C13.0402 15.0301 13.2212 15.3235 13.4256 15.5987C14.2515 15.3463 15.0915 14.9607 15.9575 14.3251C16.1651 12.1668 15.6028 10.2955 14.471 8.63639ZM9.33882 13.1801C8.84488 13.1801 8.43981 12.7275 8.43981 12.1763C8.43981 11.6251 8.83623 11.1716 9.33882 11.1716C9.84143 11.1716 10.2465 11.6243 10.2378 12.1763C10.2386 12.7275 9.84143 13.1801 9.33882 13.1801ZM12.6611 13.1801C12.1672 13.1801 11.7621 12.7275 11.7621 12.1763C11.7621 11.6251 12.1585 11.1716 12.6611 11.1716C13.1637 11.1716 13.5688 11.6243 13.5602 12.1763C13.5602 12.7275 13.1637 13.1801 12.6611 13.1801Z" fill="#ECF1F0"/>
</svg>
