<svg width="22" height="22" viewBox="0 0 22 22" fill="none" xmlns="http://www.w3.org/2000/svg">
<circle cx="11" cy="11" r="11" fill="#E3FFFB"/>
<path fill-rule="evenodd" clip-rule="evenodd" d="M14.4795 15.2096V15.2086L14.4886 15.187L16 7.56705V7.54286C16 7.35286 15.9294 7.18706 15.7772 7.08778C15.6437 7.00059 15.49 6.99455 15.3821 7.00261C15.2818 7.01169 15.1827 7.03197 15.0868 7.06309C15.0459 7.07627 15.0056 7.09106 14.9659 7.10743L14.9593 7.10995L6.53306 10.4154L6.53054 10.4165C6.50493 10.4252 6.47985 10.4355 6.45545 10.4472C6.39553 10.4741 6.33803 10.5062 6.2836 10.5429C6.17525 10.6175 5.96913 10.7929 6.0039 11.0711C6.03263 11.3019 6.19138 11.4481 6.29872 11.5242C6.36208 11.5686 6.4302 11.6058 6.50182 11.635L6.51794 11.6421L6.52298 11.6436L6.52651 11.6451L8.00111 12.1415C7.99607 12.2337 8.00514 12.328 8.02983 12.4212L8.76814 15.2227C8.80847 15.3755 8.89562 15.5117 9.01736 15.6123C9.13909 15.713 9.28929 15.7729 9.44686 15.7838C9.60443 15.7947 9.76146 15.756 9.89589 15.6731C10.0303 15.5902 10.1354 15.4672 10.1964 15.3215L11.3494 14.0888L13.3295 15.6068L13.3577 15.6189C13.5376 15.6975 13.7055 15.7222 13.8592 15.7015C14.0129 15.6803 14.1348 15.6158 14.2266 15.5428C14.3326 15.4567 14.4172 15.3472 14.4735 15.2227L14.4775 15.2142L14.479 15.2112L14.4795 15.2096ZM8.76058 12.2287C8.7524 12.1976 8.75435 12.1647 8.76613 12.1348C8.77791 12.1049 8.79891 12.0796 8.82609 12.0624L13.8259 8.88743C13.8259 8.88743 14.1202 8.70852 14.1096 8.88743C14.1096 8.88743 14.162 8.91868 14.0043 9.06533C13.8551 9.20493 10.4408 12.5013 10.0951 12.835C10.0758 12.8536 10.0624 12.8774 10.0563 12.9035L9.49888 15.0302L8.76058 12.2287Z" fill="#2B2B2B"/>
</svg>
