<svg width="21" height="21" viewBox="0 0 21 21" fill="none" xmlns="http://www.w3.org/2000/svg">
<path d="M12.1301 20.19L10.5001 16.36C12.0701 15.78 13.5401 15 14.9001 14.09L12.1301 20.19ZM4.64006 10.5L0.810059 8.87003L6.91006 6.10003C6.00006 7.46003 5.22006 8.93003 4.64006 10.5ZM20.6101 0.390033C20.6101 0.390033 15.6601 -1.73097 10.0001 3.93003C7.81006 6.12003 6.50006 8.53003 5.65006 10.64C5.37006 11.39 5.56006 12.21 6.11006 12.77L8.24006 14.89C8.79006 15.45 9.61006 15.63 10.3601 15.35C12.8786 14.3897 15.1654 12.9073 17.0701 11C22.7301 5.34003 20.6101 0.390033 20.6101 0.390033ZM13.5401 7.46003C12.7601 6.68003 12.7601 5.41003 13.5401 4.63003C14.3201 3.85003 15.5901 3.85003 16.3701 4.63003C17.1401 5.41003 17.1501 6.68003 16.3701 7.46003C15.5901 8.24003 14.3201 8.24003 13.5401 7.46003ZM5.24006 20L8.88006 16.36C8.54006 16.27 8.21006 16.12 7.91006 15.91L3.83006 20H5.24006ZM1.00006 20H2.41006L7.18006 15.24L5.76006 13.83L1.00006 18.59V20ZM1.00006 17.17L5.09006 13.09C4.88006 12.79 4.73006 12.47 4.64006 12.12L1.00006 15.76V17.17Z" fill="#808080"/>
</svg>
