<svg width="45" height="45" viewBox="0 0 45 45" fill="none" xmlns="http://www.w3.org/2000/svg">
<rect x="0.568359" width="44.3674" height="44.3674" rx="5" fill="#232323"/>
<path d="M26.468 15.0295C25.6252 15.0293 24.816 15.36 24.2144 15.9503C23.6129 16.5407 23.2671 17.3435 23.2514 18.1862L23.2203 19.9332C23.2187 20.0271 23.1971 20.1196 23.1572 20.2046C23.1172 20.2895 23.0597 20.3651 22.9885 20.4263C22.9173 20.4875 22.8339 20.5329 22.7438 20.5595C22.6538 20.5862 22.5591 20.5935 22.4661 20.581L20.7335 20.3447C18.4564 20.0341 16.2735 18.986 14.1782 17.2412C13.5161 20.9126 14.8105 23.456 17.9306 25.4181L19.8684 26.636C19.9603 26.6938 20.0366 26.7732 20.0908 26.8673C20.145 26.9614 20.1753 27.0674 20.1791 27.1759C20.183 27.2844 20.1602 27.3922 20.1128 27.4899C20.0654 27.5876 19.9948 27.6722 19.9072 27.7363L18.1414 29.0274C19.1918 29.094 20.1889 29.0474 21.0164 28.8832C26.2495 27.8384 29.729 23.9008 29.729 17.4054C29.729 16.8752 28.6054 15.0295 26.468 15.0295ZM21.033 18.1463C21.0524 17.0771 21.3867 16.0374 21.9942 15.1573C22.6016 14.2772 23.4552 13.5959 24.4481 13.1986C25.4409 12.8014 26.5289 12.7058 27.5758 12.924C28.6227 13.1421 29.582 13.6642 30.3335 14.425C31.1222 14.4194 31.7932 14.6191 33.2928 13.7085C32.9224 15.5275 32.7382 16.3184 31.9474 17.4043C31.9474 25.8795 26.7375 30.0024 21.4501 31.0572C17.8263 31.7804 12.5544 30.5925 11.0459 29.0141C11.8146 28.9553 14.9425 28.6192 16.7504 27.2949C15.2198 26.2855 9.13255 22.7028 13.1334 13.0729C15.0112 15.2657 16.9157 16.7576 18.8457 17.5507C20.129 18.0775 20.4451 18.0664 21.0341 18.1474L21.033 18.1463Z" fill="white"/>
</svg>
