<svg width="45" height="45" viewBox="0 0 45 45" fill="none" xmlns="http://www.w3.org/2000/svg">
<rect x="0.568359" y="0.017334" width="44.3674" height="44.3674" rx="5" fill="white"/>
<path d="M26.468 15.0468C25.6252 15.0467 24.816 15.3773 24.2144 15.9677C23.6129 16.558 23.2671 17.3609 23.2514 18.2036L23.2203 19.9505C23.2187 20.0444 23.1971 20.1369 23.1572 20.2219C23.1172 20.3069 23.0597 20.3824 22.9885 20.4436C22.9173 20.5048 22.8339 20.5502 22.7438 20.5769C22.6538 20.6035 22.5591 20.6108 22.4661 20.5983L20.7335 20.362C18.4564 20.0515 16.2735 19.0033 14.1782 17.2585C13.5161 20.9299 14.8105 23.4733 17.9306 25.4355L19.8684 26.6533C19.9603 26.7112 20.0366 26.7906 20.0908 26.8847C20.145 26.9788 20.1753 27.0847 20.1791 27.1932C20.183 27.3017 20.1602 27.4095 20.1128 27.5072C20.0654 27.6049 19.9948 27.6895 19.9072 27.7537L18.1414 29.0447C19.1918 29.1113 20.1889 29.0647 21.0164 28.9006C26.2495 27.8557 29.729 23.9181 29.729 17.4227C29.729 16.8925 28.6054 15.0468 26.468 15.0468ZM21.033 18.1636C21.0524 17.0944 21.3867 16.0547 21.9942 15.1746C22.6016 14.2945 23.4552 13.6132 24.4481 13.216C25.4409 12.8187 26.5289 12.7232 27.5758 12.9413C28.6227 13.1595 29.582 13.6816 30.3335 14.4423C31.1222 14.4368 31.7932 14.6364 33.2928 13.7258C32.9224 15.5448 32.7382 16.3357 31.9474 17.4216C31.9474 25.8969 26.7375 30.0197 21.4501 31.0746C17.8263 31.7977 12.5544 30.6098 11.0459 29.0314C11.8146 28.9726 14.9425 28.6366 16.7504 27.3122C15.2198 26.3028 9.13255 22.7202 13.1334 13.0902C15.0112 15.2831 16.9157 16.7749 18.8457 17.568C20.129 18.0949 20.4451 18.0838 21.0341 18.1647L21.033 18.1636Z" fill="#1A2B4A"/>
</svg>
