<svg width="31" height="32" viewBox="0 0 31 32" fill="none" xmlns="http://www.w3.org/2000/svg">
<path d="M15.5 0C6.93958 0 0 7.16344 0 16C0 24.8366 6.93958 32 15.5 32C24.0604 32 31 24.8366 31 16C31 7.16344 24.0604 0 15.5 0ZM25.3252 9.125H22.4997C22.1749 7.71794 21.7535 6.42419 21.2532 5.28038C22.209 5.82888 23.0968 6.51769 23.8914 7.33794C24.4284 7.89231 24.907 8.49088 25.3252 9.125ZM27.3672 16C27.3672 17.0693 27.2345 18.1173 26.9788 19.125H23.1018C23.1987 18.1143 23.25 17.0696 23.25 16C23.25 14.9304 23.1987 13.8857 23.1018 12.875H26.9788C27.2345 13.8827 27.3672 14.9307 27.3672 16ZM15.5 28.25C15.1852 28.25 14.2256 27.6112 13.2692 25.6367C12.8731 24.8188 12.5331 23.8871 12.2549 22.875H18.745C18.4669 23.887 18.1269 24.8188 17.7307 25.6367C16.7744 27.6112 15.8148 28.25 15.5 28.25ZM11.5531 19.125C11.4413 18.1096 11.3828 17.0607 11.3828 16C11.3828 14.9393 11.4413 13.8904 11.5531 12.875H19.4469C19.5587 13.8904 19.6172 14.9393 19.6172 16C19.6172 17.0607 19.5587 18.1096 19.4469 19.125H11.5531ZM3.63281 16C3.63281 14.9307 3.76547 13.8827 4.02116 12.875H7.89822C7.80128 13.8857 7.75 14.9304 7.75 16C7.75 17.0696 7.80128 18.1143 7.89822 19.125H4.02116C3.76547 18.1173 3.63281 17.0693 3.63281 16ZM15.5 3.75C15.8148 3.75 16.7744 4.38881 17.7308 6.36331C18.1269 7.18125 18.4669 8.11294 18.7451 9.125H12.2549C12.5331 8.113 12.873 7.18125 13.2692 6.36331C14.2256 4.38881 15.1852 3.75 15.5 3.75ZM9.74678 5.28038C9.24642 6.42419 8.82513 7.71788 8.5003 9.125H5.67476C6.09307 8.49088 6.57158 7.89231 7.10863 7.33794C7.90324 6.51769 8.79098 5.82888 9.74678 5.28038ZM5.67476 22.875H8.5003C8.82513 24.2821 9.24648 25.5758 9.74678 26.7196C8.79098 26.1711 7.90318 25.4823 7.10863 24.6621C6.57158 24.1077 6.09301 23.5091 5.67476 22.875ZM21.2532 26.7196C21.7536 25.5758 22.1749 24.2821 22.4997 22.875H25.3252C24.9069 23.5091 24.4284 24.1077 23.8914 24.6621C23.0968 25.4823 22.209 26.1711 21.2532 26.7196Z" fill="white"/>
</svg>
