<svg width="64" height="60" viewBox="0 0 64 60" fill="none" xmlns="http://www.w3.org/2000/svg">
<rect width="64" height="59.9365" rx="9" fill="#0FAE96"/>
<g clip-path="url(#clip0_208_1244)">
<path fill-rule="evenodd" clip-rule="evenodd" d="M17.4753 17.6669C16.0149 17.6669 14.6143 18.2435 13.5816 19.27C12.5489 20.2964 11.9688 21.6886 11.9688 23.1402V41.0529C11.9688 42.5045 12.5489 43.8967 13.5816 44.9231C14.6143 45.9496 16.0149 46.5262 17.4753 46.5262H45.5085C46.969 46.5262 48.3696 45.9496 49.4022 44.9231C50.4349 43.8967 51.0151 42.5045 51.0151 41.0529V23.1402C51.0151 21.6886 50.4349 20.2964 49.4022 19.27C48.3696 18.2435 46.969 17.6669 45.5085 17.6669H17.4753ZM40.5026 29.6087C39.8388 29.6087 39.2021 29.8708 38.7327 30.3373C38.2633 30.8039 37.9996 31.4367 37.9996 32.0965C37.9996 32.7564 38.2633 33.3892 38.7327 33.8557C39.2021 34.3223 39.8388 34.5844 40.5026 34.5844C41.1664 34.5844 41.8031 34.3223 42.2725 33.8557C42.7419 33.3892 43.0056 32.7564 43.0056 32.0965C43.0056 31.4367 42.7419 30.8039 42.2725 30.3373C41.8031 29.8708 41.1664 29.6087 40.5026 29.6087Z" fill="white"/>
<path d="M40.4726 11.3358C41.0655 11.1787 41.6868 11.1592 42.2884 11.2787C42.8901 11.3981 43.4561 11.6534 43.9427 12.0248C44.4294 12.3962 44.8237 12.8738 45.0952 13.4207C45.3667 13.9676 45.5081 14.5692 45.5086 15.179H25.4849L40.4726 11.3358Z" fill="white"/>
</g>
<defs>
<clipPath id="clip0_208_1244">
<rect width="38.6032" height="37.5873" fill="white" transform="translate(12.1904 9.14282)"/>
</clipPath>
</defs>
</svg>
